<svg width="40" height="40" viewBox="0 0 40 40" fill="none" xmlns="http://www.w3.org/2000/svg">
<g clip-path="url(#clip0)">
<path d="M33.862 7.28338C31.2687 6.09311 28.532 5.24435 25.7203 4.75838C25.6947 4.75338 25.6681 4.75666 25.6444 4.76775C25.6208 4.77883 25.6012 4.79714 25.5886 4.82004C25.2386 5.44504 24.8486 6.26004 24.5753 6.90338C21.5444 6.44302 18.4613 6.44302 15.4303 6.90338C15.1261 6.19055 14.7828 5.49504 14.402 4.82004C14.3888 4.79766 14.3692 4.77978 14.3457 4.76877C14.3222 4.75776 14.2959 4.75413 14.2703 4.75838C11.4584 5.24334 8.72153 6.09214 6.12865 7.28338C6.10669 7.29258 6.08808 7.30829 6.07531 7.32838C0.888646 15.0767 -0.533021 22.6334 0.165313 30.095C0.167009 30.1136 0.172466 30.1315 0.18135 30.1479C0.190234 30.1642 0.202358 30.1786 0.216979 30.19C3.2363 32.4271 6.61383 34.1347 10.2053 35.24C10.2306 35.2474 10.2576 35.2468 10.2826 35.2385C10.3076 35.2302 10.3295 35.2144 10.3453 35.1934C11.1153 34.1434 11.802 33.035 12.3886 31.87C12.3968 31.8541 12.4016 31.8367 12.4025 31.8188C12.4035 31.8009 12.4006 31.783 12.3942 31.7664C12.3877 31.7497 12.3778 31.7345 12.3651 31.7219C12.3523 31.7094 12.3371 31.6996 12.3203 31.6934C11.2427 31.281 10.1994 30.7839 9.20031 30.2067C9.182 30.1961 9.16658 30.1812 9.15545 30.1632C9.14431 30.1452 9.13779 30.1247 9.13647 30.1036C9.13515 30.0825 9.13907 30.0614 9.14788 30.0422C9.15669 30.0229 9.17013 30.0062 9.18698 29.9934C9.39738 29.836 9.6041 29.6737 9.80698 29.5067C9.82473 29.4923 9.84612 29.4831 9.86878 29.4802C9.89144 29.4772 9.91448 29.4807 9.93531 29.49C16.482 32.4784 23.5686 32.4784 30.0386 29.49C30.0597 29.4803 30.083 29.4767 30.106 29.4797C30.129 29.4826 30.1507 29.492 30.1686 29.5067C30.3686 29.67 30.5786 29.8367 30.7903 29.9934C30.807 30.006 30.8203 30.0224 30.8292 30.0413C30.838 30.0602 30.8422 30.081 30.8412 30.1018C30.8402 30.1227 30.8341 30.143 30.8235 30.161C30.8129 30.179 30.7981 30.1941 30.7803 30.205C29.7835 30.7876 28.7392 31.285 27.6586 31.6917C27.6418 31.6981 27.6265 31.7081 27.6138 31.7208C27.6011 31.7335 27.5912 31.7488 27.5847 31.7656C27.5783 31.7825 27.5754 31.8004 27.5764 31.8184C27.5774 31.8364 27.5821 31.854 27.5903 31.87C28.1903 33.0334 28.877 34.14 29.632 35.1917C29.6475 35.2131 29.6694 35.2292 29.6945 35.2375C29.7196 35.2459 29.7467 35.2462 29.772 35.2384C33.3695 34.1364 36.7525 32.4286 39.7753 30.1884C39.79 30.178 39.8024 30.1646 39.8116 30.1491C39.8208 30.1335 39.8266 30.1163 39.8286 30.0984C40.662 21.47 38.432 13.975 33.9136 7.33171C33.9031 7.30931 33.8847 7.29153 33.862 7.28171V7.28338ZM13.367 25.55C11.3953 25.55 9.77198 23.7417 9.77198 21.5184C9.77198 19.2967 11.3653 17.4867 13.367 17.4867C15.3836 17.4867 16.9936 19.3134 16.962 21.52C16.962 23.7417 15.3686 25.55 13.367 25.55ZM26.6586 25.55C24.687 25.55 23.0636 23.7417 23.0636 21.5184C23.0636 19.2967 24.6553 17.4867 26.6586 17.4867C28.6753 17.4867 30.2853 19.3134 30.2536 21.52C30.2536 23.7417 28.677 25.55 26.6586 25.55Z" fill="#261F1F"/>
</g>
<defs>
<clipPath id="clip0">
<rect width="40" height="40" fill="white"/>
</clipPath>
</defs>
</svg>
