<svg width="35" height="35" viewBox="0 0 35 35" fill="none" xmlns="http://www.w3.org/2000/svg">
<path d="M15.8594 17.5C15.8594 17.9351 16.0322 18.3524 16.3399 18.6601C16.6476 18.9678 17.0649 19.1406 17.5 19.1406C17.9351 19.1406 18.3524 18.9678 18.6601 18.6601C18.9678 18.3524 19.1406 17.9351 19.1406 17.5C19.1406 17.0649 18.9678 16.6476 18.6601 16.3399C18.3524 16.0322 17.9351 15.8594 17.5 15.8594C17.0649 15.8594 16.6476 16.0322 16.3399 16.3399C16.0322 16.6476 15.8594 17.0649 15.8594 17.5ZM22.6953 17.5C22.6953 17.9351 22.8682 18.3524 23.1759 18.6601C23.4835 18.9678 23.9008 19.1406 24.3359 19.1406C24.7711 19.1406 25.1884 18.9678 25.496 18.6601C25.8037 18.3524 25.9766 17.9351 25.9766 17.5C25.9766 17.0649 25.8037 16.6476 25.496 16.3399C25.1884 16.0322 24.7711 15.8594 24.3359 15.8594C23.9008 15.8594 23.4835 16.0322 23.1759 16.3399C22.8682 16.6476 22.6953 17.0649 22.6953 17.5ZM9.02345 17.5C9.02345 17.9351 9.1963 18.3524 9.50398 18.6601C9.81165 18.9678 10.229 19.1406 10.6641 19.1406C11.0992 19.1406 11.5165 18.9678 11.8242 18.6601C12.1318 18.3524 12.3047 17.9351 12.3047 17.5C12.3047 17.0649 12.1318 16.6476 11.8242 16.3399C11.5165 16.0322 11.0992 15.8594 10.6641 15.8594C10.229 15.8594 9.81165 16.0322 9.50398 16.3399C9.1963 16.6476 9.02345 17.0649 9.02345 17.5ZM31.6231 11.5664C30.8506 9.73096 29.7432 8.0835 28.3316 6.66846C26.9298 5.26161 25.2658 4.14334 23.4336 3.37695C21.5537 2.5874 19.5576 2.1875 17.5 2.1875H17.4317C15.3604 2.19775 13.354 2.60791 11.4673 3.41455C9.65084 4.18879 8.00238 5.30905 6.61378 6.71289C5.21583 8.12451 4.11866 9.76514 3.35987 11.5938C2.57374 13.4873 2.17726 15.5005 2.18751 17.5718C2.19911 19.9455 2.76068 22.2842 3.82814 24.4043V29.5996C3.82814 30.0166 3.99378 30.4165 4.28864 30.7114C4.5835 31.0062 4.98341 31.1719 5.4004 31.1719H10.5991C12.7193 32.2393 15.058 32.8009 17.4317 32.8125H17.5034C19.5508 32.8125 21.5366 32.416 23.4063 31.6401C25.2292 30.8829 26.887 29.7777 28.2871 28.3862C29.6987 26.9883 30.8096 25.3545 31.5855 23.5327C32.3921 21.646 32.8023 19.6396 32.8125 17.5684C32.8228 15.4868 32.4194 13.4668 31.6231 11.5664ZM26.4585 26.5371C24.0625 28.9092 20.8838 30.2148 17.5 30.2148H17.4419C15.3809 30.2046 13.3335 29.6919 11.5254 28.728L11.2383 28.5742H6.42579V23.7617L6.27198 23.4746C5.30812 21.6665 4.79542 19.6191 4.78517 17.5581C4.7715 14.1504 6.07374 10.9512 8.4629 8.5415C10.8486 6.13184 14.0376 4.79883 17.4453 4.78516H17.5034C19.2124 4.78516 20.8701 5.1167 22.4321 5.77295C23.9566 6.41211 25.3237 7.33154 26.4995 8.50732C27.6719 9.67969 28.5947 11.0503 29.2339 12.5747C29.897 14.1538 30.2285 15.8286 30.2217 17.5581C30.2012 20.9624 28.8648 24.1514 26.4585 26.5371Z" fill="white"/>
</svg>
