<svg width="25" height="25" viewBox="0 0 25 25" fill="none" xmlns="http://www.w3.org/2000/svg">
<path d="M21.3749 15.8438L19.4999 13.9584V9.31252C19.5249 7.58734 18.9248 5.91139 17.8105 4.59412C16.6962 3.27686 15.1429 2.40725 13.4374 2.14586C12.4477 2.01551 11.4415 2.09775 10.486 2.38708C9.5305 2.67641 8.64772 3.16619 7.89652 3.82373C7.14533 4.48127 6.543 5.29146 6.12973 6.20023C5.71646 7.10899 5.50176 8.09545 5.49993 9.09377V13.9584L3.62493 15.8438C3.38942 16.0832 3.22971 16.3868 3.16577 16.7165C3.10183 17.0462 3.13649 17.3874 3.26543 17.6976C3.39437 18.0077 3.61186 18.2729 3.89072 18.4601C4.16957 18.6473 4.49742 18.7481 4.83327 18.75H8.33327V19.1042C8.38192 20.1617 8.8478 21.1568 9.62882 21.8714C10.4098 22.586 11.4423 22.9619 12.4999 22.9167C13.5576 22.9619 14.59 22.586 15.3711 21.8714C16.1521 21.1568 16.6179 20.1617 16.6666 19.1042V18.75H20.1666C20.5025 18.7481 20.8303 18.6473 21.1092 18.4601C21.388 18.2729 21.6055 18.0077 21.7344 17.6976C21.8634 17.3874 21.898 17.0462 21.8341 16.7165C21.7702 16.3868 21.6104 16.0832 21.3749 15.8438ZM14.5833 19.1042C14.5255 19.6052 14.2766 20.0647 13.8886 20.3868C13.5005 20.7089 13.003 20.8689 12.4999 20.8334C11.9968 20.8689 11.4994 20.7089 11.1113 20.3868C10.7232 20.0647 10.4744 19.6052 10.4166 19.1042V18.75H14.5833V19.1042ZM5.73952 16.6667L6.96868 15.4375C7.16365 15.2437 7.31833 15.0132 7.42381 14.7594C7.52929 14.5055 7.58349 14.2333 7.58327 13.9584V9.09377C7.58384 8.39107 7.73471 7.69661 8.02576 7.05701C8.31681 6.41741 8.74131 5.84747 9.27077 5.38544C9.79308 4.91219 10.412 4.5581 11.0847 4.34766C11.7573 4.13722 12.4677 4.07548 13.1666 4.16669C14.3713 4.36229 15.4647 4.98649 16.2457 5.92438C17.0266 6.86226 17.4424 8.05069 17.4166 9.27086V13.9584C17.415 14.2325 17.4676 14.5043 17.5712 14.7582C17.6749 15.012 17.8277 15.2429 18.0208 15.4375L19.2604 16.6667H5.73952Z" fill="white"/>
</svg>
