<svg width="25" height="25" viewBox="0 0 25 25" fill="none" xmlns="http://www.w3.org/2000/svg">
<path d="M19.7917 14.152V10.4166C19.7917 7.06554 17.5156 4.24263 14.4323 3.39367C14.1271 2.62492 13.3812 2.08325 12.5 2.08325C11.6187 2.08325 10.8729 2.62492 10.5677 3.39367C7.48438 4.24367 5.20833 7.06554 5.20833 10.4166V14.152L3.43021 15.9301C3.33329 16.0267 3.25643 16.1415 3.20405 16.2679C3.15167 16.3943 3.1248 16.5298 3.125 16.6666V18.7499C3.125 19.0262 3.23475 19.2911 3.4301 19.4865C3.62545 19.6818 3.8904 19.7916 4.16667 19.7916H20.8333C21.1096 19.7916 21.3746 19.6818 21.5699 19.4865C21.7653 19.2911 21.875 19.0262 21.875 18.7499V16.6666C21.8752 16.5298 21.8483 16.3943 21.796 16.2679C21.7436 16.1415 21.6667 16.0267 21.5698 15.9301L19.7917 14.152ZM19.7917 17.7083H5.20833V17.0978L6.98646 15.3197C7.08338 15.2231 7.16024 15.1084 7.21262 14.982C7.265 14.8556 7.29187 14.7201 7.29167 14.5833V10.4166C7.29167 7.54471 9.62813 5.20825 12.5 5.20825C15.3719 5.20825 17.7083 7.54471 17.7083 10.4166V14.5833C17.7083 14.8603 17.8177 15.1249 18.0135 15.3197L19.7917 17.0978V17.7083ZM12.5 22.9166C13.1451 22.9174 13.7744 22.7172 14.3005 22.3438C14.8266 21.9705 15.2233 21.4425 15.4354 20.8333H9.56458C9.77673 21.4425 10.1734 21.9705 10.6995 22.3438C11.2256 22.7172 11.8549 22.9174 12.5 22.9166Z" fill="#9099A8"/>
</svg>
