<svg width="35" height="29" viewBox="0 0 35 29" fill="none" xmlns="http://www.w3.org/2000/svg">
<path d="M24.7916 27.625V24.7083C24.7916 23.1612 24.1771 21.6775 23.0831 20.5835C21.9891 19.4896 20.5054 18.875 18.9583 18.875H7.29165C5.74455 18.875 4.26082 19.4896 3.16686 20.5835C2.07289 21.6775 1.45831 23.1612 1.45831 24.7083V27.625" stroke="white" stroke-width="2" stroke-linecap="round" stroke-linejoin="round"/>
<path d="M13.125 13.0417C16.3466 13.0417 18.9583 10.43 18.9583 7.20833C18.9583 3.98667 16.3466 1.375 13.125 1.375C9.9033 1.375 7.29163 3.98667 7.29163 7.20833C7.29163 10.43 9.9033 13.0417 13.125 13.0417Z" stroke="white" stroke-width="2" stroke-linecap="round" stroke-linejoin="round"/>
<path d="M33.5416 27.625V24.7083C33.5407 23.4159 33.1105 22.1603 32.3186 21.1388C31.5268 20.1173 30.4181 19.3877 29.1666 19.0646" stroke="white" stroke-width="2" stroke-linecap="round" stroke-linejoin="round"/>
<path d="M23.3333 1.56459C24.5881 1.88586 25.7002 2.61561 26.4945 3.63879C27.2887 4.66197 27.7197 5.92038 27.7197 7.21563C27.7197 8.51088 27.2887 9.76928 26.4945 10.7925C25.7002 11.8156 24.5881 12.5454 23.3333 12.8667" stroke="white" stroke-width="2" stroke-linecap="round" stroke-linejoin="round"/>
</svg>
