<svg width="35" height="35" viewBox="0 0 35 35" fill="none" xmlns="http://www.w3.org/2000/svg">
<path d="M17.5001 2.91663C9.45883 2.91663 2.91675 9.45871 2.91675 17.5C2.91675 25.5412 9.45883 32.0833 17.5001 32.0833C19.638 32.0833 21.8182 31.5422 23.978 30.4733L22.6874 27.8585C20.9315 28.7262 19.1859 29.1666 17.5001 29.1666C11.0674 29.1666 5.83341 23.9327 5.83341 17.5C5.83341 11.0673 11.0674 5.83329 17.5001 5.83329C23.9328 5.83329 29.1667 11.0673 29.1667 17.5V18.9583C29.1667 19.9675 28.7103 21.875 26.9792 21.875C24.9434 21.875 24.8005 19.2222 24.7917 18.9583V11.6666H21.8751V11.7031C20.6199 10.739 19.0828 10.2139 17.5001 10.2083C13.4795 10.2083 10.2084 13.4793 10.2084 17.5C10.2084 21.5206 13.4795 24.7916 17.5001 24.7916C19.6147 24.7916 21.5076 23.8714 22.8405 22.4277C23.6047 23.7256 24.8938 24.7916 26.9792 24.7916C30.294 24.7916 32.0834 21.786 32.0834 18.9583V17.5C32.0834 9.45871 25.5413 2.91663 17.5001 2.91663ZM17.5001 21.875C15.088 21.875 13.1251 19.912 13.1251 17.5C13.1251 15.0879 15.088 13.125 17.5001 13.125C19.9122 13.125 21.8751 15.0879 21.8751 17.5C21.8751 19.912 19.9122 21.875 17.5001 21.875Z" fill="white"/>
</svg>
