<svg width="30" height="30" viewBox="0 0 30 30" fill="none" xmlns="http://www.w3.org/2000/svg">
<path d="M16.2499 2.50002C13.2941 2.21616 10.3338 2.9938 7.89911 4.69367C5.46444 6.39354 3.71441 8.90461 2.96242 11.7772C2.21044 14.6498 2.50562 17.6962 3.7951 20.371C5.08458 23.0458 7.28414 25.1742 9.99987 26.375C11.5727 27.0862 13.274 27.469 14.9999 27.5C17.7474 27.5002 20.4184 26.5953 22.5999 24.925C22.8632 24.7242 23.036 24.4272 23.0806 24.0991C23.1251 23.771 23.0376 23.4387 22.8374 23.175C22.7379 23.0429 22.6131 22.9318 22.4704 22.8482C22.3276 22.7646 22.1697 22.7102 22.0057 22.6881C21.8418 22.666 21.6751 22.6767 21.5153 22.7195C21.3555 22.7623 21.2058 22.8364 21.0749 22.9375C19.7785 23.9168 18.263 24.5654 16.6595 24.8273C15.0561 25.0892 13.413 24.9565 11.8724 24.4406C10.3318 23.9247 8.94003 23.0413 7.81761 21.8666C6.69519 20.692 5.87587 19.2616 5.43054 17.6991C4.98521 16.1366 4.92728 14.4892 5.26177 12.8993C5.59625 11.3094 6.31308 9.82498 7.35023 8.57441C8.38738 7.32383 9.71361 6.34479 11.2142 5.72199C12.7148 5.09919 14.3445 4.85138 15.9624 5.00002C18.4733 5.29063 20.7872 6.50207 22.4565 8.40002C24.1259 10.298 25.0321 12.7476 24.9999 15.275V16.125C24.9984 16.4122 24.9391 16.6961 24.8255 16.9599C24.712 17.2236 24.5464 17.4617 24.3387 17.6601C24.131 17.8584 23.8855 18.0129 23.6168 18.1142C23.3482 18.2156 23.0618 18.2618 22.7749 18.25C22.2026 18.1872 21.6755 17.9098 21.2997 17.4737C20.9239 17.0376 20.7275 16.4752 20.7499 15.9V10.5C20.7499 10.1685 20.6182 9.85055 20.3838 9.61613C20.1493 9.38171 19.8314 9.25002 19.4999 9.25002C19.1947 9.24743 18.8991 9.35659 18.6688 9.55692C18.4385 9.75725 18.2895 10.0349 18.2499 10.3375C17.0866 9.24199 15.5478 8.63365 13.9499 8.63752C12.8638 8.64566 11.798 8.93166 10.8538 9.4683C9.90955 10.0049 9.11842 10.7743 8.5557 11.7032C7.99299 12.6322 7.67742 13.6896 7.63904 14.775C7.60066 15.8604 7.84076 16.9375 8.33647 17.9039C8.83218 18.8702 9.56699 19.6935 10.4709 20.2955C11.3749 20.8975 12.4179 21.2581 13.5006 21.3429C14.5834 21.4277 15.6698 21.234 16.6565 20.7801C17.6432 20.3262 18.4972 19.6274 19.1374 18.75C19.5002 19.3113 19.9835 19.7847 20.5522 20.1359C21.1208 20.487 21.7605 20.7071 22.4249 20.7801C23.0892 20.8532 23.7615 20.7773 24.3929 20.558C25.0242 20.3387 25.5988 19.9816 26.0749 19.5125C26.5331 19.0766 26.8962 18.5506 27.1414 17.9677C27.3866 17.3847 27.5087 16.7574 27.4999 16.125V15.275C27.5278 12.1337 26.3951 9.09271 24.319 6.73515C22.2429 4.37759 19.3695 2.86947 16.2499 2.50002ZM13.9749 18.8625C13.2109 18.8625 12.4642 18.636 11.829 18.2116C11.1938 17.7871 10.6987 17.1839 10.4064 16.4781C10.114 15.7724 10.0376 14.9957 10.1866 14.2465C10.3356 13.4972 10.7035 12.809 11.2437 12.2688C11.7838 11.7286 12.4721 11.3608 13.2213 11.2117C13.9706 11.0627 14.7472 11.1392 15.453 11.4315C16.1588 11.7239 16.762 12.2189 17.1864 12.8541C17.6108 13.4893 17.8374 14.2361 17.8374 15C17.8341 16.0234 17.4261 17.0039 16.7024 17.7276C15.9788 18.4512 14.9983 18.8592 13.9749 18.8625Z" fill="#23272A"/>
</svg>
