<svg width="60" height="60" viewBox="0 0 60 60" fill="none" xmlns="http://www.w3.org/2000/svg">
<g clip-path="url(#clip0)">
<path d="M50.7932 10.9249C46.9033 9.13954 42.7982 7.86641 38.5807 7.13744C38.5422 7.12995 38.5024 7.13487 38.4669 7.1515C38.4314 7.16812 38.4021 7.19559 38.3832 7.22994C37.8582 8.16744 37.2732 9.38995 36.8632 10.3549C32.3168 9.6644 27.6921 9.6644 23.1457 10.3549C22.6894 9.2857 22.1745 8.24244 21.6032 7.22994C21.5835 7.19636 21.5541 7.16954 21.5188 7.15303C21.4836 7.13651 21.4441 7.13108 21.4057 7.13744C17.1878 7.86489 13.0825 9.13808 9.19321 10.9249C9.16028 10.9388 9.13237 10.9623 9.11321 10.9924C1.33321 22.6149 -0.799287 33.9499 0.248213 45.1424C0.250758 45.1702 0.258943 45.1972 0.272269 45.2217C0.285595 45.2462 0.303781 45.2677 0.325713 45.2849C4.8547 48.6405 9.92099 51.2019 15.3082 52.8599C15.3462 52.8709 15.3866 52.8701 15.4241 52.8576C15.4616 52.8451 15.4944 52.8215 15.5182 52.7899C16.6732 51.2149 17.7032 49.5524 18.5832 47.8049C18.5955 47.7811 18.6026 47.7549 18.604 47.7281C18.6055 47.7013 18.6012 47.6744 18.5915 47.6494C18.5818 47.6244 18.5669 47.6017 18.5478 47.5828C18.5287 47.5639 18.5059 47.5493 18.4807 47.5399C16.8643 46.9214 15.2994 46.1757 13.8007 45.3099C13.7732 45.2941 13.7501 45.2716 13.7334 45.2446C13.7167 45.2177 13.7069 45.187 13.7049 45.1553C13.703 45.1236 13.7088 45.092 13.7221 45.0631C13.7353 45.0343 13.7554 45.0091 13.7807 44.9899C14.0963 44.7538 14.4064 44.5104 14.7107 44.2599C14.7373 44.2384 14.7694 44.2246 14.8034 44.2202C14.8374 44.2158 14.872 44.2209 14.9032 44.2349C24.7232 48.7174 35.3532 48.7174 45.0582 44.2349C45.0898 44.2204 45.1248 44.215 45.1593 44.2194C45.1938 44.2238 45.2263 44.2379 45.2532 44.2599C45.5532 44.5049 45.8682 44.7549 46.1857 44.9899C46.2107 45.0088 46.2307 45.0335 46.244 45.0619C46.2573 45.0902 46.2635 45.1214 46.262 45.1526C46.2605 45.1839 46.2514 45.2144 46.2355 45.2414C46.2196 45.2683 46.1974 45.291 46.1707 45.3074C44.6755 46.1813 43.1091 46.9273 41.4882 47.5374C41.463 47.5471 41.4401 47.562 41.421 47.5811C41.4018 47.6002 41.387 47.6231 41.3773 47.6483C41.3676 47.6736 41.3634 47.7006 41.3648 47.7275C41.3663 47.7545 41.3734 47.7809 41.3857 47.8049C42.2857 49.5499 43.3157 51.2099 44.4482 52.7874C44.4715 52.8196 44.5043 52.8436 44.542 52.8562C44.5796 52.8687 44.6203 52.8692 44.6582 52.8574C50.0544 51.2045 55.129 48.6428 59.6632 45.2824C59.6853 45.2668 59.7038 45.2467 59.7176 45.2235C59.7314 45.2002 59.7401 45.1743 59.7432 45.1474C60.9932 32.2049 57.6482 20.9624 50.8707 10.9974C50.8549 10.9638 50.8273 10.9372 50.7932 10.9224V10.9249ZM20.0507 38.3249C17.0932 38.3249 14.6582 35.6124 14.6582 32.2774C14.6582 28.9449 17.0482 26.2299 20.0507 26.2299C23.0757 26.2299 25.4907 28.9699 25.4432 32.2799C25.4432 35.6124 23.0532 38.3249 20.0507 38.3249ZM39.9882 38.3249C37.0307 38.3249 34.5957 35.6124 34.5957 32.2774C34.5957 28.9449 36.9832 26.2299 39.9882 26.2299C43.0132 26.2299 45.4282 28.9699 45.3807 32.2799C45.3807 35.6124 43.0157 38.3249 39.9882 38.3249Z" fill="#23272A"/>
</g>
<defs>
<clipPath id="clip0">
<rect width="60" height="60" fill="white"/>
</clipPath>
</defs>
</svg>
