<svg width="36" height="26" viewBox="0 0 36 26" fill="none" xmlns="http://www.w3.org/2000/svg">
<path d="M33.4283 11.27C34.2183 12.3033 34.2183 13.6983 33.4283 14.73C30.94 17.9783 24.97 24.6667 18 24.6667C11.03 24.6667 5.05998 17.9783 2.57164 14.73C2.18728 14.2352 1.97864 13.6265 1.97864 13C1.97864 12.3735 2.18728 11.7648 2.57164 11.27C5.05998 8.02167 11.03 1.33334 18 1.33334C24.97 1.33334 30.94 8.02167 33.4283 11.27V11.27Z" stroke="white" stroke-width="2" stroke-linecap="round" stroke-linejoin="round"/>
<path d="M18 18C20.7614 18 23 15.7614 23 13C23 10.2386 20.7614 8 18 8C15.2386 8 13 10.2386 13 13C13 15.7614 15.2386 18 18 18Z" stroke="white" stroke-width="2" stroke-linecap="round" stroke-linejoin="round"/>
</svg>
