<svg width="70" height="70" viewBox="0 0 70 70" fill="none" xmlns="http://www.w3.org/2000/svg">
<path d="M43.75 13.125C42.6183 12.8333 39.865 11.6667 35 11.6667C30.135 11.6667 27.3817 12.8333 26.25 13.125C24.7188 11.8854 20.5975 8.75 16.0417 8.75C15.0383 11.6667 15.2075 15.225 16.0417 17.5C13.8542 20.4167 13.125 23.3333 13.125 27.7083C13.125 34.09 14.5338 38.1558 17.5 40.8333C20.4662 43.5108 23.6571 44.8438 27.7083 45.2083C25.8125 46.7775 26.25 50.6742 26.25 52.5V64.1667H43.75V52.5C43.75 50.6742 44.1875 46.7775 42.2917 45.2083C46.3429 44.8438 49.5338 43.5108 52.5 40.8333C55.4663 38.1558 56.875 34.0871 56.875 27.7083C56.875 23.3333 56.1458 20.4167 53.9583 17.5C54.7925 15.225 54.9617 11.6667 53.9583 8.75C49.3996 8.75 45.2812 11.8854 43.75 13.125Z" fill="#23272A"/>
<path d="M35 11.6667C39.865 11.6667 42.6183 12.8333 43.75 13.125C45.2813 11.8854 49.4025 8.75 53.9583 8.75C54.9617 11.6667 54.7925 15.225 53.9583 17.5C56.1458 20.4167 56.875 23.3333 56.875 27.7083C56.875 34.09 55.4663 38.1558 52.5 40.8333C49.5338 43.5108 46.3429 44.8438 42.2917 45.2083C44.1875 46.7775 43.75 50.6742 43.75 52.5V61.25" stroke="#23272A" stroke-width="2" stroke-linecap="round" stroke-linejoin="round"/>
<path d="M35 11.6667C30.135 11.6667 27.3817 12.8333 26.25 13.125C24.7188 11.8854 20.5975 8.75 16.0417 8.75C15.0383 11.6667 15.2075 15.225 16.0417 17.5C13.8542 20.4167 13.125 23.3333 13.125 27.7083C13.125 34.09 14.5338 38.1558 17.5 40.8333C20.4663 43.5108 23.6571 44.8438 27.7083 45.2083C25.8125 46.7775 26.25 50.6742 26.25 52.5V61.25" stroke="#23272A" stroke-width="2" stroke-linecap="round" stroke-linejoin="round"/>
<path d="M26.25 55.4167C22.1492 55.4167 17.955 53.7746 15.4933 51.9517C13.0375 50.1317 12.3083 47.1246 8.75 45.2084" stroke="#23272A" stroke-width="2" stroke-linecap="round"/>
</svg>
