<svg width="40" height="40" viewBox="0 0 40 40" fill="none" xmlns="http://www.w3.org/2000/svg">
<path d="M35.76 16.9234C35.965 18.0217 36.0766 19.1701 36.0766 20.3684C36.0766 29.7417 29.8033 36.4067 20.3283 36.4067C18.1736 36.4074 16.0398 35.9835 14.049 35.1592C12.0581 34.3349 10.2492 33.1264 8.72557 31.6028C7.20194 30.0792 5.99346 28.2702 5.16918 26.2794C4.3449 24.2885 3.92097 22.1548 3.92163 20.0001C3.92097 17.8453 4.3449 15.7116 5.16918 13.7207C5.99346 11.7299 7.20194 9.92095 8.72557 8.39732C10.2492 6.87369 12.0581 5.66521 14.049 4.84093C16.0398 4.01665 18.1736 3.59273 20.3283 3.59338C24.7583 3.59338 28.46 5.22339 31.3 7.87005L26.675 12.4951V12.4834C24.9533 10.8434 22.7683 10.0017 20.3283 10.0017C14.915 10.0017 10.515 14.5751 10.515 19.9901C10.515 25.4034 14.915 29.9867 20.3283 29.9867C25.24 29.9867 28.5833 27.1784 29.27 23.3217H20.3283V16.9234H35.7616H35.76Z" fill="#261F1F"/>
</svg>
