<svg width="27" height="30" viewBox="0 0 27 30" fill="none" xmlns="http://www.w3.org/2000/svg">
<path d="M11.3854 1.69396C11.9772 1.19524 12.7261 0.921722 13.5 0.921722C14.2739 0.921722 15.0228 1.19524 15.6146 1.69396L25.4583 9.99917C26.1992 10.6219 26.625 11.5392 26.625 12.5075V26.8021C26.625 27.4789 26.3561 28.1281 25.8775 28.6067C25.3989 29.0853 24.7498 29.3542 24.0729 29.3542H19.6979C19.0211 29.3542 18.3719 29.0853 17.8933 28.6067C17.4147 28.1281 17.1458 27.4789 17.1458 26.8021V19.5104C17.1458 19.2203 17.0306 18.9421 16.8255 18.737C16.6204 18.5319 16.3422 18.4167 16.0521 18.4167H10.9479C10.6578 18.4167 10.3796 18.5319 10.1745 18.737C9.9694 18.9421 9.85417 19.2203 9.85417 19.5104V26.8021C9.85417 27.4789 9.58529 28.1281 9.10668 28.6067C8.62807 29.0853 7.97894 29.3542 7.30208 29.3542H2.92708C2.59194 29.3542 2.26008 29.2882 1.95044 29.1599C1.64081 29.0316 1.35947 28.8437 1.12249 28.6067C0.885505 28.3697 0.69752 28.0884 0.569266 27.7787C0.441012 27.4691 0.375 27.1372 0.375 26.8021V12.506C0.375 11.5392 0.800833 10.6219 1.54167 9.99771L11.3854 1.69396Z" fill="white"/>
</svg>
