<svg width="31" height="31" viewBox="0 0 31 31" fill="none" xmlns="http://www.w3.org/2000/svg">
<path d="M10.0313 2.37499C8.09322 2.3715 6.22596 3.10312 4.80615 4.42228C3.38635 5.74143 2.51964 7.54995 2.38087 9.48302C2.2421 11.4161 2.84159 13.3299 4.05842 14.8383C5.27524 16.3467 7.01884 17.3376 8.93751 17.6109V19.8159C7.09555 19.6096 5.34928 18.8874 3.89961 17.7325C2.44995 16.5775 1.35581 15.0368 0.743079 13.2875C0.130353 11.5383 0.0239418 9.65154 0.43609 7.84447C0.848238 6.0374 1.7622 4.3834 3.07281 3.07279C4.38341 1.76218 6.03741 0.848223 7.84449 0.436075C9.65156 0.0239266 11.5383 0.130338 13.2876 0.743064C15.0368 1.35579 16.5776 2.44993 17.7325 3.8996C18.8874 5.34926 19.6096 7.09554 19.8159 8.93749H17.611C17.3479 7.11498 16.4368 5.44832 15.0447 4.24302C13.6526 3.03772 11.8727 2.37452 10.0313 2.37499Z" fill="white"/>
<path d="M16.5938 11.125C15.1433 11.125 13.7523 11.7012 12.7268 12.7268C11.7012 13.7523 11.125 15.1433 11.125 16.5938V25.3438C11.125 26.7942 11.7012 28.1852 12.7268 29.2107C13.7523 30.2363 15.1433 30.8125 16.5938 30.8125H25.3438C26.7942 30.8125 28.1852 30.2363 29.2107 29.2107C30.2363 28.1852 30.8125 26.7942 30.8125 25.3438V16.5938C30.8125 15.1433 30.2363 13.7523 29.2107 12.7268C28.1852 11.7012 26.7942 11.125 25.3438 11.125H16.5938ZM13.3125 16.5938C13.3125 15.7235 13.6582 14.8889 14.2736 14.2736C14.8889 13.6582 15.7235 13.3125 16.5938 13.3125H25.3438C26.214 13.3125 27.0486 13.6582 27.6639 14.2736C28.2793 14.8889 28.625 15.7235 28.625 16.5938V25.3438C28.625 26.214 28.2793 27.0486 27.6639 27.6639C27.0486 28.2793 26.214 28.625 25.3438 28.625H16.5938C15.7235 28.625 14.8889 28.2793 14.2736 27.6639C13.6582 27.0486 13.3125 26.214 13.3125 25.3438V16.5938Z" fill="white"/>
</svg>
