<svg width="27" height="27" viewBox="0 0 27 27" fill="none" xmlns="http://www.w3.org/2000/svg">
<path fill-rule="evenodd" clip-rule="evenodd" d="M4.7835 15.75H4.5C3.90326 15.75 3.33097 15.5129 2.90901 15.091C2.48705 14.669 2.25 14.0967 2.25 13.5C2.25 12.9033 2.48705 12.331 2.90901 11.909C3.33097 11.4871 3.90326 11.25 4.5 11.25H4.7835C4.99612 10.4242 5.3235 9.64462 5.7465 8.928L5.544 8.72662C5.12211 8.30443 4.88521 7.73194 4.88542 7.13508C4.88563 6.53822 5.12293 5.96589 5.54513 5.544C5.96732 5.12211 6.53981 4.88521 7.13667 4.88542C7.73353 4.88563 8.30586 5.12293 8.72775 5.54513L8.928 5.7465C9.65282 5.31781 10.4345 4.99361 11.25 4.7835V4.5C11.25 3.90326 11.4871 3.33097 11.909 2.90901C12.331 2.48705 12.9033 2.25 13.5 2.25C14.0967 2.25 14.669 2.48705 15.091 2.90901C15.5129 3.33097 15.75 3.90326 15.75 4.5V4.7835C16.5758 4.99612 17.3554 5.3235 18.072 5.7465L18.2734 5.544C18.6956 5.12211 19.2681 4.88521 19.8649 4.88542C20.1605 4.88552 20.4531 4.94384 20.7261 5.05703C20.9991 5.17022 21.2471 5.33608 21.456 5.54513C21.6649 5.75417 21.8306 6.00232 21.9436 6.2754C22.0566 6.54848 22.1147 6.84114 22.1146 7.13667C22.1145 7.4322 22.0562 7.72482 21.943 7.99782C21.8298 8.27082 21.6639 8.51885 21.4549 8.72775L21.2535 8.928C21.6776 9.64462 22.0039 10.4242 22.2165 11.25H22.5C23.0967 11.25 23.669 11.4871 24.091 11.909C24.5129 12.331 24.75 12.9033 24.75 13.5C24.75 14.0967 24.5129 14.669 24.091 15.091C23.669 15.5129 23.0967 15.75 22.5 15.75H22.2165C22.0064 16.5655 21.6822 17.3472 21.2535 18.072L21.456 18.2734C21.6649 18.4824 21.8306 18.7306 21.9436 19.0036C22.0566 19.2767 22.1147 19.5694 22.1146 19.8649C22.1145 20.1605 22.0562 20.4531 21.943 20.7261C21.8298 20.9991 21.6639 21.2471 21.4549 21.456C21.2458 21.6649 20.9977 21.8306 20.7246 21.9436C20.4515 22.0566 20.1589 22.1147 19.8633 22.1146C19.5678 22.1145 19.2752 22.0562 19.0022 21.943C18.7292 21.8298 18.4812 21.6639 18.2723 21.4549L18.072 21.2535C17.3472 21.6822 16.5655 22.0064 15.75 22.2165V22.5C15.75 23.0967 15.5129 23.669 15.091 24.091C14.669 24.5129 14.0967 24.75 13.5 24.75C12.9033 24.75 12.331 24.5129 11.909 24.091C11.4871 23.669 11.25 23.0967 11.25 22.5V22.2165C10.4345 22.0064 9.65282 21.6822 8.928 21.2535L8.72662 21.456C8.51758 21.6649 8.26943 21.8306 7.99635 21.9436C7.72327 22.0566 7.43061 22.1147 7.13508 22.1146C6.83955 22.1145 6.54693 22.0562 6.27393 21.943C6.00093 21.8298 5.7529 21.6639 5.544 21.4549C5.3351 21.2458 5.16942 20.9977 5.05642 20.7246C4.94342 20.4515 4.88531 20.1589 4.88542 19.8633C4.88552 19.5678 4.94384 19.2752 5.05703 19.0022C5.17022 18.7292 5.33608 18.4812 5.54513 18.2723L5.7465 18.072C5.31781 17.3472 4.99361 16.5655 4.7835 15.75ZM10.125 11.25L7.875 13.5L12.375 18L19.125 11.25L16.875 9L12.375 13.5L10.125 11.25Z" fill="white"/>
</svg>
