<svg width="500" height="372" viewBox="0 0 500 372" fill="none" xmlns="http://www.w3.org/2000/svg">
<path d="M460.123 242.423C435.198 339.189 359.583 336.312 235.561 336.312C111.54 336.312 11.0005 342.347 11.0005 242.423C11.0005 142.5 118.495 102.443 235.562 61.4953C411.977 -0.211777 497.069 98.9863 460.123 242.423Z" fill="#EFEDEF"/>
<path d="M305.092 369.914L277.146 275.703L284.932 273.393L313.639 370.17L305.092 369.914Z" fill="#C38F86"/>
<path d="M247.372 369.914L238.825 370.17L267.531 273.393L275.317 275.703L247.372 369.914Z" fill="#C38F86"/>
<path d="M280.235 267.776H272.114V370.189H280.235V267.776Z" fill="#C38F86"/>
<path d="M311.049 263.035H234.843C231.103 263.035 228.072 266.067 228.072 269.807C228.072 273.546 231.103 276.578 234.843 276.578H311.049C314.788 276.578 317.82 273.546 317.82 269.807C317.82 266.067 314.788 263.035 311.049 263.035Z" fill="#935B50"/>
<path d="M186.015 221.624V221.994C186.015 222.937 185.64 223.841 184.973 224.508C184.306 225.175 183.402 225.549 182.459 225.55H171.777C170.834 225.549 169.93 225.175 169.263 224.508C168.596 223.841 168.221 222.937 168.221 221.994V207.599C168.221 206.656 168.596 205.752 169.263 205.085C169.93 204.418 170.834 204.043 171.777 204.043H182.459C183.402 204.043 184.306 204.418 184.973 205.085C185.64 205.752 186.015 206.656 186.015 207.599V221.624Z" fill="#FFBA55"/>
<path d="M191.904 207.713H186.015V209.846H190.837V219.49H186.015V221.624H191.904C192.044 221.624 192.183 221.596 192.312 221.543C192.442 221.489 192.559 221.411 192.659 221.312C192.758 221.213 192.836 221.095 192.89 220.965C192.943 220.836 192.971 220.697 192.971 220.557V208.779C192.971 208.639 192.943 208.5 192.89 208.371C192.836 208.241 192.758 208.124 192.658 208.025C192.559 207.926 192.442 207.847 192.312 207.793C192.183 207.74 192.044 207.712 191.904 207.713Z" fill="#025182"/>
<path d="M180.827 211.406H177.829C177.437 211.406 177.118 211.724 177.118 212.117V215.114C177.118 215.507 177.437 215.825 177.829 215.825H180.827C181.219 215.825 181.538 215.507 181.538 215.114V212.117C181.538 211.724 181.219 211.406 180.827 211.406Z" fill="#935B50"/>
<path d="M179.829 204.043H178.827V211.405H179.829V204.043Z" fill="#E5CAF3"/>
<path d="M206.446 342.756C206.446 342.756 207.179 366.764 205.266 367.196C203.352 367.628 156.053 362.733 164.895 360.106L179.431 356.579C181.937 355.999 184.223 354.708 186.013 352.861C187.803 351.014 189.022 348.689 189.524 346.165L190.91 338.778L206.446 342.756Z" fill="#F9977A"/>
<path d="M264.622 335.778C264.622 335.778 276.461 353.836 275.2 355.003C273.938 356.17 235.431 373.087 240.965 367.213L250.435 358.163C252.082 356.613 253.231 354.608 253.736 352.403C254.241 350.199 254.079 347.894 253.27 345.782L250.861 339.521L264.622 335.778Z" fill="#F9977A"/>
<path d="M247.034 247.043C242.049 250.889 244.384 255.486 246.46 261.309L269.162 338.818L252.784 347.563L213.812 270.945C213.812 270.945 201.025 255.371 217.319 244.64L247.034 247.043Z" fill="#6C7FD8"/>
<path d="M255.343 211.318L248.561 206.281C247.588 205.561 246.438 205.117 245.233 204.997C243.113 204.782 239.703 204.335 238.211 203.58C236.763 202.847 236.032 203.484 236.772 204.89C237.207 205.718 238.74 206.809 242.753 208.099L239.261 208.961C238.744 209.088 238.208 209.111 237.682 209.028C237.157 208.944 236.654 208.756 236.202 208.475L232.358 206.063C232.118 205.913 231.834 205.852 231.554 205.89C231.274 205.928 231.017 206.063 230.826 206.272L230.826 206.272C230.719 206.391 230.638 206.532 230.59 206.685C230.542 206.838 230.528 206.999 230.549 207.158C230.57 207.318 230.625 207.47 230.71 207.606C230.795 207.742 230.909 207.857 231.044 207.945L237.984 212.606C237.984 212.606 237.316 218.125 242.657 219.321C247.999 220.517 255.343 218.401 255.343 218.401L255.343 211.318Z" fill="#F9977A"/>
<path d="M228.503 221.857L251.575 220.445L227.828 187.997L205.274 189.477L228.503 221.857Z" fill="#6C7FD8"/>
<path d="M257.458 218.761L245.454 208.602C245.454 208.602 238.99 206.687 235.269 205.203C234.234 204.806 233.102 204.736 232.027 205.004C230.952 205.272 229.985 205.864 229.257 206.7C227.865 208.308 227.915 209.931 231.787 212.487C237.578 216.309 240.53 217.718 242.275 218.224C242.879 218.399 246.256 219.687 246.256 219.687L257.458 218.761Z" fill="#F9977A"/>
<path d="M241.974 210.305C241.096 210.087 240.231 209.817 239.384 209.498C238.532 209.194 237.701 208.837 236.881 208.455C236.059 208.072 235.261 207.642 234.489 207.166C233.708 206.701 232.98 206.153 232.317 205.531C233.885 206.433 235.491 207.197 237.114 207.961C238.731 208.735 240.365 209.471 241.974 210.305Z" fill="#DD765E"/>
<path d="M240.435 212.438C239.462 212.249 238.503 211.996 237.563 211.681C236.62 211.374 235.695 211.014 234.792 210.601C233.883 210.193 233.011 209.706 232.186 209.146C231.334 208.616 230.605 207.909 230.05 207.073C230.749 207.756 231.544 208.334 232.409 208.79C233.26 209.26 234.128 209.707 235.021 210.104C236.795 210.928 238.616 211.655 240.435 212.438Z" fill="#DD765E"/>
<path d="M238.51 214.09C237.691 213.953 236.884 213.753 236.095 213.494C235.304 213.243 234.527 212.946 233.77 212.606C232.238 211.948 230.826 211.038 229.594 209.914C230.326 210.309 231.042 210.703 231.775 211.066C232.515 211.417 233.246 211.778 233.995 212.108L238.51 214.09Z" fill="#DD765E"/>
<path d="M231.757 160.132L224.075 156.489C222.99 155.978 222.068 155.178 221.41 154.177C220.274 152.438 218.352 149.685 216.99 148.727C215.668 147.799 215.937 146.885 217.572 146.904C218.535 146.915 220.226 147.759 223.2 150.661L222.459 147.259C222.345 146.75 222.126 146.271 221.815 145.852C221.505 145.433 221.11 145.084 220.656 144.827L216.713 142.567C216.471 142.432 216.288 142.213 216.199 141.951C216.109 141.689 216.121 141.403 216.231 141.149L216.231 141.149C216.299 141.001 216.397 140.868 216.519 140.759C216.641 140.651 216.783 140.568 216.938 140.516C217.093 140.465 217.257 140.445 217.419 140.459C217.582 140.473 217.74 140.521 217.883 140.598L225.286 144.543C225.286 144.543 230.125 141.527 233.597 145.62C237.069 149.713 238.346 157.002 238.346 157.002L231.757 160.132Z" fill="#F9977A"/>
<path d="M228.089 146.493C227.565 146.259 227.067 145.972 226.602 145.636C226.139 145.302 225.699 144.937 225.285 144.543C225.841 144.71 226.363 144.972 226.828 145.318C227.3 145.651 227.724 146.046 228.089 146.493Z" fill="#DD765E"/>
<path d="M229.8 145.68C229.344 145.353 228.905 145.003 228.484 144.632C228.287 144.439 228.068 144.276 227.858 144.103C227.648 143.923 227.416 143.77 227.168 143.649C227.465 143.63 227.762 143.7 228.019 143.85C228.275 143.988 228.515 144.151 228.738 144.337C229.175 144.713 229.535 145.169 229.8 145.68Z" fill="#DD765E"/>
<path d="M231.891 145.61C231.688 145.216 231.58 144.831 231.378 144.501C231.214 144.145 230.942 143.851 230.6 143.66C230.831 143.623 231.066 143.674 231.261 143.802C231.451 143.937 231.608 144.113 231.722 144.317C231.93 144.714 231.99 145.173 231.891 145.61Z" fill="#DD765E"/>
<path d="M287.399 107.506C284.547 107.22 281.666 107.592 278.98 108.593C277.726 109.088 273.141 110.898 271.079 115.261C270.295 116.918 270.196 118.872 269.998 122.782C269.874 125.223 268.99 127.009 269.138 129.973C269.308 132.377 269.835 134.742 270.701 136.991C272.009 140.523 271.381 142.592 271.978 143.236C274.383 145.831 281.175 143.396 281.452 146.914C281.624 149.086 279.922 149.571 280.194 152.109C280.547 155.401 291.472 153.098 294.649 151.298C295.082 151.053 298.997 148.316 298.366 144.489C298.029 142.444 295.743 132.884 295.855 131.631C296.261 127.105 298.584 126.448 300.168 120.927C300.601 119.535 300.657 118.054 300.332 116.634C300.006 115.213 299.311 113.904 298.315 112.84C295.395 109.864 291.542 107.98 287.399 107.506Z" fill="#F9977A"/>
<path d="M271.222 127.686C271.744 127.656 272.139 127.124 272.103 126.497C272.067 125.87 271.614 125.386 271.092 125.416C270.569 125.446 270.174 125.979 270.21 126.606C270.246 127.232 270.699 127.716 271.222 127.686Z" fill="#0A0709"/>
<path d="M279.759 127.294C280.282 127.264 280.677 126.731 280.641 126.104C280.605 125.477 280.152 124.993 279.629 125.023C279.107 125.053 278.712 125.586 278.748 126.213C278.784 126.84 279.237 127.324 279.759 127.294Z" fill="#0A0709"/>
<path d="M269.131 124.616C269.009 124.616 268.891 124.578 268.791 124.508C268.692 124.438 268.617 124.338 268.577 124.224C268.536 124.109 268.533 123.984 268.566 123.867C268.599 123.75 268.668 123.647 268.763 123.57C269.775 122.825 270.984 122.394 272.239 122.332C273.495 122.27 274.74 122.58 275.82 123.223C275.956 123.299 276.056 123.426 276.097 123.576C276.139 123.726 276.12 123.886 276.043 124.022C275.967 124.158 275.84 124.257 275.69 124.299C275.54 124.341 275.38 124.322 275.244 124.246C274.366 123.727 273.356 123.474 272.336 123.516C271.317 123.559 270.331 123.896 269.499 124.486C269.395 124.57 269.265 124.616 269.131 124.616Z" fill="#1E1D22"/>
<path d="M277.981 124.209C277.859 124.209 277.74 124.171 277.641 124.101C277.542 124.031 277.467 123.932 277.426 123.817C277.386 123.702 277.382 123.578 277.415 123.461C277.448 123.344 277.517 123.24 277.611 123.164C278.623 122.419 279.832 121.988 281.087 121.926C282.342 121.864 283.588 122.174 284.668 122.815C284.804 122.892 284.903 123.019 284.945 123.169C284.987 123.319 284.967 123.479 284.891 123.615C284.815 123.75 284.688 123.85 284.538 123.892C284.388 123.934 284.228 123.915 284.092 123.839C283.215 123.314 282.204 123.058 281.183 123.101C280.162 123.144 279.176 123.484 278.346 124.081C278.242 124.164 278.113 124.209 277.981 124.209Z" fill="#1E1D22"/>
<path d="M276.385 124.508C276.68 125.465 276.64 126.493 276.272 127.424C275.953 128.363 275.498 129.249 274.922 130.055C274.624 130.464 274.203 130.764 274.283 131.161C274.382 131.593 274.644 131.969 275.015 132.211C275.843 132.689 276.819 132.844 277.754 132.646C277.284 132.822 276.781 132.896 276.28 132.864C275.779 132.832 275.29 132.694 274.846 132.46C274.613 132.328 274.41 132.147 274.252 131.93C274.094 131.714 273.984 131.466 273.929 131.203C273.91 131.059 273.92 130.913 273.96 130.774C274 130.634 274.067 130.504 274.159 130.392L274.612 129.816C275.18 129.045 275.644 128.203 275.994 127.312C276.394 126.435 276.529 125.461 276.385 124.508Z" fill="#DD765E"/>
<path d="M291.919 124.179C292.275 124.143 292.634 124.183 292.973 124.298C293.312 124.412 293.622 124.598 293.883 124.842C294.146 125.08 294.378 125.349 294.575 125.643C294.765 125.937 294.913 126.257 295.014 126.592C294.589 126.074 294.126 125.588 293.629 125.139C293.388 124.92 293.123 124.729 292.84 124.568C292.552 124.398 292.242 124.267 291.919 124.179Z" fill="#DD765E"/>
<path d="M292.923 128.879C292.518 128.236 292.351 127.472 292.451 126.719C292.501 126.343 292.611 125.977 292.775 125.635C292.938 125.298 293.161 124.994 293.435 124.738C293.3 125.086 293.148 125.406 293.055 125.747C292.944 126.077 292.872 126.419 292.839 126.766C292.755 127.47 292.783 128.183 292.923 128.879Z" fill="#DD765E"/>
<path d="M278.783 146.487C278.783 146.487 285.474 146.299 289.042 140.998C290.744 138.471 290.504 133.528 290.183 130.661C290.038 129.375 290.185 128.073 290.612 126.851C291.206 125.158 291.923 122.856 293.601 122.628C294.837 122.46 295.32 122.121 295.825 123.256C296.658 125.134 295.479 127.302 294.658 128.812C293.482 130.973 292.418 131.482 292.47 132.938C292.51 134.048 295.906 136.148 296.507 135.686C297.732 134.745 296.906 132.13 300.057 125.671C302.047 121.593 303.015 120.8 303.145 118.305C303.192 117.42 303.383 113.752 301 111.734C299.895 110.798 299.309 111.126 294.622 109.461C293.324 109.032 292.049 108.535 290.804 107.972C287.049 106.212 287.081 105.217 284.911 104.728C282.95 104.287 282.875 105.089 279.17 105.048C275.599 105.009 275.245 104.258 273.621 104.787C270.801 105.705 269.574 108.712 269.245 109.52C268.578 110.917 268.274 112.46 268.361 114.005C268.6 115.572 269.276 117.04 270.311 118.24C270.798 118.675 272.551 115.959 273.528 114.923C274.487 113.907 275.649 114.252 277.211 114.273C278.735 114.294 278.697 115.21 280.982 115.908C281.797 116.156 284.935 114.623 286.055 116.287C287.248 118.06 288.117 118.242 287.683 119.963C287.412 121.038 287.676 122.331 288.206 124.918C288.585 126.775 287.34 133.377 287.34 133.377C287.074 133.944 286.597 134.385 286.011 134.606C285.425 134.827 284.776 134.811 284.202 134.561C282.458 133.794 280.665 133.143 278.836 132.611C277.743 132.306 276.598 132.24 275.477 132.416C274.357 132.592 273.287 133.007 272.34 133.632C271.689 134.058 271.021 134.533 270.495 134.958C270.148 135.234 269.877 135.592 269.706 136.001C269.535 136.41 269.47 136.855 269.517 137.296C269.854 140.089 271.399 146.889 278.783 146.487ZM271.949 137.041C272.158 135.694 274.197 135.079 275.362 134.73C276.282 134.369 277.289 134.288 278.256 134.498C278.486 134.555 280.572 135.14 280.836 136.727C281.102 138.313 279.312 139.51 279.032 139.69C278.355 140.123 277.581 140.381 276.78 140.443C275.98 140.504 275.176 140.367 274.441 140.043C273.356 139.563 271.743 138.337 271.949 137.041Z" fill="#1E1D22"/>
<path d="M238.714 152.8C247.68 156.418 261.225 172.915 261.225 172.915L276.651 158.629L280.111 150.286L293.978 146.639C295.163 146.354 296.199 145.637 296.883 144.629C297.568 143.62 297.851 142.393 297.678 141.186L297.661 141.087L305.328 153.382C311.386 163.098 313.224 174.304 312.35 185.61L309.68 232.524C309.68 232.524 266.185 237.675 268.092 232.524L268.439 224.243L263.705 223.693L253.404 221.669L254.739 209.159L265.422 208.791L269.428 205.663L269.856 192.591L267.489 192.982C261.285 194.009 253.77 191.206 249.897 186.42L230.893 161.877C231.376 159.849 232.339 157.966 233.7 156.387C235.061 154.808 236.78 153.578 238.714 152.8Z" fill="#F73C4F"/>
<path d="M301.944 147.956C300.458 148.885 298.962 149.794 297.438 150.65C295.921 151.52 294.403 152.386 292.863 153.212C289.787 154.87 286.687 156.481 283.545 158.013L283.133 158.214L282.974 157.812L281.492 154.071C281.022 152.814 280.541 151.561 280.111 150.286C280.76 151.465 281.361 152.665 281.972 153.86L283.733 157.478L283.162 157.278C286.217 155.579 289.313 153.961 292.434 152.389C293.993 151.6 295.573 150.851 297.154 150.106C298.729 149.347 300.331 148.641 301.944 147.956Z" fill="#B02336"/>
<path d="M269.428 205.663C270.911 205.05 272.435 204.541 273.989 204.141C275.537 203.72 277.093 203.331 278.658 202.975C281.786 202.258 284.928 201.61 288.086 201.03L287.902 201.256L287.061 182.516C286.868 179.374 286.922 176.222 287.225 173.089C287.477 169.901 288.388 166.801 289.899 163.983C290.717 162.566 291.845 161.353 293.198 160.433C294.579 159.533 296.171 159.008 297.816 158.91C299.45 158.8 301.088 159.048 302.616 159.637C304.143 160.227 305.523 161.143 306.66 162.322C307.227 162.91 307.731 163.556 308.164 164.248C308.58 164.945 308.931 165.679 309.21 166.44C309.783 167.918 310.256 169.432 310.627 170.973C311.356 174.042 311.829 177.167 312.041 180.315C312.435 186.587 312.262 192.882 311.524 199.124C311.19 202.242 310.736 205.345 310.222 208.436C309.958 210.039 309.341 211.564 308.416 212.9C307.49 214.236 306.28 215.35 304.871 216.16C304.177 216.56 303.446 216.893 302.689 217.155L300.486 217.971C299.014 218.507 297.532 219.014 296.046 219.509C293.071 220.487 290.069 221.391 287.025 222.135C283.987 222.899 280.908 223.494 277.804 223.918C274.703 224.365 271.563 224.474 268.439 224.243C271.561 224.401 274.691 224.22 277.773 223.703C280.855 223.209 283.908 222.546 286.917 221.715C289.926 220.891 292.907 219.97 295.86 218.955C297.333 218.443 298.803 217.918 300.262 217.365L302.446 216.525C303.164 216.267 303.856 215.941 304.512 215.551C305.815 214.782 306.93 213.732 307.776 212.477C308.622 211.223 309.179 209.796 309.405 208.299C309.883 205.217 310.336 202.132 310.65 199.031C311.355 192.842 311.5 186.603 311.084 180.389C310.863 177.296 310.385 174.226 309.656 171.212C309.302 169.711 308.848 168.235 308.297 166.794C307.804 165.373 307.01 164.074 305.969 162.988C304.932 161.903 303.672 161.059 302.274 160.513C300.877 159.967 299.378 159.733 297.881 159.828C296.389 159.907 294.944 160.376 293.689 161.187C292.446 162.027 291.409 163.137 290.655 164.433C289.199 167.142 288.312 170.121 288.051 173.185C287.712 176.275 287.619 179.386 287.771 182.491L288.344 201.239L288.35 201.435L288.16 201.466C284.999 201.976 281.847 202.551 278.705 203.191C277.135 203.513 275.573 203.865 274.017 204.248C272.456 204.611 270.922 205.084 269.428 205.663Z" fill="#B02336"/>
<path d="M276.651 158.629C276.197 160.017 275.684 161.381 275.202 162.758C274.687 164.125 274.169 165.476 273.736 166.857C272.847 169.605 272.152 172.413 271.657 175.258C271.19 178.115 270.875 180.995 270.713 183.886L270.337 188.241C270.175 189.691 270.048 191.142 269.856 192.591C269.821 191.13 269.852 189.673 269.848 188.214L269.945 183.844C269.973 182.387 270.027 180.934 270.127 179.462C270.241 177.997 270.429 176.537 270.672 175.087C271.176 172.189 271.96 169.347 273.014 166.602C274.084 163.86 275.367 161.254 276.651 158.629Z" fill="#B02336"/>
<path d="M261.225 172.916C260.928 174.679 260.601 176.352 260.4 178.051C260.277 178.896 260.221 179.745 260.162 180.6C260.097 181.459 260.118 182.314 260.08 183.218C259.705 182.398 259.469 181.52 259.382 180.623C259.284 179.726 259.293 178.821 259.408 177.927C259.523 177.036 259.729 176.16 260.022 175.311C260.306 174.459 260.71 173.652 261.225 172.916Z" fill="#B02336"/>
<path d="M297.47 208.607C296.003 207.172 294.602 205.779 293.083 204.519C292.328 203.889 291.541 203.298 290.725 202.748C289.883 202.205 289.015 201.704 288.123 201.248C290.2 201.493 292.154 202.366 293.722 203.751C294.512 204.418 295.233 205.162 295.874 205.974C296.522 206.775 297.059 207.661 297.47 208.607Z" fill="#B02336"/>
<path d="M306.818 219.277C306.574 220.321 306.155 221.317 305.579 222.221C305.009 223.144 304.306 223.978 303.493 224.696C302.664 225.416 301.706 225.972 300.668 226.333C299.642 226.687 298.545 226.791 297.47 226.636C298.472 226.404 299.444 226.06 300.369 225.612C301.258 225.158 302.088 224.596 302.84 223.939C304.356 222.558 305.692 220.992 306.818 219.277Z" fill="#B02336"/>
<path d="M305.673 225.165C305.247 226.124 304.605 226.972 303.796 227.641C302.996 228.328 302.094 228.888 301.123 229.301C300.15 229.693 299.127 229.949 298.084 230.063C297.568 230.117 297.049 230.138 296.53 230.126C296.014 230.095 295.5 230.036 294.99 229.948C295.496 229.814 295.996 229.741 296.488 229.637C296.977 229.51 297.469 229.436 297.946 229.295C298.896 229.052 299.829 228.746 300.739 228.378C302.57 227.625 304.243 226.534 305.673 225.165Z" fill="#B02336"/>
<path d="M265.422 208.791C265.932 210.767 266.258 212.786 266.397 214.823C266.58 216.856 266.573 218.902 266.376 220.933C265.863 218.957 265.537 216.938 265.4 214.901C265.219 212.868 265.226 210.823 265.422 208.791Z" fill="#B02336"/>
<path d="M243.982 155.899C242.805 157.704 241.473 159.402 240 160.974C238.559 162.576 236.98 164.048 235.281 165.372C236.456 163.567 237.789 161.868 239.263 160.298C240.705 158.697 242.284 157.225 243.982 155.899Z" fill="#B02336"/>
<path d="M225.331 174.767H224.94V186.15H225.331V174.767Z" fill="#7CA1B1"/>
<path d="M243.016 201.428L242.866 201.067L255.268 195.908L255.419 196.268L243.016 201.428Z" fill="#7CA1B1"/>
<path d="M241.793 180.381L236.967 191.766L237.326 191.918L242.152 180.534L241.793 180.381Z" fill="#7CA1B1"/>
<path d="M309.68 232.524C310.076 240.547 307.818 248.478 303.255 255.089C301.011 258.242 298.037 260.806 294.587 262.559C291.137 264.313 287.313 265.205 283.443 265.158L245.802 265.051C239.424 265.338 233.996 265.277 232.128 271.164L207.861 347.667L189.281 345.461L204.431 261.382C204.431 261.382 205.002 244.64 223.297 242.085L267.603 234.09L268.291 227.783L309.68 232.524Z" fill="#6C7FD8"/>
<path d="M267.702 234.258L267.503 233.922L276.55 228.573L276.75 228.909L267.702 234.258Z" fill="#5E7C24"/>
<path d="M225.136 293.207C225.49 289.739 225.87 286.274 226.276 282.812C226.564 279.296 227.649 275.892 229.448 272.857C231.205 269.762 233.94 267.339 237.224 265.969C238.049 265.646 238.913 265.434 239.793 265.338C240.67 265.289 241.55 265.312 242.424 265.406C244.145 265.684 245.904 265.609 247.595 265.185C245.914 265.677 244.149 265.822 242.41 265.611C241.548 265.541 240.681 265.538 239.819 265.603C238.967 265.716 238.134 265.941 237.341 266.272C234.156 267.658 231.511 270.047 229.811 273.076C228.028 276.056 226.934 279.397 226.607 282.854C226.142 286.308 225.652 289.759 225.136 293.207Z" fill="#065082"/>
<path d="M372.341 233.174H363.704V370.173H372.341V233.174Z" fill="#935B50"/>
<path d="M387.387 226.55H130.819C129.997 226.55 129.33 227.216 129.33 228.039V231.685C129.33 232.507 129.997 233.174 130.819 233.174H387.387C388.21 233.174 388.876 232.507 388.876 231.685V228.039C388.876 227.216 388.21 226.55 387.387 226.55Z" fill="#935B50"/>
<path d="M155.191 233.174H146.554V370.173H155.191V233.174Z" fill="#935B50"/>
<path d="M139.665 233.174H379.132V251.862C379.132 252.253 379.055 252.64 378.906 253.001C378.756 253.363 378.537 253.691 378.26 253.968C377.984 254.244 377.655 254.463 377.294 254.613C376.933 254.763 376.545 254.84 376.154 254.84H142.643C142.251 254.84 141.864 254.763 141.503 254.613C141.142 254.463 140.813 254.244 140.537 253.968C140.26 253.691 140.041 253.363 139.891 253.001C139.742 252.64 139.665 252.253 139.665 251.862V233.174H139.665Z" fill="#C38F86"/>
<path d="M205.356 91.7474H131.712C131.181 91.7474 130.673 91.5367 130.298 91.1616C129.923 90.7865 129.712 90.2778 129.712 89.7474V10.02C129.712 9.48959 129.923 8.98088 130.298 8.6058C130.673 8.23073 131.181 8.02002 131.712 8.02002H219C219.531 8.02002 220.04 8.23073 220.415 8.6058C220.79 8.98088 221 9.48959 221 10.02V76.6951L205.356 91.7474Z" fill="#FFBA55"/>
<path d="M219 91.7474C219.531 91.7474 220.04 91.5366 220.415 91.1616C220.79 90.7865 221 90.2778 221 89.7474V76.6951L205.356 91.7474H219Z" fill="#FFBA55"/>
<path d="M145.356 17.3999C145.159 17.3999 144.964 17.3612 144.782 17.2858C144.6 17.2104 144.435 17.0999 144.295 16.9606C144.156 16.8213 144.045 16.656 143.97 16.474C143.895 16.292 143.856 16.0969 143.856 15.8999V1.5C143.856 1.10218 144.014 0.720643 144.295 0.439339C144.577 0.158034 144.958 0 145.356 0C145.754 0 146.135 0.158034 146.417 0.439339C146.698 0.720643 146.856 1.10218 146.856 1.5V15.8999C146.856 16.0969 146.817 16.292 146.742 16.474C146.666 16.656 146.556 16.8213 146.417 16.9606C146.277 17.0999 146.112 17.2104 145.93 17.2858C145.748 17.3612 145.553 17.3999 145.356 17.3999Z" fill="#E6952A"/>
<path d="M135.356 17.3999C135.159 17.3999 134.964 17.3612 134.782 17.2858C134.6 17.2104 134.435 17.0999 134.295 16.9606C134.156 16.8213 134.045 16.656 133.97 16.474C133.895 16.292 133.856 16.0969 133.856 15.8999V1.5C133.856 1.10218 134.014 0.720643 134.295 0.439339C134.577 0.158034 134.958 0 135.356 0C135.754 0 136.135 0.158034 136.417 0.439339C136.698 0.720643 136.856 1.10218 136.856 1.5V15.8999C136.856 16.0969 136.817 16.292 136.742 16.474C136.666 16.656 136.556 16.8213 136.417 16.9606C136.277 17.0999 136.112 17.2104 135.93 17.2858C135.748 17.3612 135.553 17.3999 135.356 17.3999Z" fill="#E6952A"/>
<path d="M155.356 17.3999C155.159 17.3999 154.964 17.3612 154.782 17.2858C154.6 17.2104 154.435 17.0999 154.295 16.9606C154.156 16.8213 154.045 16.656 153.97 16.474C153.895 16.292 153.856 16.0969 153.856 15.8999V1.5C153.856 1.10218 154.014 0.720643 154.295 0.439339C154.577 0.158034 154.958 0 155.356 0C155.754 0 156.135 0.158034 156.417 0.439339C156.698 0.720643 156.856 1.10218 156.856 1.5V15.8999C156.856 16.0969 156.817 16.292 156.742 16.474C156.666 16.656 156.556 16.8213 156.417 16.9606C156.277 17.0999 156.112 17.2104 155.93 17.2858C155.748 17.3612 155.553 17.3999 155.356 17.3999Z" fill="#E6952A"/>
<path d="M165.356 17.3999C165.159 17.3999 164.964 17.3612 164.782 17.2858C164.6 17.2104 164.435 17.0999 164.295 16.9606C164.156 16.8213 164.045 16.656 163.97 16.474C163.895 16.292 163.856 16.0969 163.856 15.8999V1.5C163.856 1.10218 164.014 0.720643 164.295 0.439339C164.577 0.158034 164.958 0 165.356 0C165.754 0 166.135 0.158034 166.417 0.439339C166.698 0.720643 166.856 1.10218 166.856 1.5V15.8999C166.856 16.0969 166.817 16.292 166.742 16.474C166.666 16.656 166.556 16.8213 166.417 16.9606C166.277 17.0999 166.112 17.2104 165.93 17.2858C165.748 17.3612 165.553 17.3999 165.356 17.3999Z" fill="#E6952A"/>
<path d="M175.356 17.3999C175.159 17.3999 174.964 17.3612 174.782 17.2858C174.6 17.2104 174.435 17.0999 174.295 16.9606C174.156 16.8213 174.045 16.656 173.97 16.474C173.895 16.292 173.856 16.0969 173.856 15.8999V1.5C173.856 1.10218 174.014 0.720643 174.295 0.439339C174.577 0.158034 174.958 0 175.356 0C175.754 0 176.135 0.158034 176.417 0.439339C176.698 0.720643 176.856 1.10218 176.856 1.5V15.8999C176.856 16.0969 176.817 16.292 176.742 16.474C176.666 16.656 176.556 16.8213 176.417 16.9606C176.277 17.0999 176.112 17.2104 175.93 17.2858C175.748 17.3612 175.553 17.3999 175.356 17.3999Z" fill="#E6952A"/>
<path d="M185.356 17.3999C185.159 17.3999 184.964 17.3612 184.782 17.2858C184.6 17.2104 184.435 17.0999 184.295 16.9606C184.156 16.8213 184.045 16.656 183.97 16.474C183.895 16.292 183.856 16.0969 183.856 15.8999V1.5C183.856 1.10218 184.014 0.720643 184.295 0.439339C184.577 0.158034 184.958 0 185.356 0C185.754 0 186.135 0.158034 186.417 0.439339C186.698 0.720643 186.856 1.10218 186.856 1.5V15.8999C186.856 16.0969 186.817 16.292 186.742 16.474C186.666 16.656 186.556 16.8213 186.417 16.9606C186.277 17.0999 186.112 17.2104 185.93 17.2858C185.748 17.3612 185.553 17.3999 185.356 17.3999Z" fill="#E6952A"/>
<path d="M195.356 17.3999C195.159 17.3999 194.964 17.3612 194.782 17.2858C194.6 17.2104 194.435 17.0999 194.295 16.9606C194.156 16.8213 194.045 16.656 193.97 16.474C193.895 16.292 193.856 16.0969 193.856 15.8999V1.5C193.856 1.10218 194.014 0.720643 194.295 0.439339C194.577 0.158034 194.958 0 195.356 0C195.754 0 196.135 0.158034 196.417 0.439339C196.698 0.720643 196.856 1.10218 196.856 1.5V15.8999C196.856 16.0969 196.817 16.292 196.742 16.474C196.666 16.656 196.556 16.8213 196.417 16.9606C196.277 17.0999 196.112 17.2104 195.93 17.2858C195.748 17.3612 195.553 17.3999 195.356 17.3999Z" fill="#E6952A"/>
<path d="M205.356 17.3999C205.159 17.3999 204.964 17.3612 204.782 17.2858C204.6 17.2104 204.435 17.0999 204.295 16.9606C204.156 16.8213 204.045 16.656 203.97 16.474C203.895 16.292 203.856 16.0969 203.856 15.8999V1.5C203.856 1.10218 204.014 0.720643 204.295 0.439339C204.577 0.158034 204.958 0 205.356 0C205.754 0 206.135 0.158034 206.417 0.439339C206.698 0.720643 206.856 1.10218 206.856 1.5V15.8999C206.856 16.0969 206.817 16.292 206.742 16.474C206.666 16.656 206.556 16.8213 206.417 16.9606C206.277 17.0999 206.112 17.2104 205.93 17.2858C205.748 17.3612 205.553 17.3999 205.356 17.3999Z" fill="#E6952A"/>
<path d="M215.356 17.3999C215.159 17.3999 214.964 17.3612 214.782 17.2858C214.6 17.2104 214.435 17.0999 214.295 16.9606C214.156 16.8213 214.045 16.656 213.97 16.474C213.895 16.292 213.856 16.0969 213.856 15.8999V1.5C213.856 1.10218 214.014 0.720643 214.295 0.439339C214.577 0.158034 214.958 0 215.356 0C215.754 0 216.135 0.158034 216.417 0.439339C216.698 0.720643 216.856 1.10218 216.856 1.5V15.8999C216.856 16.0969 216.817 16.292 216.742 16.474C216.666 16.656 216.556 16.8213 216.417 16.9606C216.277 17.0999 216.112 17.2104 215.93 17.2858C215.748 17.3612 215.553 17.3999 215.356 17.3999Z" fill="#E6952A"/>
<path d="M220.931 76.6233L205.288 76.7673L205.426 91.8193L220.931 76.6233Z" fill="#E6952A"/>
<path d="M183.856 39.3797C187.435 39.3797 190.336 36.4785 190.336 32.8997C190.336 29.3209 187.435 26.4197 183.856 26.4197C180.277 26.4197 177.376 29.3209 177.376 32.8997C177.376 36.4785 180.277 39.3797 183.856 39.3797Z" fill="#E6952A"/>
<path d="M201.836 39.3797C205.415 39.3797 208.316 36.4785 208.316 32.8997C208.316 29.3209 205.415 26.4197 201.836 26.4197C198.257 26.4197 195.356 29.3209 195.356 32.8997C195.356 36.4785 198.257 39.3797 201.836 39.3797Z" fill="#E6952A"/>
<path d="M146.445 55.3797C150.024 55.3797 152.925 52.4785 152.925 48.8997C152.925 45.3209 150.024 42.4197 146.445 42.4197C142.866 42.4197 139.965 45.3209 139.965 48.8997C139.965 52.4785 142.866 55.3797 146.445 55.3797Z" fill="#E6952A"/>
<path d="M165.356 55.3797C168.935 55.3797 171.836 52.4785 171.836 48.8997C171.836 45.3209 168.935 42.4197 165.356 42.4197C161.777 42.4197 158.876 45.3209 158.876 48.8997C158.876 52.4785 161.777 55.3797 165.356 55.3797Z" fill="#E6952A"/>
<path d="M183.856 55.3797C187.435 55.3797 190.336 52.4785 190.336 48.8997C190.336 45.3209 187.435 42.4197 183.856 42.4197C180.277 42.4197 177.376 45.3209 177.376 48.8997C177.376 52.4785 180.277 55.3797 183.856 55.3797Z" fill="#E6952A"/>
<path d="M201.836 55.3797C205.415 55.3797 208.316 52.4785 208.316 48.8997C208.316 45.3209 205.415 42.4197 201.836 42.4197C198.257 42.4197 195.356 45.3209 195.356 48.8997C195.356 52.4785 198.257 55.3797 201.836 55.3797Z" fill="#E6952A"/>
<path d="M146.445 71.3797C150.024 71.3797 152.925 68.4785 152.925 64.8997C152.925 61.3209 150.024 58.4197 146.445 58.4197C142.866 58.4197 139.965 61.3209 139.965 64.8997C139.965 68.4785 142.866 71.3797 146.445 71.3797Z" fill="#E6952A"/>
<path d="M165.356 71.3797C168.935 71.3797 171.836 68.4785 171.836 64.8997C171.836 61.3209 168.935 58.4197 165.356 58.4197C161.777 58.4197 158.876 61.3209 158.876 64.8997C158.876 68.4785 161.777 71.3797 165.356 71.3797Z" fill="#E6952A"/>
<path d="M183.856 71.3797C187.435 71.3797 190.336 68.4785 190.336 64.8997C190.336 61.3209 187.435 58.4197 183.856 58.4197C180.277 58.4197 177.376 61.3209 177.376 64.8997C177.376 68.4785 180.277 71.3797 183.856 71.3797Z" fill="#E6952A"/>
<path d="M201.836 71.3797C205.415 71.3797 208.316 68.4785 208.316 64.8997C208.316 61.3209 205.415 58.4197 201.836 58.4197C198.257 58.4197 195.356 61.3209 195.356 64.8997C195.356 68.4785 198.257 71.3797 201.836 71.3797Z" fill="#E6952A"/>
<path d="M146.445 86.3797C150.024 86.3797 152.925 83.4785 152.925 79.8997C152.925 76.3209 150.024 73.4197 146.445 73.4197C142.866 73.4197 139.965 76.3209 139.965 79.8997C139.965 83.4785 142.866 86.3797 146.445 86.3797Z" fill="#E6952A"/>
<path d="M161.59 58.5605C163.224 60.4173 164.671 62.4302 165.91 64.5703C166.528 65.6326 167.132 66.7031 167.672 67.8121C168.234 68.9193 168.719 70.0643 169.122 71.2388C168.283 70.3228 167.51 69.3497 166.806 68.3264C166.09 67.3223 165.439 66.2798 164.802 65.2291C163.515 63.1169 162.439 60.8833 161.59 58.5605Z" fill="#AF2F2F"/>
<path d="M169.122 58.5605C168.273 60.8833 167.197 63.1169 165.91 65.2291C165.273 66.2798 164.622 67.3223 163.906 68.3264C163.202 69.3497 162.429 70.3228 161.59 71.2388C161.994 70.0644 162.478 68.9194 163.04 67.8121C163.58 66.7031 164.184 65.6326 164.802 64.5703C166.041 62.4302 167.488 60.4173 169.122 58.5605Z" fill="#AF2F2F"/>
<path d="M242.816 370.642C239.661 368.535 239.231 364.334 241.823 361.104L252.726 347.519C252.927 347.29 253.194 347.128 253.489 347.055C253.785 346.982 254.096 347.001 254.381 347.11L262.143 350.472C262.443 350.586 262.772 350.601 263.081 350.514C263.39 350.427 263.663 350.243 263.859 349.99L268.386 344.162C268.512 343.978 268.681 343.828 268.878 343.726C269.075 343.623 269.294 343.571 269.517 343.573C269.739 343.575 269.957 343.632 270.152 343.739C270.347 343.846 270.513 343.999 270.635 344.185L275.232 353.987C275.345 354.296 275.332 354.636 275.196 354.935C275.06 355.235 274.811 355.468 274.504 355.585L242.825 370.649L242.816 370.642Z" fill="#F73C4F"/>
<path d="M163.9 363.005C162.065 359.322 164.18 355.337 168.686 353.949L187.639 348.108C187.975 348.019 188.33 348.027 188.662 348.13C188.994 348.234 189.29 348.429 189.516 348.693L195.132 356.134C195.371 356.412 195.686 356.613 196.039 356.711C196.392 356.81 196.766 356.802 197.114 356.688L205.096 354.097C206.179 353.745 207.412 354.478 207.298 355.406L205.903 366.764C205.808 367.117 205.579 367.42 205.265 367.607C204.951 367.795 204.576 367.853 204.22 367.769L163.905 363.017L163.9 363.005Z" fill="#F73C4F"/>
<path d="M381.703 105.986L382.873 104.363L338.008 72.0002H324.443V74.0002H337.362L381.703 105.986Z" fill="#F58A97"/>
<path d="M382.288 107.11C382.697 107.111 383.096 106.981 383.428 106.741C383.759 106.5 384.005 106.16 384.132 105.77C384.258 105.381 384.257 104.961 384.129 104.572C384.002 104.183 383.754 103.844 383.422 103.604L374.123 96.8966C373.707 96.5964 373.188 96.4738 372.681 96.5559C372.174 96.638 371.721 96.9181 371.42 97.3344C371.12 97.7508 370.997 98.2695 371.079 98.7763C371.161 99.2832 371.441 99.7368 371.857 100.037L381.156 106.745C381.485 106.983 381.881 107.111 382.288 107.11Z" fill="#FEC165"/>
<path d="M359.167 87.5967H357.167V211.456H359.167V87.5967Z" fill="#F58A97"/>
<path d="M320.378 90.5392L308.415 81.5954C309.768 78.4365 312.137 75.8191 315.145 74.1571C318.153 72.4952 321.63 71.8837 325.025 72.4192C325.025 72.4192 327.812 84.9638 320.378 90.5392Z" fill="#FEC165"/>
<path d="M340.047 225.278H376.287L358.167 211.171L340.047 225.278Z" fill="#FEC165"/>
<path d="M357.193 89.5713H359.142C359.694 89.5713 360.142 89.1236 360.142 88.5713V86.6221C360.142 86.0698 359.694 85.6221 359.142 85.6221H357.193C356.64 85.6221 356.193 86.0698 356.193 86.6221V88.5713C356.193 89.1236 356.64 89.5713 357.193 89.5713Z" fill="#FEC165"/>
<path d="M38.7242 346.475C38.7242 346.475 35.0163 364.84 36.3782 365.415C37.74 365.991 73.4561 368.239 67.2464 365.095L56.9335 360.536C55.1299 359.739 53.5942 358.439 52.5104 356.791C51.4265 355.144 50.8404 353.219 50.8221 351.247L50.7678 345.391L38.7242 346.475Z" fill="#F9977A"/>
<path d="M90.8344 348.309C90.8344 348.309 88.3073 366.874 89.7031 367.361C91.0989 367.848 126.886 367.81 120.488 365.069L109.905 361.179C108.054 360.498 106.438 359.299 105.251 357.724C104.065 356.149 103.357 354.266 103.212 352.299L102.784 346.459L90.8344 348.309Z" fill="#F9977A"/>
<path d="M49.0004 162C49.0004 162 45.3145 191.076 47.0367 265.619L35.2997 342.197C35.1826 343.4 35.5444 344.6 36.3067 345.538C37.069 346.476 38.1704 347.075 39.3718 347.206L50.6266 348.433C51.6849 348.548 52.7503 348.292 53.6407 347.709C54.5311 347.125 55.191 346.25 55.5076 345.234L77.8435 273.534L87.7162 345.433C87.8672 346.532 88.411 347.54 89.2472 348.269C90.0834 348.998 91.1553 349.4 92.2648 349.4H103.796C104.976 349.4 106.111 348.946 106.966 348.132C107.82 347.318 108.327 346.206 108.382 345.027C109.525 320.627 114.224 200.971 98.6694 160.975L49.0004 162Z" fill="#FFBA55"/>
<path d="M77.8435 273.534C78.6621 266.126 79.5676 258.731 80.4731 251.336L83.2468 229.161L86.0552 206.993C86.5271 203.298 86.969 199.601 87.3808 195.901C87.8813 192.212 88.1736 188.498 88.2563 184.776C88.3672 188.504 88.2378 192.236 87.8689 195.948C87.5505 199.662 87.2008 203.372 86.8196 207.08C86.0469 214.493 85.144 221.89 84.2378 229.287C83.2578 236.674 82.3003 244.063 81.2322 251.437C80.1677 258.812 79.0708 266.182 77.8435 273.534Z" fill="#E6952A"/>
<path d="M106.365 255.188C105.548 256.884 104.912 258.662 104.466 260.491C104.021 262.286 103.839 264.136 103.924 265.983C103.968 266.899 104.089 267.809 104.286 268.705C104.509 269.597 104.809 270.467 105.181 271.308C105.957 273.017 106.961 274.613 108.166 276.052C107.809 275.74 107.455 275.418 107.109 275.087C106.744 274.773 106.407 274.427 106.104 274.052L105.217 272.903C104.941 272.503 104.695 272.083 104.479 271.647C104.014 270.786 103.641 269.878 103.368 268.938C102.646 266.078 102.767 263.071 103.718 260.279C104.302 258.443 105.197 256.72 106.365 255.188Z" fill="#E6952A"/>
<path d="M52.4436 204.648C52.5386 206.715 52.7456 208.759 53.0083 210.786C53.2686 212.805 53.6696 214.803 54.2083 216.766C54.7228 218.718 55.49 220.595 56.4905 222.349C57.4994 224.12 58.8944 225.64 60.5718 226.797C58.6389 225.936 56.994 224.539 55.8331 222.77C54.6611 221.014 53.787 219.076 53.2459 217.035C52.1695 212.999 51.8969 208.79 52.4436 204.648H52.4436Z" fill="#E6952A"/>
<path d="M50.0951 217.871C50.2818 219.86 50.7671 221.809 51.5348 223.654C52.6443 226.401 54.3049 228.892 56.4142 230.973C56.7672 231.317 57.0961 231.689 57.4704 232.012L58.6064 232.97C58.9787 233.3 59.3731 233.603 59.787 233.879L60.9999 234.76C61.8254 235.326 62.706 235.808 63.547 236.383C62.609 236.013 61.6733 235.613 60.7504 235.182C59.8474 234.705 58.9741 234.175 58.1357 233.592C56.4455 232.414 54.9393 230.991 53.6664 229.371C52.4149 227.726 51.4474 225.883 50.8039 223.918C50.1397 221.976 49.8981 219.914 50.0951 217.871Z" fill="#E6952A"/>
<path d="M64.9653 180.209C64.6909 181.731 64.3992 183.247 64.0476 184.748C63.7065 186.251 63.3738 187.757 62.99 189.248L62.9407 189.441L62.7522 189.539C60.2402 190.851 57.7078 192.122 55.1426 193.327C53.8679 193.946 52.5603 194.499 51.2707 195.088C49.9775 195.669 48.6643 196.211 47.3406 196.731C48.5513 195.985 49.7722 195.259 51.0134 194.573C52.2583 193.895 53.4851 193.181 54.7449 192.532C57.2483 191.203 59.7844 189.94 62.3413 188.718L62.1035 189.008C62.5261 187.527 62.9993 186.059 63.4646 184.59C63.9189 183.117 64.4336 181.661 64.9653 180.209Z" fill="#E6952A"/>
<path d="M101.562 173.196C97.5369 175.135 93.3404 176.695 89.0266 177.859C84.7065 179.033 80.2993 179.86 75.8472 180.332L72.4966 180.585L69.1355 180.636C68.0154 180.685 66.8962 180.589 65.7773 180.535C64.6571 180.508 63.5393 180.416 62.4297 180.259C57.9825 179.746 53.6225 178.648 49.4629 176.993C50.5442 177.273 51.6192 177.561 52.688 177.858C53.2246 177.999 53.7539 178.165 54.2952 178.285L55.935 178.573C57.0273 178.76 58.106 179.016 59.2036 179.156L62.5061 179.494C66.9159 179.858 71.3501 179.805 75.75 179.337C80.1587 178.908 84.5314 178.166 88.8352 177.117C90.991 176.6 93.1345 176.023 95.2524 175.356C97.3874 174.738 99.4807 173.99 101.562 173.196Z" fill="#E6952A"/>
<path d="M95.0078 177.334C94.989 175.886 94.7454 174.45 94.2856 173.077C94.0559 172.399 93.7914 171.733 93.4932 171.083C93.1963 170.419 92.8501 169.772 92.5408 169.058C93.1708 169.506 93.7207 170.058 94.1673 170.69C94.6227 171.325 94.9824 172.024 95.2351 172.764C95.477 173.514 95.5941 174.298 95.5815 175.086C95.5854 175.872 95.3879 176.646 95.0078 177.334Z" fill="#E6952A"/>
<path d="M59.5718 181.552C59.2844 180.595 59.1348 179.602 59.1275 178.603C59.1044 177.599 59.1972 176.596 59.4038 175.613C59.6238 174.62 59.9866 173.665 60.481 172.777C60.9898 171.898 61.6973 171.149 62.5469 170.591C62.0103 171.388 61.5529 172.236 61.1812 173.122C60.8495 174.003 60.5819 174.907 60.3802 175.827C60.01 177.719 59.7402 179.63 59.5718 181.552Z" fill="#E6952A"/>
<path d="M62.9277 78.2688L81.6755 79.3176C81.6755 79.3176 106.724 81.1891 106.69 102.815L108.83 123.386C110.666 126.309 112.072 129.48 113.003 132.803C115.454 141.816 112.366 150.116 103.256 152.176L104.044 165.984C104.126 167.422 103.701 168.843 102.844 170C101.986 171.157 100.75 171.977 99.3502 172.317C90.2924 174.523 71.2348 178.65 62.2313 176.758L47.7922 173.193L47.876 145.831C47.876 145.831 21.3402 153.519 23.8459 138.144C25.8651 125.753 32.1501 102.609 40.3284 89.1253C41.7743 86.7631 43.7015 84.732 45.9845 83.164C48.2674 81.5961 50.855 80.5265 53.5788 80.0249L62.9277 78.2688Z" fill="#6C7FD8"/>
<path d="M62.2312 128.537C62.2312 128.537 72.4671 118.07 83.2692 122.372L66.0479 138.546L62.2312 128.537Z" fill="#F9977A"/>
<path d="M95.751 109.255C95.7022 111.74 95.626 114.224 95.5225 116.706L95.1633 124.15L94.6909 131.587C94.5191 134.065 94.3174 136.542 94.0859 139.017C94.134 136.532 94.21 134.048 94.3137 131.566L94.6736 124.122L95.147 116.685C95.3184 114.207 95.5197 111.73 95.751 109.255Z" fill="#065082"/>
<path d="M30.9319 129.137C36.1467 128.951 41.3621 128.787 46.5784 128.679L62.2266 128.301L62.3914 128.297L62.4517 128.453C63.9038 132.21 65.2939 135.99 66.7183 139.757L66.7913 139.95L66.596 140.012L55.686 143.462C52.0549 144.629 48.396 145.71 44.7517 146.836C48.3689 145.626 51.9714 144.37 55.6018 143.2L66.4766 139.641L66.354 139.896C64.9085 136.137 63.4285 132.391 62.0107 128.621L62.2356 128.773L46.5845 128.995C41.3677 129.087 36.1499 129.123 30.9319 129.137Z" fill="#065082"/>
<path d="M49.1157 106.646C49.1118 110.352 48.9185 114.047 48.7407 117.743C48.5056 121.435 48.2866 125.129 47.8757 128.812C47.8784 125.106 48.0727 121.411 48.251 117.715C48.4866 114.023 48.7065 110.329 49.1157 106.646Z" fill="#065082"/>
<path d="M89.1877 146.736C89.7575 147.779 90.4336 148.761 91.2051 149.666C91.9561 150.566 92.8407 151.346 93.8281 151.979C94.8031 152.619 95.9108 153.03 97.0676 153.18C98.2426 153.326 99.434 153.271 100.59 153.016C99.4571 153.459 98.2394 153.643 97.0258 153.555C95.7957 153.454 94.6085 153.056 93.5666 152.394C92.5468 151.72 91.6491 150.877 90.9121 149.902C90.177 148.942 89.5953 147.874 89.1877 146.736Z" fill="#065082"/>
<path d="M98.1082 135.054C99.7459 132.972 101.523 131.018 103.289 129.054C105.096 127.129 106.893 125.192 108.83 123.386C107.194 125.469 105.416 127.422 103.65 129.386C101.842 131.311 100.045 133.246 98.1082 135.054Z" fill="#065082"/>
<path d="M107.646 121.439L80.2005 122.49L59.3665 146.125L89.3185 144.392L107.646 121.439Z" fill="#025182"/>
<path d="M94.2392 147.291C91.4777 147.425 86.241 147.279 82.0138 144.815L80.8789 143.981C80.1431 143.44 79.3003 143.062 78.4068 142.872C75.6031 142.327 72.8328 141.622 70.1096 140.761C69.9139 140.683 69.7477 140.545 69.6344 140.367C69.5211 140.189 69.4665 139.98 69.4781 139.77C69.6491 139.472 69.9083 139.234 70.22 139.089C70.5317 138.944 70.8807 138.899 71.2189 138.961L78.5988 140.619L73.5108 136.9C73.348 136.781 73.2138 136.627 73.1181 136.45C73.0224 136.272 72.9676 136.075 72.9576 135.874C72.9476 135.673 72.9827 135.472 73.0604 135.286C73.1381 135.099 73.2564 134.933 73.4066 134.799L73.4299 134.778C73.6365 134.59 73.8952 134.47 74.1717 134.432C74.4482 134.395 74.7295 134.443 74.9785 134.569C77.7538 135.977 86.4657 140.204 85.8258 137.497L81.5063 133.126C81.3957 133.014 81.3108 132.88 81.2574 132.732C81.2039 132.584 81.1833 132.426 81.1968 132.269C81.2112 132.102 81.2642 131.94 81.3516 131.797C81.439 131.654 81.5585 131.533 81.7005 131.444C81.8426 131.354 82.0034 131.299 82.1704 131.282C82.3374 131.266 82.506 131.288 82.663 131.347L83.3643 131.613C83.4592 131.648 83.5486 131.697 83.6298 131.758L88.6352 135.497C89.069 135.826 89.5883 136.023 90.1311 136.065C90.9165 136.145 91.7098 136.035 92.4435 135.743C93.1772 135.451 93.8296 134.987 94.3451 134.389C95.5551 132.939 96.4917 131.835 97.0471 131.183C97.1197 131.098 97.2092 131.029 97.3099 130.98C97.4106 130.932 97.5203 130.904 97.6321 130.9C97.7438 130.896 97.8553 130.916 97.9592 130.957C98.0632 130.998 98.1574 131.061 98.236 131.14C98.3209 131.226 98.3856 131.329 98.4253 131.443C98.4651 131.557 98.4789 131.678 98.4657 131.798L97.5489 140.151C97.922 141.516 97.9973 142.946 97.7697 144.343C97.5913 145.156 97.1478 145.887 96.5087 146.421C95.8696 146.955 95.0713 147.261 94.2392 147.291Z" fill="#F9977A"/>
<path d="M76.7497 39.1332C79.7467 38.847 82.7689 39.2771 85.567 40.3882C86.877 40.9369 91.668 42.9434 93.7916 47.7045C94.5982 49.5127 94.6844 51.6385 94.8572 55.89C94.9652 58.5456 95.8766 60.4942 95.6949 63.7156C95.4959 66.3227 94.9229 68.8877 93.9934 71.3316C92.591 75.1597 93.23 77.4149 92.5985 78.1098C90.0537 80.9105 82.9552 78.2042 82.6325 82.0265C82.4332 84.3867 84.213 84.9279 83.9052 87.6856C83.5061 91.2607 72.0722 88.663 68.7572 86.6795C68.3053 86.4091 64.2259 83.3996 64.921 79.2445C65.2924 77.0247 67.775 66.6506 67.6685 65.2882C67.2835 60.3639 64.854 59.6301 63.2429 53.6136C62.7991 52.1008 62.7512 50.4995 63.104 48.963C63.4567 47.4264 64.1982 46.0063 65.2574 44.8386C68.3006 41.648 72.3684 39.6285 76.7497 39.1332Z" fill="#F9977A"/>
<path d="M94.6014 60.0337C94.6395 59.3522 94.2261 58.7748 93.6781 58.7441C93.13 58.7135 92.6548 59.2411 92.6166 59.9227C92.5785 60.6042 92.9919 61.1816 93.54 61.2123C94.0881 61.2429 94.5633 60.7153 94.6014 60.0337Z" fill="#0A0709"/>
<path d="M85.6537 59.5332C85.6918 58.8517 85.2784 58.2743 84.7303 58.2436C84.1822 58.213 83.707 58.7406 83.6689 59.4222C83.6308 60.1037 84.0442 60.6811 84.5922 60.7118C85.1403 60.7424 85.6155 60.2148 85.6537 59.5332Z" fill="#0A0709"/>
<path d="M95.7549 57.8808C95.6073 57.8811 95.4645 57.8292 95.3516 57.7343C94.5007 57.0836 93.4729 56.7056 92.4032 56.65C91.3336 56.5944 90.2721 56.8638 89.3584 57.4228C89.2868 57.4637 89.2079 57.4901 89.1262 57.5005C89.0444 57.5109 88.9614 57.5051 88.8818 57.4834C88.8023 57.4617 88.7278 57.4246 88.6626 57.3742C88.5975 57.3237 88.5429 57.2609 88.502 57.1894C88.461 57.1178 88.4346 57.0389 88.4242 56.9571C88.4138 56.8753 88.4196 56.7923 88.4413 56.7128C88.4629 56.6333 88.5001 56.5588 88.5505 56.4936C88.601 56.4284 88.6638 56.3738 88.7353 56.3329C89.8767 55.6603 91.1927 55.3432 92.5152 55.422C93.8377 55.5008 95.1067 55.9719 96.1602 56.7753C96.2582 56.8583 96.3283 56.9694 96.3611 57.0936C96.3939 57.2177 96.3878 57.349 96.3436 57.4696C96.2994 57.5902 96.2193 57.6943 96.114 57.7678C96.0087 57.8413 95.8833 57.8808 95.7549 57.8808Z" fill="#1E1D22"/>
<path d="M86.4815 57.3613C86.334 57.3617 86.1911 57.3098 86.0782 57.2148C85.2274 56.5639 84.1995 56.1859 83.1297 56.1304C82.06 56.075 80.9985 56.3448 80.085 56.9043C79.9405 56.9863 79.7694 57.0077 79.6092 56.9638C79.449 56.9198 79.3127 56.8142 79.2302 56.6699C79.1478 56.5257 79.1259 56.3547 79.1693 56.1943C79.2127 56.0339 79.318 55.8973 79.462 55.8144C80.6033 55.1418 81.9192 54.8245 83.2417 54.9031C84.5641 54.9817 85.8332 55.4527 86.8868 56.2558C86.9848 56.3388 87.0549 56.45 87.0878 56.5741C87.1206 56.6983 87.1145 56.8295 87.0703 56.9501C87.026 57.0707 86.9459 57.1748 86.8406 57.2484C86.7353 57.3219 86.6099 57.3613 86.4815 57.3613Z" fill="#1E1D22"/>
<path d="M88.1457 57.7122C87.99 58.7339 88.1196 59.7788 88.5202 60.7316C88.876 61.6954 89.3494 62.6117 89.9297 63.4595L90.3972 64.0845C90.5939 64.3239 90.692 64.6292 90.6716 64.9383C90.6274 65.2231 90.5219 65.4948 90.3625 65.7349C90.2031 65.975 89.9935 66.1777 89.7483 66.329C89.2794 66.5965 88.7562 66.7551 88.2177 66.793C87.6791 66.8308 87.1389 66.747 86.6372 66.5476C87.1317 66.6639 87.6443 66.6816 88.1456 66.5995C88.6469 66.5174 89.127 66.3372 89.5586 66.0692C89.9466 65.7962 90.2103 65.3803 90.2917 64.9129C90.3477 64.4952 89.8918 64.1494 89.591 63.7043C89.003 62.8195 88.5416 61.8568 88.2205 60.8441C87.8551 59.8361 87.8288 58.7364 88.1457 57.7122Z" fill="#DD765E"/>
<path d="M71.8616 57.2201C71.518 57.3122 71.1891 57.4524 70.8848 57.6366C70.5854 57.8108 70.3068 58.0184 70.0542 58.2554C69.5312 58.7403 69.0437 59.2622 68.5955 59.8169C68.7001 59.4595 68.8539 59.1182 69.0524 58.8031C69.2581 58.4875 69.5017 58.1983 69.7778 57.942C70.0514 57.6768 70.3797 57.4748 70.7397 57.3501C71.0997 57.2254 71.4826 57.181 71.8616 57.2201Z" fill="#DD765E"/>
<path d="M70.7676 62.321C70.9175 61.5662 70.9521 60.793 70.8704 60.0278C70.84 59.6509 70.768 59.2785 70.6558 58.9175C70.5623 58.5458 70.4053 58.1949 70.2678 57.8147C70.5558 58.1002 70.7895 58.4357 70.9573 58.8049C71.1262 59.1787 71.237 59.5761 71.2859 59.9833C71.3825 60.7987 71.1998 61.6228 70.7676 62.321Z" fill="#DD765E"/>
<path d="M76.5809 67.26C76.5809 67.26 75.334 60.0712 75.7486 58.0562C76.3266 55.2484 76.6156 53.8446 76.3409 52.6735C75.9014 50.7989 76.8136 50.6091 78.0803 48.6918C79.2692 46.8923 82.5461 48.5861 83.4022 48.323C85.805 47.5844 85.7734 46.5883 87.3705 46.5783C89.0085 46.5682 90.2305 46.2039 91.226 47.3161C92.2413 48.4512 94.055 51.419 94.5693 50.9505C95.6717 49.6416 96.3923 48.0544 96.6521 46.363C96.7579 44.6874 96.4537 43.0113 95.7656 41.4798C95.4273 40.5984 94.1675 37.3182 91.2195 36.2963C89.5215 35.7077 89.144 36.5202 85.3991 36.5323C81.5149 36.545 81.4432 35.6727 79.3835 36.1355C77.1036 36.6479 77.1286 37.7303 73.1762 39.6108C71.8671 40.2118 70.5262 40.7412 69.1597 41.1968C64.2307 42.9663 63.6193 42.6051 62.4521 43.6132C59.9357 45.7867 60.1036 49.7751 60.1441 50.7385C60.2585 53.4518 61.2667 54.3217 63.3165 58.7725C66.5621 65.821 65.673 68.6568 66.9492 69.6911C67.5752 70.1984 71.154 67.9442 71.2056 66.7376C71.2733 65.156 70.1624 64.5935 68.9491 62.2341C68.1018 60.5852 66.8847 58.2179 67.7753 56.1834C68.3141 54.9536 68.8177 55.3264 70.1123 55.5199C71.8694 55.7825 72.6007 58.2914 73.2078 60.1367C73.6458 61.4721 73.7877 62.8867 73.6238 64.2825C73.2619 67.3966 77.1197 68.5381 76.5809 67.26Z" fill="#1E1D22"/>
<path d="M84.3333 70.7935C85.4687 71.4635 86.7216 71.9108 88.0247 72.1114C88.6409 72.1853 89.2657 72.1331 89.8611 71.958C90.5076 71.7648 91.1353 71.5136 91.7366 71.2076C91.3545 71.8381 90.8039 72.3495 90.147 72.6841C89.8086 72.8604 89.4477 72.9896 89.0742 73.0679C88.6941 73.124 88.3088 73.1368 87.9258 73.1059C87.1766 73.0219 86.4582 72.7612 85.8296 72.3451C85.2134 71.9555 84.7002 71.4233 84.3333 70.7935Z" fill="#DD765E"/>
<path d="M126.33 370.066C128.395 366.759 126.907 362.711 122.967 360.869L106.398 353.123C106.102 352.999 105.776 352.966 105.462 353.027C105.147 353.089 104.858 353.241 104.63 353.466L98.7251 359.93C98.4847 360.166 98.1767 360.322 97.8438 360.377C97.5108 360.431 97.1693 360.381 96.8661 360.233L89.9014 356.844C88.9565 356.384 87.758 356.943 87.7607 357.843L87.7949 368.849C87.8336 369.189 88.0039 369.5 88.2692 369.715C88.5345 369.931 88.8737 370.034 89.214 370.002L126.324 370.077L126.33 370.066Z" fill="#6C7FD8"/>
<path d="M73.68 370.066C75.7449 366.759 74.257 362.711 70.3176 360.869L53.7477 353.123C53.452 352.999 53.1264 352.966 52.8119 353.027C52.4974 353.089 52.208 353.241 51.98 353.466L46.0752 359.93C45.8348 360.166 45.5268 360.322 45.1939 360.377C44.861 360.431 44.5194 360.381 44.2162 360.233L37.2515 356.844C36.3066 356.384 35.1081 356.943 35.1108 357.843L35.145 368.849C35.1837 369.189 35.354 369.5 35.6193 369.715C35.8846 369.931 36.2238 370.034 36.5641 370.002L73.6737 370.077L73.68 370.066Z" fill="#6C7FD8"/>
<path d="M417.208 132.238V370.173H471V132.238C471 131.553 470.729 130.897 470.244 130.413C469.76 129.929 469.104 129.657 468.419 129.657H419.789C419.451 129.657 419.115 129.724 418.802 129.853C418.489 129.983 418.204 130.173 417.964 130.413C417.725 130.652 417.535 130.937 417.405 131.25C417.275 131.563 417.208 131.899 417.208 132.238Z" fill="#935B50"/>
<path d="M465.451 172.944H422.758C421.332 172.944 420.177 174.099 420.177 175.525V205.905C420.177 207.331 421.332 208.487 422.758 208.487H465.451C466.876 208.487 468.032 207.331 468.032 205.905V175.525C468.032 174.099 466.876 172.944 465.451 172.944Z" fill="#E19974"/>
<path d="M465.451 133.529H422.758C421.332 133.529 420.177 134.684 420.177 136.11V166.49C420.177 167.916 421.332 169.072 422.758 169.072H465.451C466.876 169.072 468.032 167.916 468.032 166.49V136.11C468.032 134.684 466.876 133.529 465.451 133.529Z" fill="#E19974"/>
<path d="M464.992 164.561C465.15 164.706 465.277 164.882 465.365 165.078C465.454 165.274 465.501 165.486 465.506 165.701C465.51 165.916 465.471 166.129 465.391 166.329C465.311 166.528 465.191 166.709 465.039 166.861C464.887 167.013 464.706 167.133 464.507 167.213C464.307 167.293 464.094 167.332 463.879 167.328C463.664 167.323 463.452 167.276 463.256 167.187C463.06 167.099 462.884 166.972 462.739 166.814C462.942 166.525 463.13 166.226 463.3 165.916C463.386 165.745 463.495 165.587 463.625 165.447C463.867 165.201 464.181 165.129 464.992 164.561Z" fill="#D6694B"/>
<path d="M462.739 135.786C462.884 135.628 463.06 135.501 463.256 135.413C463.452 135.325 463.664 135.277 463.879 135.273C464.094 135.268 464.307 135.307 464.507 135.387C464.706 135.468 464.887 135.587 465.039 135.739C465.191 135.891 465.311 136.072 465.391 136.272C465.471 136.471 465.51 136.685 465.506 136.899C465.501 137.114 465.454 137.326 465.365 137.522C465.277 137.718 465.15 137.894 464.992 138.04C464.704 137.836 464.404 137.649 464.094 137.479C463.923 137.393 463.765 137.283 463.625 137.153C463.379 136.911 463.307 136.597 462.739 135.786Z" fill="#D6694B"/>
<path d="M423.216 138.04C423.058 137.894 422.931 137.718 422.843 137.522C422.755 137.326 422.707 137.114 422.703 136.899C422.698 136.685 422.737 136.471 422.818 136.272C422.898 136.072 423.018 135.891 423.17 135.739C423.321 135.587 423.503 135.468 423.702 135.387C423.901 135.307 424.115 135.268 424.33 135.273C424.545 135.277 424.756 135.325 424.952 135.413C425.148 135.501 425.324 135.628 425.47 135.786C425.266 136.075 425.079 136.375 424.909 136.684C424.823 136.855 424.713 137.013 424.584 137.153C424.341 137.399 424.027 137.472 423.216 138.04Z" fill="#D6694B"/>
<path d="M425.47 166.814C425.324 166.972 425.148 167.099 424.952 167.187C424.757 167.276 424.545 167.323 424.33 167.328C424.115 167.332 423.902 167.293 423.702 167.213C423.503 167.133 423.322 167.013 423.17 166.861C423.018 166.709 422.898 166.528 422.818 166.329C422.738 166.129 422.699 165.916 422.703 165.701C422.707 165.486 422.755 165.274 422.843 165.078C422.932 164.882 423.059 164.706 423.217 164.561C423.505 164.764 423.805 164.952 424.115 165.122C424.285 165.208 424.443 165.317 424.584 165.447C424.829 165.689 424.902 166.003 425.47 166.814Z" fill="#D6694B"/>
<path d="M464.992 203.976C465.15 204.121 465.277 204.297 465.365 204.493C465.454 204.689 465.501 204.901 465.506 205.116C465.51 205.331 465.471 205.544 465.391 205.743C465.311 205.943 465.191 206.124 465.039 206.276C464.887 206.428 464.706 206.548 464.507 206.628C464.307 206.708 464.094 206.747 463.879 206.743C463.664 206.738 463.452 206.69 463.256 206.602C463.06 206.514 462.884 206.387 462.739 206.229C462.942 205.94 463.13 205.64 463.3 205.331C463.386 205.16 463.495 205.002 463.625 204.862C463.867 204.616 464.181 204.543 464.992 203.976Z" fill="#D6694B"/>
<path d="M462.739 175.201C462.884 175.043 463.06 174.916 463.256 174.828C463.452 174.74 463.664 174.692 463.879 174.688C464.094 174.683 464.307 174.722 464.507 174.802C464.706 174.883 464.887 175.002 465.039 175.154C465.191 175.306 465.311 175.487 465.391 175.687C465.471 175.886 465.51 176.1 465.506 176.314C465.501 176.529 465.454 176.741 465.365 176.937C465.277 177.133 465.15 177.309 464.992 177.455C464.703 177.251 464.404 177.064 464.094 176.894C463.923 176.808 463.766 176.698 463.625 176.568C463.379 176.326 463.307 176.012 462.739 175.201Z" fill="#D6694B"/>
<path d="M423.216 177.455C423.058 177.309 422.931 177.133 422.843 176.937C422.755 176.741 422.707 176.529 422.703 176.314C422.698 176.1 422.737 175.886 422.818 175.687C422.898 175.487 423.018 175.306 423.17 175.154C423.321 175.002 423.503 174.883 423.702 174.802C423.901 174.722 424.115 174.683 424.33 174.688C424.545 174.692 424.756 174.74 424.952 174.828C425.148 174.916 425.324 175.043 425.47 175.201C425.266 175.49 425.079 175.79 424.909 176.099C424.823 176.27 424.713 176.428 424.584 176.568C424.341 176.814 424.027 176.887 423.216 177.455Z" fill="#D6694B"/>
<path d="M425.47 206.229C425.324 206.387 425.148 206.514 424.952 206.602C424.756 206.69 424.545 206.738 424.33 206.743C424.115 206.747 423.901 206.708 423.702 206.628C423.503 206.548 423.321 206.428 423.17 206.276C423.018 206.124 422.898 205.943 422.818 205.743C422.737 205.544 422.698 205.331 422.703 205.116C422.707 204.901 422.755 204.689 422.843 204.493C422.931 204.297 423.058 204.121 423.216 203.976C423.505 204.179 423.805 204.366 424.114 204.537C424.285 204.622 424.443 204.732 424.584 204.862C424.829 205.104 424.902 205.418 425.47 206.229Z" fill="#D6694B"/>
<path d="M465.451 251.773H422.758C421.332 251.773 420.177 252.929 420.177 254.354V284.735C420.177 286.161 421.332 287.316 422.758 287.316H465.451C466.876 287.316 468.032 286.161 468.032 284.735V254.354C468.032 252.929 466.876 251.773 465.451 251.773Z" fill="#E19974"/>
<path d="M465.451 291.188H422.758C421.332 291.188 420.177 292.344 420.177 293.769V324.15C420.177 325.576 421.332 326.731 422.758 326.731H465.451C466.876 326.731 468.032 325.576 468.032 324.15V293.769C468.032 292.344 466.876 291.188 465.451 291.188Z" fill="#E19974"/>
<path d="M450.461 146.46H437.748C437.196 146.46 436.748 146.908 436.748 147.46V150.881C436.748 151.433 437.196 151.881 437.748 151.881H450.461C451.013 151.881 451.461 151.433 451.461 150.881V147.46C451.461 146.908 451.013 146.46 450.461 146.46Z" fill="#D6694B"/>
<path d="M450.461 264.705H437.748C437.196 264.705 436.748 265.153 436.748 265.705V269.126C436.748 269.678 437.196 270.126 437.748 270.126H450.461C451.013 270.126 451.461 269.678 451.461 269.126V265.705C451.461 265.153 451.013 264.705 450.461 264.705Z" fill="#D6694B"/>
<path d="M450.461 304.12H437.748C437.196 304.12 436.748 304.568 436.748 305.12V308.54C436.748 309.093 437.196 309.54 437.748 309.54H450.461C451.013 309.54 451.461 309.093 451.461 308.54V305.12C451.461 304.568 451.013 304.12 450.461 304.12Z" fill="#D6694B"/>
<path d="M450.461 185.875H437.748C437.196 185.875 436.748 186.323 436.748 186.875V190.296C436.748 190.848 437.196 191.296 437.748 191.296H450.461C451.013 191.296 451.461 190.848 451.461 190.296V186.875C451.461 186.323 451.013 185.875 450.461 185.875Z" fill="#D6694B"/>
<path d="M464.992 282.805C465.15 282.951 465.277 283.127 465.365 283.323C465.454 283.519 465.501 283.73 465.506 283.945C465.51 284.16 465.471 284.374 465.391 284.573C465.311 284.772 465.191 284.953 465.039 285.105C464.887 285.257 464.706 285.377 464.507 285.457C464.307 285.537 464.094 285.576 463.879 285.572C463.664 285.568 463.452 285.52 463.256 285.432C463.06 285.343 462.884 285.216 462.739 285.058C462.942 284.77 463.13 284.47 463.3 284.161C463.386 283.99 463.495 283.832 463.625 283.692C463.867 283.446 464.181 283.373 464.992 282.805Z" fill="#D6694B"/>
<path d="M462.739 254.031C462.884 253.873 463.06 253.746 463.256 253.658C463.452 253.57 463.664 253.522 463.879 253.517C464.094 253.513 464.307 253.552 464.507 253.632C464.706 253.712 464.887 253.832 465.039 253.984C465.191 254.136 465.311 254.317 465.391 254.517C465.471 254.716 465.51 254.929 465.506 255.144C465.501 255.359 465.454 255.571 465.365 255.767C465.277 255.963 465.15 256.139 464.992 256.284C464.703 256.081 464.404 255.894 464.094 255.723C463.923 255.638 463.765 255.528 463.625 255.398C463.379 255.156 463.307 254.842 462.739 254.031Z" fill="#D6694B"/>
<path d="M423.216 256.284C423.058 256.139 422.931 255.963 422.843 255.767C422.755 255.571 422.707 255.359 422.703 255.144C422.698 254.929 422.737 254.716 422.818 254.517C422.898 254.317 423.018 254.136 423.17 253.984C423.321 253.832 423.503 253.712 423.702 253.632C423.901 253.552 424.115 253.513 424.33 253.517C424.545 253.522 424.756 253.57 424.952 253.658C425.148 253.746 425.324 253.873 425.47 254.031C425.266 254.32 425.079 254.62 424.909 254.929C424.823 255.1 424.713 255.258 424.584 255.398C424.341 255.644 424.027 255.717 423.216 256.284Z" fill="#D6694B"/>
<path d="M425.47 285.058C425.324 285.216 425.148 285.343 424.952 285.432C424.756 285.52 424.545 285.568 424.33 285.572C424.115 285.576 423.902 285.537 423.702 285.457C423.503 285.377 423.322 285.257 423.17 285.105C423.018 284.953 422.898 284.772 422.818 284.573C422.738 284.374 422.699 284.16 422.703 283.945C422.707 283.73 422.755 283.519 422.843 283.323C422.932 283.127 423.059 282.951 423.217 282.805C423.505 283.009 423.805 283.196 424.115 283.366C424.285 283.452 424.443 283.562 424.584 283.692C424.829 283.934 424.902 284.248 425.47 285.058Z" fill="#D6694B"/>
<path d="M464.992 322.22C465.15 322.366 465.277 322.542 465.365 322.738C465.454 322.934 465.501 323.146 465.506 323.36C465.51 323.575 465.471 323.789 465.391 323.988C465.311 324.187 465.191 324.369 465.039 324.521C464.887 324.672 464.706 324.792 464.507 324.872C464.307 324.953 464.094 324.992 463.879 324.987C463.664 324.983 463.452 324.935 463.256 324.847C463.06 324.758 462.884 324.632 462.739 324.474C462.942 324.185 463.13 323.885 463.3 323.576C463.386 323.405 463.495 323.247 463.625 323.107C463.867 322.861 464.181 322.788 464.992 322.22Z" fill="#D6694B"/>
<path d="M462.739 293.446C462.884 293.288 463.06 293.161 463.256 293.073C463.452 292.984 463.664 292.937 463.879 292.932C464.094 292.928 464.307 292.967 464.507 293.047C464.706 293.127 464.887 293.247 465.039 293.399C465.191 293.551 465.311 293.732 465.391 293.931C465.471 294.131 465.51 294.344 465.506 294.559C465.501 294.774 465.454 294.986 465.365 295.182C465.277 295.377 465.15 295.554 464.992 295.699C464.703 295.496 464.404 295.308 464.094 295.138C463.923 295.052 463.766 294.943 463.625 294.813C463.379 294.571 463.307 294.257 462.739 293.446Z" fill="#D6694B"/>
<path d="M423.217 295.699C423.059 295.554 422.932 295.377 422.843 295.182C422.755 294.986 422.707 294.774 422.703 294.559C422.699 294.344 422.738 294.131 422.818 293.931C422.898 293.732 423.018 293.551 423.17 293.399C423.322 293.247 423.503 293.127 423.702 293.047C423.902 292.967 424.115 292.928 424.33 292.932C424.545 292.937 424.756 292.984 424.952 293.073C425.148 293.161 425.324 293.288 425.47 293.446C425.266 293.735 425.079 294.034 424.909 294.344C424.823 294.515 424.714 294.672 424.584 294.813C424.342 295.059 424.028 295.131 423.217 295.699Z" fill="#D6694B"/>
<path d="M425.47 324.474C425.324 324.632 425.148 324.758 424.952 324.847C424.756 324.935 424.545 324.983 424.33 324.987C424.115 324.992 423.901 324.953 423.702 324.872C423.503 324.792 423.321 324.672 423.17 324.521C423.018 324.369 422.898 324.187 422.818 323.988C422.737 323.789 422.698 323.575 422.703 323.36C422.707 323.146 422.755 322.934 422.843 322.738C422.931 322.542 423.058 322.366 423.216 322.22C423.505 322.424 423.805 322.611 424.114 322.781C424.285 322.867 424.443 322.977 424.584 323.107C424.829 323.349 424.902 323.662 425.47 324.474Z" fill="#D6694B"/>
<path d="M432.815 313.454C432.815 313.454 459.072 313.986 463.061 309.55C463.061 309.55 454.463 340.356 460.954 355.471L431.75 352.387C431.75 352.387 435.165 328.528 432.815 313.454Z" fill="#7CA1B1"/>
<path d="M432.884 197.055C432.884 197.055 459.142 197.588 463.131 193.151C463.131 193.151 454.532 223.958 461.023 239.072L431.819 235.988C431.819 235.988 435.235 212.129 432.884 197.055Z" fill="#FFBA55"/>
<path d="M426.455 200.829C426.455 200.829 452.713 201.362 456.702 196.925C456.702 196.925 448.103 227.732 454.594 242.847L425.39 239.763C425.39 239.763 428.805 215.903 426.455 200.829Z" fill="#F65B2B"/>
<path d="M429.739 203.729C429.739 203.729 455.997 204.262 459.986 199.825C459.986 199.825 451.387 230.632 457.879 245.747L428.674 242.663C428.674 242.663 432.09 218.804 429.739 203.729Z" fill="white"/>
<path d="M465.451 330.603H422.758C421.332 330.603 420.177 331.759 420.177 333.184V363.565C420.177 364.99 421.332 366.146 422.758 366.146H465.451C466.876 366.146 468.032 364.99 468.032 363.565V333.184C468.032 331.759 466.876 330.603 465.451 330.603Z" fill="#E19974"/>
<path d="M450.461 343.535H437.748C437.196 343.535 436.748 343.983 436.748 344.535V347.955C436.748 348.508 437.196 348.955 437.748 348.955H450.461C451.013 348.955 451.461 348.508 451.461 347.955V344.535C451.461 343.983 451.013 343.535 450.461 343.535Z" fill="#D6694B"/>
<path d="M464.992 361.635C465.15 361.781 465.277 361.957 465.365 362.153C465.454 362.349 465.501 362.561 465.506 362.775C465.51 362.99 465.471 363.204 465.391 363.403C465.311 363.602 465.191 363.784 465.039 363.935C464.887 364.087 464.706 364.207 464.507 364.287C464.307 364.367 464.094 364.407 463.879 364.402C463.664 364.398 463.452 364.35 463.256 364.262C463.06 364.174 462.884 364.047 462.739 363.889C462.942 363.6 463.13 363.3 463.3 362.99C463.386 362.82 463.495 362.662 463.625 362.522C463.867 362.276 464.181 362.203 464.992 361.635Z" fill="#D6694B"/>
<path d="M462.739 332.861C462.884 332.703 463.06 332.576 463.256 332.487C463.452 332.399 463.664 332.351 463.879 332.347C464.094 332.343 464.307 332.382 464.507 332.462C464.706 332.542 464.887 332.662 465.039 332.814C465.191 332.966 465.311 333.147 465.391 333.346C465.471 333.545 465.51 333.759 465.506 333.974C465.501 334.189 465.454 334.4 465.365 334.596C465.277 334.792 465.15 334.968 464.992 335.114C464.704 334.91 464.404 334.723 464.094 334.553C463.923 334.467 463.765 334.358 463.625 334.228C463.379 333.985 463.307 333.672 462.739 332.861Z" fill="#D6694B"/>
<path d="M423.216 335.114C423.058 334.968 422.931 334.792 422.843 334.596C422.755 334.4 422.707 334.189 422.703 333.974C422.698 333.759 422.737 333.545 422.818 333.346C422.898 333.147 423.018 332.966 423.17 332.814C423.321 332.662 423.503 332.542 423.702 332.462C423.901 332.382 424.115 332.343 424.33 332.347C424.545 332.351 424.756 332.399 424.952 332.487C425.148 332.576 425.324 332.703 425.47 332.861C425.266 333.149 425.079 333.449 424.909 333.759C424.823 333.93 424.713 334.087 424.584 334.228C424.341 334.474 424.027 334.546 423.216 335.114Z" fill="#D6694B"/>
<path d="M425.47 363.889C425.324 364.047 425.148 364.174 424.952 364.262C424.756 364.35 424.545 364.398 424.33 364.402C424.115 364.407 423.902 364.367 423.702 364.287C423.503 364.207 423.322 364.087 423.17 363.935C423.018 363.784 422.898 363.602 422.818 363.403C422.738 363.204 422.699 362.99 422.703 362.775C422.707 362.561 422.755 362.349 422.843 362.153C422.932 361.957 423.059 361.781 423.217 361.635C423.505 361.839 423.805 362.026 424.115 362.196C424.285 362.282 424.443 362.392 424.584 362.522C424.829 362.764 424.902 363.078 425.47 363.889Z" fill="#D6694B"/>
<path d="M465.451 212.358H422.758C421.332 212.358 420.177 213.514 420.177 214.94V245.32C420.177 246.746 421.332 247.901 422.758 247.901H465.451C466.876 247.901 468.032 246.746 468.032 245.32V214.94C468.032 213.514 466.876 212.358 465.451 212.358Z" fill="#E19974"/>
<path d="M450.461 225.29H437.748C437.196 225.29 436.748 225.738 436.748 226.29V229.711C436.748 230.263 437.196 230.711 437.748 230.711H450.461C451.013 230.711 451.461 230.263 451.461 229.711V226.29C451.461 225.738 451.013 225.29 450.461 225.29Z" fill="#D6694B"/>
<path d="M464.992 243.391C465.15 243.536 465.277 243.712 465.365 243.908C465.454 244.104 465.501 244.316 465.506 244.531C465.51 244.746 465.471 244.959 465.391 245.158C465.311 245.358 465.191 245.539 465.039 245.691C464.887 245.843 464.706 245.962 464.507 246.043C464.307 246.123 464.094 246.162 463.879 246.158C463.664 246.153 463.452 246.105 463.256 246.017C463.06 245.929 462.884 245.802 462.739 245.644C462.942 245.355 463.13 245.055 463.3 244.746C463.386 244.575 463.495 244.417 463.625 244.277C463.867 244.031 464.181 243.958 464.992 243.391Z" fill="#D6694B"/>
<path d="M462.739 214.616C462.884 214.458 463.06 214.331 463.256 214.243C463.452 214.155 463.664 214.107 463.879 214.102C464.094 214.098 464.307 214.137 464.507 214.217C464.706 214.297 464.887 214.417 465.039 214.569C465.191 214.721 465.311 214.902 465.391 215.101C465.471 215.301 465.51 215.514 465.506 215.729C465.501 215.944 465.454 216.156 465.365 216.352C465.277 216.548 465.15 216.724 464.992 216.869C464.703 216.666 464.404 216.479 464.094 216.308C463.923 216.223 463.765 216.113 463.625 215.983C463.379 215.741 463.307 215.427 462.739 214.616Z" fill="#D6694B"/>
<path d="M423.217 216.869C423.059 216.724 422.932 216.548 422.843 216.352C422.755 216.156 422.707 215.944 422.703 215.729C422.699 215.514 422.738 215.301 422.818 215.101C422.898 214.902 423.018 214.721 423.17 214.569C423.322 214.417 423.503 214.297 423.702 214.217C423.902 214.137 424.115 214.098 424.33 214.102C424.545 214.107 424.756 214.155 424.952 214.243C425.148 214.331 425.324 214.458 425.47 214.616C425.266 214.905 425.079 215.204 424.909 215.514C424.823 215.685 424.714 215.843 424.584 215.983C424.342 216.229 424.028 216.301 423.217 216.869Z" fill="#D6694B"/>
<path d="M425.47 245.644C425.324 245.802 425.148 245.929 424.952 246.017C424.756 246.105 424.545 246.153 424.33 246.158C424.115 246.162 423.902 246.123 423.702 246.043C423.503 245.962 423.322 245.843 423.17 245.691C423.018 245.539 422.898 245.358 422.818 245.158C422.738 244.959 422.699 244.746 422.703 244.531C422.707 244.316 422.755 244.104 422.843 243.908C422.932 243.712 423.059 243.536 423.217 243.391C423.505 243.594 423.805 243.781 424.115 243.952C424.285 244.037 424.443 244.147 424.584 244.277C424.829 244.519 424.902 244.833 425.47 245.644Z" fill="#D6694B"/>
<path d="M500 369.173H0V371.173H500V369.173Z" fill="#935B50"/>
</svg>
