<svg xmlns="http://www.w3.org/2000/svg" viewBox="0 0 288 288" width="288" height="288" style="width: 100%; height: 100%; transform: translate3d(0px, 0px, 0px);" preserveAspectRatio="xMidYMid slice"><defs><clipPath id="__lottie_element_2"><rect width="288" height="288" x="0" y="0"></rect></clipPath><linearGradient id="__lottie_element_6" spreadMethod="pad" gradientUnits="userSpaceOnUse" x1="62.869998931884766" y1="35.38999938964844" x2="157.05999755859375" y2="170.52999877929688"><stop offset="0%" stop-color="rgb(0,36,54)" stop-opacity="1"></stop><stop offset="59%" stop-color="rgb(0,92,140)" stop-opacity="1"></stop><stop offset="100%" stop-color="rgb(36,130,176)" stop-opacity="1"></stop></linearGradient><radialGradient id="__lottie_element_7" spreadMethod="pad" gradientUnits="userSpaceOnUse" cx="124.75" cy="102.16000366210938" r="55.80000305175781" fx="124.75" fy="102.16000366210938"><stop offset="0%" stop-color="rgb(61,148,191)" stop-opacity="1"></stop><stop offset="100%" stop-color="rgb(61,148,191)" stop-opacity="0"></stop></radialGradient><linearGradient id="__lottie_element_8" spreadMethod="pad" gradientUnits="userSpaceOnUse" x1="160.32000732421875" y1="40.65999984741211" x2="154.97999572753906" y2="67.18000030517578"><stop offset="0%" stop-color="rgb(135,191,217)" stop-opacity="1"></stop><stop offset="1%" stop-color="rgb(138,191,217)" stop-opacity="1"></stop><stop offset="48%" stop-color="rgb(94,166,199)" stop-opacity="1"></stop><stop offset="82%" stop-color="rgb(166,217,240)" stop-opacity="1"></stop><stop offset="100%" stop-color="rgb(161,222,255)" stop-opacity="1"></stop></linearGradient><linearGradient id="__lottie_element_9" spreadMethod="pad" gradientUnits="userSpaceOnUse" x1="68.77999877929688" y1="48.13999938964844" x2="75.55999755859375" y2="48.13999938964844"><stop offset="0%" stop-color="rgb(51,186,255)" stop-opacity="1"></stop><stop offset="16%" stop-color="rgb(56,189,255)" stop-opacity="1"></stop><stop offset="35%" stop-color="rgb(66,191,255)" stop-opacity="1"></stop><stop offset="57%" stop-color="rgb(74,194,255)" stop-opacity="1"></stop><stop offset="79%" stop-color="rgb(38,184,255)" stop-opacity="1"></stop><stop offset="100%" stop-color="rgb(0,171,255)" stop-opacity="1"></stop></linearGradient><linearGradient id="__lottie_element_10" spreadMethod="pad" gradientUnits="userSpaceOnUse" x1="15.180000305175781" y1="82.31999969482422" x2="20.270000457763672" y2="82.31999969482422"><stop offset="0%" stop-color="rgb(51,186,255)" stop-opacity="1"></stop><stop offset="16%" stop-color="rgb(56,189,255)" stop-opacity="1"></stop><stop offset="35%" stop-color="rgb(66,191,255)" stop-opacity="1"></stop><stop offset="57%" stop-color="rgb(74,194,255)" stop-opacity="1"></stop><stop offset="79%" stop-color="rgb(38,184,255)" stop-opacity="1"></stop><stop offset="100%" stop-color="rgb(0,171,255)" stop-opacity="1"></stop></linearGradient><linearGradient id="__lottie_element_11" spreadMethod="pad" gradientUnits="userSpaceOnUse" x1="185.97999572753906" y1="77.9000015258789" x2="83.58000183105469" y2="139.8000030517578"><stop offset="0%" stop-color="rgb(28,181,255)" stop-opacity="1"></stop><stop offset="14%" stop-color="rgb(28,176,250)" stop-opacity="1"></stop><stop offset="27%" stop-color="rgb(28,168,240)" stop-opacity="1"></stop><stop offset="41%" stop-color="rgb(23,153,217)" stop-opacity="1"></stop><stop offset="56%" stop-color="rgb(20,133,189)" stop-opacity="1"></stop><stop offset="70%" stop-color="rgb(15,107,153)" stop-opacity="1"></stop><stop offset="84%" stop-color="rgb(8,74,107)" stop-opacity="1"></stop><stop offset="98%" stop-color="rgb(0,38,56)" stop-opacity="1"></stop><stop offset="100%" stop-color="rgb(0,31,46)" stop-opacity="1"></stop></linearGradient><linearGradient id="__lottie_element_12" spreadMethod="pad" gradientUnits="userSpaceOnUse" x1="175.16000366210938" y1="78.66000366210938" x2="116.51000213623047" y2="114.02999877929688"><stop offset="0%" stop-color="rgb(28,181,255)" stop-opacity="1"></stop><stop offset="14%" stop-color="rgb(28,176,250)" stop-opacity="1"></stop><stop offset="27%" stop-color="rgb(28,168,240)" stop-opacity="1"></stop><stop offset="41%" stop-color="rgb(23,153,217)" stop-opacity="1"></stop><stop offset="56%" stop-color="rgb(20,133,189)" stop-opacity="1"></stop><stop offset="70%" stop-color="rgb(15,107,153)" stop-opacity="1"></stop><stop offset="84%" stop-color="rgb(8,74,107)" stop-opacity="1"></stop><stop offset="98%" stop-color="rgb(0,38,56)" stop-opacity="1"></stop><stop offset="100%" stop-color="rgb(0,31,46)" stop-opacity="1"></stop></linearGradient><linearGradient id="__lottie_element_13" spreadMethod="pad" gradientUnits="userSpaceOnUse" x1="2.8499999046325684" y1="165.08999633789062" x2="57.86000061035156" y2="165.08999633789062"><stop offset="0%" stop-color="rgb(135,191,217)" stop-opacity="1"></stop><stop offset="4%" stop-color="rgb(143,189,212)" stop-opacity="1"></stop><stop offset="50%" stop-color="rgb(148,186,204)" stop-opacity="1"></stop><stop offset="83%" stop-color="rgb(110,196,242)" stop-opacity="1"></stop><stop offset="100%" stop-color="rgb(94,201,255)" stop-opacity="1"></stop></linearGradient><linearGradient id="__lottie_element_14" spreadMethod="pad" gradientUnits="userSpaceOnUse" x1="15.430000305175781" y1="162.92999267578125" x2="56.77000045776367" y2="162.92999267578125"><stop offset="0%" stop-color="rgb(135,191,217)" stop-opacity="1"></stop><stop offset="4%" stop-color="rgb(143,189,212)" stop-opacity="1"></stop><stop offset="50%" stop-color="rgb(148,194,217)" stop-opacity="1"></stop><stop offset="83%" stop-color="rgb(110,196,242)" stop-opacity="1"></stop><stop offset="100%" stop-color="rgb(94,201,255)" stop-opacity="1"></stop></linearGradient><linearGradient id="__lottie_element_15" spreadMethod="pad" gradientUnits="userSpaceOnUse" x1="98.69000244140625" y1="149.52999877929688" x2="49.209999084472656" y2="85.06999969482422"><stop offset="0%" stop-color="rgb(161,224,255)" stop-opacity="1"></stop><stop offset="49%" stop-color="rgb(255,255,255)" stop-opacity="1"></stop></linearGradient><linearGradient id="__lottie_element_16" spreadMethod="pad" gradientUnits="userSpaceOnUse" x1="128.9600067138672" y1="122.68000030517578" x2="119.41999816894531" y2="107.11000061035156"><stop offset="0%" stop-color="rgb(0,125,186)" stop-opacity="1"></stop><stop offset="74%" stop-color="rgb(0,171,255)" stop-opacity="1"></stop></linearGradient><linearGradient id="__lottie_element_17" spreadMethod="pad" gradientUnits="userSpaceOnUse" x1="60.630001068115234" y1="165.6699981689453" x2="92.19999694824219" y2="165.6699981689453"><stop offset="0%" stop-color="rgb(0,125,186)" stop-opacity="1"></stop><stop offset="74%" stop-color="rgb(0,171,255)" stop-opacity="1"></stop></linearGradient><linearGradient id="__lottie_element_18" spreadMethod="pad" gradientUnits="userSpaceOnUse" x1="67.80999755859375" y1="135.5800018310547" x2="48.880001068115234" y2="128.1300048828125"><stop offset="0%" stop-color="rgb(0,125,186)" stop-opacity="1"></stop><stop offset="74%" stop-color="rgb(0,171,255)" stop-opacity="1"></stop></linearGradient><linearGradient id="__lottie_element_19" spreadMethod="pad" gradientUnits="userSpaceOnUse" x1="64.80000305175781" y1="163.36000061035156" x2="51.77000045776367" y2="143.5800018310547"><stop offset="0%" stop-color="rgb(0,36,54)" stop-opacity="1"></stop><stop offset="44%" stop-color="rgb(0,92,140)" stop-opacity="1"></stop><stop offset="100%" stop-color="rgb(36,130,176)" stop-opacity="1"></stop></linearGradient><linearGradient id="__lottie_element_20" spreadMethod="pad" gradientUnits="userSpaceOnUse" x1="49.4900016784668" y1="147.1300048828125" x2="58.79999923706055" y2="163.4199981689453"><stop offset="0%" stop-color="rgb(51,186,255)" stop-opacity="1"></stop><stop offset="16%" stop-color="rgb(56,189,255)" stop-opacity="1"></stop><stop offset="35%" stop-color="rgb(66,191,255)" stop-opacity="1"></stop><stop offset="57%" stop-color="rgb(74,194,255)" stop-opacity="1"></stop><stop offset="79%" stop-color="rgb(38,184,255)" stop-opacity="1"></stop><stop offset="100%" stop-color="rgb(0,171,255)" stop-opacity="1"></stop></linearGradient><linearGradient id="__lottie_element_21" spreadMethod="pad" gradientUnits="userSpaceOnUse" x1="83.54000091552734" y1="134.27999877929688" x2="43.04999923706055" y2="155.9199981689453"><stop offset="0%" stop-color="rgb(51,186,255)" stop-opacity="1"></stop><stop offset="13%" stop-color="rgb(66,191,255)" stop-opacity="1"></stop><stop offset="53%" stop-color="rgb(46,186,255)" stop-opacity="1"></stop><stop offset="83%" stop-color="rgb(13,173,255)" stop-opacity="1"></stop><stop offset="100%" stop-color="rgb(0,171,255)" stop-opacity="1"></stop></linearGradient><linearGradient id="__lottie_element_22" spreadMethod="pad" gradientUnits="userSpaceOnUse" x1="41.93000030517578" y1="147.52000427246094" x2="81.11000061035156" y2="147.52000427246094"><stop offset="0%" stop-color="rgb(0,125,186)" stop-opacity="1"></stop><stop offset="74%" stop-color="rgb(0,171,255)" stop-opacity="1"></stop></linearGradient><linearGradient id="__lottie_element_23" spreadMethod="pad" gradientUnits="userSpaceOnUse" x1="89.4800033569336" y1="77.4000015258789" x2="113.72000122070312" y2="77.4000015258789"><stop offset="0%" stop-color="rgb(51,186,255)" stop-opacity="1"></stop><stop offset="16%" stop-color="rgb(56,189,255)" stop-opacity="1"></stop><stop offset="35%" stop-color="rgb(66,191,255)" stop-opacity="1"></stop><stop offset="57%" stop-color="rgb(74,194,255)" stop-opacity="1"></stop><stop offset="79%" stop-color="rgb(38,184,255)" stop-opacity="1"></stop><stop offset="100%" stop-color="rgb(0,171,255)" stop-opacity="1"></stop></linearGradient><linearGradient id="__lottie_element_24" spreadMethod="pad" gradientUnits="userSpaceOnUse" x1="86.02999877929688" y1="116.12999725341797" x2="98.12999725341797" y2="76.72000122070312"><stop offset="0%" stop-color="rgb(51,186,255)" stop-opacity="1"></stop><stop offset="11%" stop-color="rgb(64,191,255)" stop-opacity="1"></stop><stop offset="52%" stop-color="rgb(46,186,255)" stop-opacity="1"></stop><stop offset="83%" stop-color="rgb(13,173,255)" stop-opacity="1"></stop><stop offset="100%" stop-color="rgb(0,171,255)" stop-opacity="1"></stop></linearGradient><linearGradient id="__lottie_element_25" spreadMethod="pad" gradientUnits="userSpaceOnUse" x1="89.63999938964844" y1="96.06999969482422" x2="97.05999755859375" y2="96.06999969482422"><stop offset="0%" stop-color="rgb(0,125,186)" stop-opacity="1"></stop><stop offset="100%" stop-color="rgb(0,92,140)" stop-opacity="1"></stop><stop offset="100%" stop-color="rgb(0,0,0)" stop-opacity="1"></stop></linearGradient><linearGradient id="__lottie_element_26" spreadMethod="pad" gradientUnits="userSpaceOnUse" x1="88.36000061035156" y1="80.54000091552734" x2="95.44999694824219" y2="80.54000091552734"><stop offset="0%" stop-color="rgb(51,186,255)" stop-opacity="1"></stop><stop offset="16%" stop-color="rgb(56,189,255)" stop-opacity="1"></stop><stop offset="35%" stop-color="rgb(66,191,255)" stop-opacity="1"></stop><stop offset="57%" stop-color="rgb(74,194,255)" stop-opacity="1"></stop><stop offset="79%" stop-color="rgb(38,184,255)" stop-opacity="1"></stop><stop offset="100%" stop-color="rgb(0,171,255)" stop-opacity="1"></stop></linearGradient><linearGradient id="__lottie_element_27" spreadMethod="pad" gradientUnits="userSpaceOnUse" x1="89.0999984741211" y1="103.19999694824219" x2="96.08000183105469" y2="103.19999694824219"><stop offset="0%" stop-color="rgb(0,125,186)" stop-opacity="1"></stop><stop offset="100%" stop-color="rgb(0,92,140)" stop-opacity="1"></stop><stop offset="100%" stop-color="rgb(0,0,0)" stop-opacity="1"></stop></linearGradient><linearGradient id="__lottie_element_28" spreadMethod="pad" gradientUnits="userSpaceOnUse" x1="75.91000366210938" y1="136.3800048828125" x2="84.5999984741211" y2="136.3800048828125"><stop offset="0%" stop-color="rgb(0,36,54)" stop-opacity="1"></stop><stop offset="59%" stop-color="rgb(0,92,140)" stop-opacity="1"></stop><stop offset="100%" stop-color="rgb(36,130,176)" stop-opacity="1"></stop></linearGradient><linearGradient id="__lottie_element_29" spreadMethod="pad" gradientUnits="userSpaceOnUse" x1="92.9000015258789" y1="79.51000213623047" x2="102.30999755859375" y2="79.51000213623047"><stop offset="0%" stop-color="rgb(161,224,255)" stop-opacity="1"></stop><stop offset="49%" stop-color="rgb(255,255,255)" stop-opacity="1"></stop></linearGradient><linearGradient id="__lottie_element_30" spreadMethod="pad" gradientUnits="userSpaceOnUse" x1="89.63999938964844" y1="96.05999755859375" x2="114.06999969482422" y2="96.05999755859375"><stop offset="0%" stop-color="rgb(51,186,255)" stop-opacity="1"></stop><stop offset="16%" stop-color="rgb(56,189,255)" stop-opacity="1"></stop><stop offset="35%" stop-color="rgb(66,191,255)" stop-opacity="1"></stop><stop offset="57%" stop-color="rgb(74,194,255)" stop-opacity="1"></stop><stop offset="79%" stop-color="rgb(38,184,255)" stop-opacity="1"></stop><stop offset="100%" stop-color="rgb(0,171,255)" stop-opacity="1"></stop></linearGradient><linearGradient id="__lottie_element_31" spreadMethod="pad" gradientUnits="userSpaceOnUse" x1="114.58000183105469" y1="106.37000274658203" x2="123.95999908447266" y2="106.37000274658203"><stop offset="0%" stop-color="rgb(161,224,255)" stop-opacity="1"></stop><stop offset="49%" stop-color="rgb(255,255,255)" stop-opacity="1"></stop></linearGradient><linearGradient id="__lottie_element_32" spreadMethod="pad" gradientUnits="userSpaceOnUse" x1="113.61000061035156" y1="68.58000183105469" x2="121.62999725341797" y2="68.58000183105469"><stop offset="0%" stop-color="rgb(161,224,255)" stop-opacity="1"></stop><stop offset="49%" stop-color="rgb(255,255,255)" stop-opacity="1"></stop></linearGradient><linearGradient id="__lottie_element_33" spreadMethod="pad" gradientUnits="userSpaceOnUse" x1="167.75" y1="48.45000076293945" x2="202.85000610351562" y2="48.45000076293945"><stop offset="0%" stop-color="rgb(161,224,255)" stop-opacity="1"></stop><stop offset="9%" stop-color="rgb(171,227,255)" stop-opacity="1"></stop><stop offset="50%" stop-color="rgb(217,242,255)" stop-opacity="1"></stop><stop offset="82%" stop-color="rgb(245,252,255)" stop-opacity="1"></stop><stop offset="100%" stop-color="rgb(255,255,255)" stop-opacity="1"></stop></linearGradient><linearGradient id="__lottie_element_34" spreadMethod="pad" gradientUnits="userSpaceOnUse" x1="123.68000030517578" y1="55.2599983215332" x2="148.89999389648438" y2="55.2599983215332"><stop offset="0%" stop-color="rgb(161,224,255)" stop-opacity="1"></stop><stop offset="9%" stop-color="rgb(171,227,255)" stop-opacity="1"></stop><stop offset="50%" stop-color="rgb(217,242,255)" stop-opacity="1"></stop><stop offset="82%" stop-color="rgb(245,252,255)" stop-opacity="1"></stop><stop offset="100%" stop-color="rgb(255,255,255)" stop-opacity="1"></stop></linearGradient></defs><g clip-path="url(#__lottie_element_2)"><g style="display: block;" transform="matrix(1.059999942779541,0,0,1.059999942779541,33.94001770019531,43.94001770019531)" opacity="1"><g opacity="1" transform="matrix(1,0,0,1,0,0)"><g opacity="1" transform="matrix(1,0,0,1,0,0)"><path fill="url(#__lottie_element_6)" fill-opacity="1" d=" M199.6300048828125,123.44999694824219 C156.22000122070312,161.2100067138672 187.44000244140625,190.52999877929688 84.0999984741211,182.83999633789062 C35.720001220703125,179.22999572753906 11.75,142.4600067138672 6.199999809265137,108.86000061035156 C-0.6800000071525574,67.19999694824219 25.649999618530273,37.630001068115234 98.11000061035156,37.630001068115234 C130.8000030517578,37.630001068115234 160.2899932861328,27.770000457763672 180.8800048828125,41.04999923706055 C209.5800018310547,59.56999969482422 220.99000549316406,104.87999725341797 199.6300048828125,123.44999694824219 C199.6300048828125,123.44999694824219 199.6300048828125,123.44999694824219 199.6300048828125,123.44999694824219z"></path></g><g opacity="1" transform="matrix(1,0,0,1,0,0)"><path fill="url(#__lottie_element_7)" fill-opacity="1" d=" M68.95999908447266,46.36000061035156 C68.95999908447266,46.36000061035156 180.5500030517578,46.36000061035156 180.5500030517578,46.36000061035156 C180.5500030517578,46.36000061035156 180.5500030517578,157.9499969482422 180.5500030517578,157.9499969482422 C180.5500030517578,157.9499969482422 68.95999908447266,157.9499969482422 68.95999908447266,157.9499969482422 C68.95999908447266,157.9499969482422 68.95999908447266,46.36000061035156 68.95999908447266,46.36000061035156z"></path></g><g opacity="1" transform="matrix(1,0,0,1,0,0)"><path fill="rgb(178,229,255)" fill-opacity="1" d=" M188.3800048828125,74.6500015258789 C188.3800048828125,76.70999908447266 185.3000030517578,76.70999908447266 185.3000030517578,74.6500015258789 C185.3000030517578,72.5999984741211 188.3800048828125,72.5999984741211 188.3800048828125,74.6500015258789"></path></g><g opacity="1" transform="matrix(1,0,0,1,0,0)"><path fill="rgb(178,229,255)" fill-opacity="1" d=" M49.97999954223633,63.54999923706055 C49.97999954223633,65.61000061035156 46.88999938964844,65.61000061035156 46.88999938964844,63.54999923706055 C46.88999938964844,61.5 49.97999954223633,61.5 49.97999954223633,63.54999923706055"></path></g><g opacity="1" transform="matrix(1,0,0,1,0,0)"><path fill="url(#__lottie_element_8)" fill-opacity="1" d=" M148.17999267578125,62.880001068115234 C153.4499969482422,68.16999816894531 162,68.19999694824219 167.3000030517578,62.93000030517578 C172.58999633789062,57.65999984741211 172.6199951171875,49.099998474121094 167.35000610351562,43.79999923706055 C162.0800018310547,38.5099983215332 153.52000427246094,38.4900016784668 148.22000122070312,43.7599983215332 C142.92999267578125,49.029998779296875 142.91000366210938,57.59000015258789 148.17999267578125,62.880001068115234 C148.17999267578125,62.880001068115234 148.17999267578125,62.880001068115234 148.17999267578125,62.880001068115234z"></path></g><g opacity="1" transform="matrix(1,0,0,1,0,0)"><path fill="url(#__lottie_element_9)" fill-opacity="1" d=" M75.55999755859375,48.13999938964844 C75.55999755859375,52.65999984741211 68.77999877929688,52.65999984741211 68.77999877929688,48.13999938964844 C68.77999877929688,43.619998931884766 75.55999755859375,43.619998931884766 75.55999755859375,48.13999938964844"></path></g><g opacity="1" transform="matrix(1,0,0,1,0,0)"><path fill="url(#__lottie_element_10)" fill-opacity="1" d=" M20.270000457763672,82.31999969482422 C20.270000457763672,85.70999908447266 15.180000305175781,85.70999908447266 15.180000305175781,82.31999969482422 C15.180000305175781,78.93000030517578 20.270000457763672,78.93000030517578 20.270000457763672,82.31999969482422"></path></g><g opacity="1" transform="matrix(1,0,0,1,0,0)"><path fill="rgb(17,122,173)" fill-opacity="1" d=" M117.79000091552734,49.9900016784668 C117.79000091552734,52.040000915527344 114.70999908447266,52.040000915527344 114.70999908447266,49.9900016784668 C114.70999908447266,47.939998626708984 117.79000091552734,47.939998626708984 117.79000091552734,49.9900016784668"></path></g><g opacity="1" transform="matrix(1,0,0,1,0,0)"><path fill="rgb(255,255,255)" fill-opacity="1" d=" M93.44000244140625,49.119998931884766 C93.44000244140625,49.119998931884766 93.7699966430664,49.790000915527344 93.7699966430664,49.790000915527344 C93.7699966430664,49.790000915527344 94.48999786376953,49.88999938964844 94.48999786376953,49.88999938964844 C94.48999786376953,49.88999938964844 93.95999908447266,50.400001525878906 93.95999908447266,50.400001525878906 C93.95999908447266,50.400001525878906 94.08999633789062,51.119998931884766 94.08999633789062,51.119998931884766 C94.08999633789062,51.119998931884766 93.44000244140625,50.790000915527344 93.44000244140625,50.790000915527344 C93.44000244140625,50.790000915527344 92.79000091552734,51.119998931884766 92.79000091552734,51.119998931884766 C92.79000091552734,51.119998931884766 92.91000366210938,50.400001525878906 92.91000366210938,50.400001525878906 C92.91000366210938,50.400001525878906 92.38999938964844,49.88999938964844 92.38999938964844,49.88999938964844 C92.38999938964844,49.88999938964844 93.12000274658203,49.790000915527344 93.12000274658203,49.790000915527344 C93.12000274658203,49.790000915527344 93.44000244140625,49.119998931884766 93.44000244140625,49.119998931884766z"></path></g><g opacity="1" transform="matrix(1,0,0,1,0,0)"><path fill="rgb(255,255,255)" fill-opacity="0.4" d=" M27.899999618530273,65.87000274658203 C27.899999618530273,65.87000274658203 28.229999542236328,66.52999877929688 28.229999542236328,66.52999877929688 C28.229999542236328,66.52999877929688 28.950000762939453,66.62999725341797 28.950000762939453,66.62999725341797 C28.950000762939453,66.62999725341797 28.43000030517578,67.13999938964844 28.43000030517578,67.13999938964844 C28.43000030517578,67.13999938964844 28.549999237060547,67.87000274658203 28.549999237060547,67.87000274658203 C28.549999237060547,67.87000274658203 27.899999618530273,67.52999877929688 27.899999618530273,67.52999877929688 C27.899999618530273,67.52999877929688 27.25,67.87000274658203 27.25,67.87000274658203 C27.25,67.87000274658203 27.3799991607666,67.13999938964844 27.3799991607666,67.13999938964844 C27.3799991607666,67.13999938964844 26.850000381469727,66.62999725341797 26.850000381469727,66.62999725341797 C26.850000381469727,66.62999725341797 27.579999923706055,66.52999877929688 27.579999923706055,66.52999877929688 C27.579999923706055,66.52999877929688 27.899999618530273,65.87000274658203 27.899999618530273,65.87000274658203z"></path></g><g opacity="1" transform="matrix(1,0,0,1,0,0)"><path fill="rgb(255,255,255)" fill-opacity="1" d=" M16.34000015258789,105.18000030517578 C16.34000015258789,105.18000030517578 16.65999984741211,105.83999633789062 16.65999984741211,105.83999633789062 C16.65999984741211,105.83999633789062 17.389999389648438,105.94000244140625 17.389999389648438,105.94000244140625 C17.389999389648438,105.94000244140625 16.8700008392334,106.44999694824219 16.8700008392334,106.44999694824219 C16.8700008392334,106.44999694824219 16.989999771118164,107.16999816894531 16.989999771118164,107.16999816894531 C16.989999771118164,107.16999816894531 16.34000015258789,106.83000183105469 16.34000015258789,106.83000183105469 C16.34000015258789,106.83000183105469 15.6899995803833,107.16999816894531 15.6899995803833,107.16999816894531 C15.6899995803833,107.16999816894531 15.819999694824219,106.44999694824219 15.819999694824219,106.44999694824219 C15.819999694824219,106.44999694824219 15.289999961853027,105.94000244140625 15.289999961853027,105.94000244140625 C15.289999961853027,105.94000244140625 16.020000457763672,105.83999633789062 16.020000457763672,105.83999633789062 C16.020000457763672,105.83999633789062 16.34000015258789,105.18000030517578 16.34000015258789,105.18000030517578z"></path></g><g opacity="1" transform="matrix(1,0,0,1,0,0)"><path fill="rgb(255,255,255)" fill-opacity="1" d=" M201.1199951171875,91.88999938964844 C201.1199951171875,91.88999938964844 201.4499969482422,92.55000305175781 201.4499969482422,92.55000305175781 C201.4499969482422,92.55000305175781 202.17999267578125,92.6500015258789 202.17999267578125,92.6500015258789 C202.17999267578125,92.6500015258789 201.64999389648438,93.16000366210938 201.64999389648438,93.16000366210938 C201.64999389648438,93.16000366210938 201.77000427246094,93.87999725341797 201.77000427246094,93.87999725341797 C201.77000427246094,93.87999725341797 201.1199951171875,93.54000091552734 201.1199951171875,93.54000091552734 C201.1199951171875,93.54000091552734 200.47999572753906,93.87999725341797 200.47999572753906,93.87999725341797 C200.47999572753906,93.87999725341797 200.60000610351562,93.16000366210938 200.60000610351562,93.16000366210938 C200.60000610351562,93.16000366210938 200.07000732421875,92.6500015258789 200.07000732421875,92.6500015258789 C200.07000732421875,92.6500015258789 200.8000030517578,92.55000305175781 200.8000030517578,92.55000305175781 C200.8000030517578,92.55000305175781 201.1199951171875,91.88999938964844 201.1199951171875,91.88999938964844z"></path></g><g opacity="1" transform="matrix(1,0,0,1,0,0)"><path fill="rgb(255,255,255)" fill-opacity="1" d=" M190.94000244140625,56.72999954223633 C190.94000244140625,56.72999954223633 191.27000427246094,57.38999938964844 191.27000427246094,57.38999938964844 C191.27000427246094,57.38999938964844 191.99000549316406,57.4900016784668 191.99000549316406,57.4900016784668 C191.99000549316406,57.4900016784668 191.47000122070312,58 191.47000122070312,58 C191.47000122070312,58 191.58999633789062,58.72999954223633 191.58999633789062,58.72999954223633 C191.58999633789062,58.72999954223633 190.94000244140625,58.38999938964844 190.94000244140625,58.38999938964844 C190.94000244140625,58.38999938964844 190.2899932861328,58.72999954223633 190.2899932861328,58.72999954223633 C190.2899932861328,58.72999954223633 190.4199981689453,58 190.4199981689453,58 C190.4199981689453,58 189.88999938964844,57.4900016784668 189.88999938964844,57.4900016784668 C189.88999938964844,57.4900016784668 190.6199951171875,57.38999938964844 190.6199951171875,57.38999938964844 C190.6199951171875,57.38999938964844 190.94000244140625,56.72999954223633 190.94000244140625,56.72999954223633z"></path></g><g opacity="1" transform="matrix(1,0,0,1,0,0)"><path fill="url(#__lottie_element_11)" fill-opacity="1" d=" M84.36000061035156,126.08000183105469 C84.36000061035156,126.08000183105469 171.75,82.08999633789062 171.75,82.08999633789062 C171.75,82.08999633789062 94.4000015258789,146.50999450683594 94.4000015258789,146.50999450683594"></path></g><g opacity="1" transform="matrix(1,0,0,1,0,0)"><path fill="url(#__lottie_element_12)" fill-opacity="1" d=" M131.83999633789062,108.12000274658203 C131.83999633789062,108.12000274658203 171.75,82.08999633789062 171.75,82.08999633789062 C171.75,82.08999633789062 123.62000274658203,106.41000366210938 123.62000274658203,106.41000366210938 C123.62000274658203,106.41000366210938 131.83999633789062,108.12000274658203 131.83999633789062,108.12000274658203z"></path></g><g opacity="1" transform="matrix(1,0,0,1,0,0)"><path fill="url(#__lottie_element_13)" fill-opacity="1" d=" M49.52000045776367,172.77999877929688 C45.459999084472656,175.8000030517578 35.849998474121094,178.55999755859375 35.849998474121094,178.55999755859375 C35.849998474121094,178.55999755859375 36.619998931884766,178.1199951171875 37.880001068115234,177.5 C39.13999938964844,176.8800048828125 40.189998626708984,175.5500030517578 40.189998626708984,175.5500030517578 C40.189998626708984,175.5500030517578 37.61000061035156,177.1300048828125 34.02000045776367,178.33999633789062 C30.43000030517578,179.5500030517578 25.639999389648438,180.42999267578125 25.639999389648438,180.42999267578125 C25.639999389648438,180.42999267578125 26.610000610351562,179.9600067138672 28.31999969482422,178.83999633789062 C30.030000686645508,177.72000122070312 32.97999954223633,175.77000427246094 32.97999954223633,175.77000427246094 C32.97999954223633,175.77000427246094 25.639999389648438,179.8000030517578 14.420000076293945,180.57000732421875 C10.029999732971191,180.8699951171875 2.8499999046325684,182.44000244140625 2.8499999046325684,182.44000244140625 C2.8499999046325684,182.44000244140625 6.320000171661377,179.4499969482422 7.96999979019165,177.72000122070312 C10.59000015258789,174.97999572753906 13.640000343322754,170.5800018310547 16.030000686645508,167.8000030517578 C19.59000015258789,163.66000366210938 26.889999389648438,156.3800048828125 26.889999389648438,156.3800048828125 C26.889999389648438,156.3800048828125 26.889999389648438,156.3800048828125 25.420000076293945,157.0399932861328 C23.950000762939453,157.6999969482422 22.18000030517578,158.39999389648438 22.18000030517578,158.39999389648438 C22.18000030517578,158.39999389648438 29.530000686645508,151.39999389648438 34.9900016784668,149.2899932861328 C41.150001525878906,146.91000366210938 49.369998931884766,148 49.369998931884766,148 C49.369998931884766,148 50.099998474121094,151.50999450683594 52.790000915527344,156.05999755859375 C55.56999969482422,160.75999450683594 57.849998474121094,162.67999267578125 57.849998474121094,162.67999267578125 C57.849998474121094,162.67999267578125 55.7400016784668,168.16000366210938 49.52000045776367,172.77999877929688 C49.52000045776367,172.77999877929688 49.52000045776367,172.77999877929688 49.52000045776367,172.77999877929688z"></path></g><g opacity="1" transform="matrix(1,0,0,1,0,0)"><path fill="url(#__lottie_element_14)" fill-opacity="1" d=" M50.5,168.7100067138672 C47.45000076293945,170.97999572753906 40.22999954223633,173.05999755859375 40.22999954223633,173.05999755859375 C40.22999954223633,173.05999755859375 40.79999923706055,172.72999572753906 41.75,172.25999450683594 C42.70000076293945,171.7899932861328 43.4900016784668,170.8000030517578 43.4900016784668,170.8000030517578 C43.4900016784668,170.8000030517578 41.54999923706055,171.97999572753906 38.849998474121094,172.88999938964844 C36.150001525878906,173.8000030517578 32.54999923706055,174.4600067138672 32.54999923706055,174.4600067138672 C32.54999923706055,174.4600067138672 33.279998779296875,174.11000061035156 34.56999969482422,173.27000427246094 C35.86000061035156,172.42999267578125 38.060001373291016,170.9600067138672 38.060001373291016,170.9600067138672 C38.060001373291016,170.9600067138672 32.540000915527344,173.99000549316406 24.110000610351562,174.57000732421875 C20.809999465942383,174.8000030517578 15.420000076293945,175.97000122070312 15.420000076293945,175.97000122070312 C15.420000076293945,175.97000122070312 18.030000686645508,173.72999572753906 19.270000457763672,172.42999267578125 C21.239999771118164,170.3699951171875 23.520000457763672,167.05999755859375 25.31999969482422,164.97000122070312 C28,161.86000061035156 33.4900016784668,156.3800048828125 33.4900016784668,156.3800048828125 C33.4900016784668,156.3800048828125 33.4900016784668,156.38999938964844 32.380001068115234,156.8800048828125 C31.270000457763672,157.3699951171875 29.940000534057617,157.89999389648438 29.940000534057617,157.89999389648438 C29.940000534057617,157.89999389648438 35.459999084472656,152.63999938964844 39.56999969482422,151.0500030517578 C44.20000076293945,149.25999450683594 50.38999938964844,150.0800018310547 50.38999938964844,150.0800018310547 C50.38999938964844,150.0800018310547 50.93000030517578,152.72000122070312 52.95000076293945,156.13999938964844 C55.040000915527344,159.67999267578125 56.7599983215332,161.11000061035156 56.7599983215332,161.11000061035156 C56.7599983215332,161.11000061035156 55.16999816894531,165.24000549316406 50.5,168.7100067138672 C50.5,168.7100067138672 50.5,168.7100067138672 50.5,168.7100067138672z"></path></g><g opacity="1" transform="matrix(1,0,0,1,0,0)"><path fill="url(#__lottie_element_15)" fill-opacity="1" d=" M55.119998931884766,140.07000732421875 C55.58000183105469,139.3699951171875 68.54000091552734,125.48999786376953 84.29000091552734,117.33999633789062 C100.04000091552734,109.19999694824219 107.16999816894531,108.5 107.16999816894531,108.5 C107.16999816894531,108.5 111.12999725341797,111.30000305175781 115.08000183105469,118.58999633789062 C119.04000091552734,125.87999725341797 120.19999694824219,128.82000732421875 119.88999938964844,129.75 C119.58000183105469,130.67999267578125 104.22000122070312,147.2899932861328 87.37999725341797,154.19000244140625 C70.55000305175781,161.08999633789062 68.61000061035156,161.47999572753906 68.61000061035156,161.47999572753906 C68.61000061035156,161.47999572753906 66.5199966430664,161.25 64.11000061035156,157.60000610351562 C61.709999084472656,153.9600067138672 56.119998931884766,144.8800048828125 55.5,142.86000061035156 C54.880001068115234,140.85000610351562 55.119998931884766,140.07000732421875 55.119998931884766,140.07000732421875 C55.119998931884766,140.07000732421875 55.119998931884766,140.07000732421875 55.119998931884766,140.07000732421875z"></path></g><g opacity="1" transform="matrix(1,0,0,1,0,0)"><path fill="url(#__lottie_element_16)" fill-opacity="1" d=" M132.61000061035156,107.6500015258789 C131.67999267578125,106.33000183105469 130.42999267578125,106.0999984741211 122.91000366210938,106.18000030517578 C115.38999938964844,106.26000213623047 107.55000305175781,108.73999786376953 107.55000305175781,108.73999786376953 C107.55000305175781,108.73999786376953 107.63999938964844,108.87999725341797 107.63999938964844,108.87999725341797 C108.80999755859375,109.86000061035156 111.94000244140625,112.80999755859375 115.08000183105469,118.58999633789062 C118.05999755859375,124.08000183105469 119.44999694824219,127.0999984741211 119.83000183105469,128.66000366210938 C119.83000183105469,128.66000366210938 120.12000274658203,129.13999938964844 120.12000274658203,129.13999938964844 C120.12000274658203,129.13999938964844 120.12000274658203,129.13999938964844 121.44000244140625,127.9000015258789 C122.76000213623047,126.66000366210938 128.19000244140625,118.66999816894531 130.2100067138672,114.94999694824219 C132.22999572753906,111.2300033569336 133.5399932861328,108.97000122070312 132.61000061035156,107.6500015258789 C132.61000061035156,107.6500015258789 132.61000061035156,107.6500015258789 132.61000061035156,107.6500015258789z"></path></g><g opacity="1" transform="matrix(1,0,0,1,0,0)"><path fill="url(#__lottie_element_17)" fill-opacity="1" d=" M69.23999786376953,161.25 C69.23999786376953,161.25 60.630001068115234,179.41000366210938 60.630001068115234,179.41000366210938 C60.630001068115234,179.41000366210938 69.08000183105469,175.9199981689453 78.93000030517578,169.39999389648438 C88.77999877929688,162.8800048828125 89.55999755859375,161.8800048828125 89.55999755859375,161.8800048828125 C89.55999755859375,161.8800048828125 92.19999694824219,151.9499969482422 92.19999694824219,151.9499969482422 C92.19999694824219,151.9499969482422 76.37999725341797,159.22999572753906 69.23999786376953,161.25 C69.23999786376953,161.25 69.23999786376953,161.25 69.23999786376953,161.25z"></path></g><g opacity="1" transform="matrix(1,0,0,1,0,0)"><path fill="url(#__lottie_element_18)" fill-opacity="1" d=" M74.43000030517578,123.4000015258789 C74.43000030517578,123.4000015258789 65.36000061035156,121.54000091552734 65.36000061035156,121.54000091552734 C65.36000061035156,121.54000091552734 57.369998931884766,124.87999725341797 50.70000076293945,129.22000122070312 C44.029998779296875,133.55999755859375 37.5099983215332,138.4499969482422 37.5099983215332,138.4499969482422 C37.5099983215332,138.4499969482422 55.7400016784668,139.3800048828125 55.7400016784668,139.3800048828125 C55.7400016784668,139.3800048828125 68.61000061035156,126.19000244140625 74.43000030517578,123.4000015258789 C74.43000030517578,123.4000015258789 74.43000030517578,123.4000015258789 74.43000030517578,123.4000015258789z"></path></g><g opacity="1" transform="matrix(1,0,0,1,0,0)"><path fill="url(#__lottie_element_19)" fill-opacity="1" d=" M64.12000274658203,157.61000061035156 C61.709999084472656,153.97000122070312 56.130001068115234,144.88999938964844 55.5099983215332,142.8699951171875 C55.34000015258789,142.32000732421875 55.22999954223633,141.8699951171875 55.16999816894531,141.49000549316406 C55.16999816894531,141.49000549316406 50.470001220703125,144.9600067138672 50.470001220703125,144.9600067138672 C50.470001220703125,144.9600067138672 50.15999984741211,148.3699951171875 54.349998474121094,154.72999572753906 C58.540000915527344,161.08999633789062 60.70000076293945,163.25999450683594 61.709999084472656,163.17999267578125 C62.720001220703125,163.10000610351562 67.06999969482422,160.86000061035156 67.06999969482422,160.86000061035156 C67.06999969482422,160.86000061035156 66.9800033569336,160.7100067138672 66.9800033569336,160.7100067138672 C66.19000244140625,160.1699981689453 65.19000244140625,159.22999572753906 64.12000274658203,157.61000061035156 C64.12000274658203,157.61000061035156 64.12000274658203,157.61000061035156 64.12000274658203,157.61000061035156z"></path></g><g opacity="1" transform="matrix(1,0,0,1,0,0)"><path fill="url(#__lottie_element_20)" fill-opacity="1" d=" M50.779998779296875,146.97999572753906 C50.779998779296875,146.97999572753906 49.380001068115234,147.99000549316406 49.380001068115234,147.99000549316406 C49.380001068115234,147.99000549316406 49.22999954223633,150.16000366210938 52.40999984741211,155.42999267578125 C55.59000015258789,160.7100067138672 57.529998779296875,162.64999389648438 58.380001068115234,162.72999572753906 C59.22999954223633,162.80999755859375 59.849998474121094,162.02999877929688 59.849998474121094,162.02999877929688 C59.849998474121094,162.02999877929688 52.40999984741211,153.72999572753906 50.779998779296875,146.97999572753906 C50.779998779296875,146.97999572753906 50.779998779296875,146.97999572753906 50.779998779296875,146.97999572753906z"></path></g><g opacity="1" transform="matrix(1,0,0,1,0,0)"><path fill="url(#__lottie_element_21)" fill-opacity="1" d=" M80.0999984741211,135.5 C80.0999984741211,135.5 73.12000274658203,137.91000366210938 73.12000274658203,137.91000366210938 C73.12000274658203,137.91000366210938 62.29999923706055,143.91000366210938 58.77000045776367,146.0500030517578 C54.349998474121094,148.72999572753906 41.38999938964844,157.3000030517578 41.38999938964844,157.3000030517578 C41.38999938964844,157.3000030517578 41.93000030517578,158.4600067138672 41.93000030517578,158.4600067138672 C41.93000030517578,158.4600067138672 74.05000305175781,139.3000030517578 74.05000305175781,139.3000030517578 C74.05000305175781,139.3000030517578 81.11000061035156,136.58999633789062 81.11000061035156,136.58999633789062 C81.11000061035156,136.58999633789062 80.0999984741211,135.5 80.0999984741211,135.5z"></path></g><g opacity="1" transform="matrix(1,0,0,1,0,0)"><path fill="url(#__lottie_element_22)" fill-opacity="1" d=" M41.93000030517578,158.4600067138672 C41.93000030517578,158.4600067138672 59.619998931884766,150.32000732421875 59.619998931884766,150.32000732421875 C59.619998931884766,150.32000732421875 66.41000366210938,146.42999267578125 68.62000274658203,145.0399932861328 C71.80999755859375,143.02999877929688 81.11000061035156,136.58999633789062 81.11000061035156,136.58999633789062 C81.11000061035156,136.58999633789062 73.73999786376953,139.3800048828125 73.73999786376953,139.3800048828125 C73.73999786376953,139.3800048828125 41.93000030517578,158.4600067138672 41.93000030517578,158.4600067138672z"></path></g><g opacity="1" transform="matrix(1,0,0,1,0,0)"><path fill="rgb(0,0,0)" fill-opacity="1" d=" M111.9000015258789,69.80000305175781 C111.9000015258789,69.80000305175781 113.61000061035156,69.0999984741211 113.61000061035156,69.0999984741211 C113.61000061035156,69.0999984741211 114.04000091552734,69.29000091552734 114.45999908447266,70.26000213623047 C115,71.5 115.08000183105469,72.36000061035156 115.08000183105469,72.36000061035156 C115.08000183105469,72.36000061035156 113.37999725341797,73.29000091552734 113.37999725341797,73.29000091552734 C113.37999725341797,73.29000091552734 112.5199966430664,70.95999908447266 111.9000015258789,69.80000305175781 C111.9000015258789,69.80000305175781 111.9000015258789,69.80000305175781 111.9000015258789,69.80000305175781z"></path></g><g opacity="1" transform="matrix(1,0,0,1,0,0)"><path fill="url(#__lottie_element_23)" fill-opacity="1" d=" M96.2300033569336,85.16000366210938 C96.2300033569336,85.16000366210938 113.68000030517578,74.61000061035156 113.68000030517578,74.61000061035156 C113.68000030517578,74.61000061035156 113.88999938964844,72.94999694824219 113.2699966430664,71.5 C112.6500015258789,70.05000305175781 111.93000030517578,69.63999938964844 111.93000030517578,69.63999938964844 C111.93000030517578,69.63999938964844 89.4800033569336,79.80000305175781 89.4800033569336,79.80000305175781"></path></g><g opacity="1" transform="matrix(1,0,0,1,0,0)"><path fill="url(#__lottie_element_24)" fill-opacity="1" d=" M88.33999633789062,79.75 C88.33999633789062,79.75 84.9800033569336,83.44000244140625 84.20999908447266,87.4800033569336 C83.44000244140625,91.5199966430664 83.51000213623047,98.2699966430664 83.27999877929688,100.5199966430664 C83.05000305175781,102.7699966430664 81.87999725341797,106.94999694824219 81.18000030517578,108.88999938964844 C80.4800033569336,110.83000183105469 80.25,113.55000305175781 80.25,113.55000305175781 C80.25,113.55000305175781 85.13999938964844,114.08999633789062 90.56999969482422,113.47000122070312 C96,112.8499984741211 97.94000244140625,112.16000366210938 97.94000244140625,112.16000366210938 C97.94000244140625,112.16000366210938 97.62999725341797,105.80000305175781 97.05999755859375,103.7300033569336 C96.48999786376953,101.66000366210938 96.33999633789062,100.93000030517578 96.33999633789062,100.93000030517578 C96.33999633789062,100.93000030517578 96.54000091552734,100.16000366210938 97.05999755859375,98.76000213623047 C97.58000183105469,97.37000274658203 100.16000366210938,92.4000015258789 99.75,90.48999786376953 C99.33999633789062,88.58000183105469 98.30000305175781,85.77999877929688 97.41999816894531,84.8499984741211 C96.54000091552734,83.91999816894531 96.18000030517578,83.7699966430664 96.18000030517578,83.7699966430664 C96.18000030517578,83.7699966430664 94.16000366210938,80.86000061035156 92.76000213623047,79.5199966430664 C91.37000274658203,78.18000030517578 89.66000366210938,78.33000183105469 89.66000366210938,78.33000183105469 C89.66000366210938,78.33000183105469 88.33999633789062,79.75 88.33999633789062,79.75z"></path></g><g opacity="1" transform="matrix(1,0,0,1,0,0)"><path fill="url(#__lottie_element_25)" fill-opacity="1" d=" M89.63999938964844,92.08999633789062 C89.63999938964844,92.08999633789062 90.55000305175781,94.72000122070312 92.05000305175781,96.4800033569336 C93.55000305175781,98.23999786376953 96.62000274658203,100.05000305175781 96.62000274658203,100.05000305175781 C96.62000274658203,100.05000305175781 97.05999755859375,98.76000213623047 97.05999755859375,98.76000213623047 C97.05999755859375,98.76000213623047 89.8499984741211,92.08999633789062 89.8499984741211,92.08999633789062"></path></g><g opacity="1" transform="matrix(1,0,0,1,0,0)"><path fill="url(#__lottie_element_26)" fill-opacity="1" d=" M95.44999694824219,82.75 C94.73999786376953,81.79000091552734 93.63999938964844,80.3499984741211 92.7699966430664,79.5199966430664 C91.37999725341797,78.18000030517578 89.66000366210938,78.33000183105469 89.66000366210938,78.33000183105469 C89.66000366210938,78.33000183105469 88.36000061035156,79.7300033569336 88.36000061035156,79.7300033569336 C89.29000091552734,80.30000305175781 91.5999984741211,80.7300033569336 93.08000183105469,81.58999633789062 C93.97000122070312,82.11000061035156 94.79000091552734,82.4800033569336 95.44999694824219,82.75 C95.44999694824219,82.75 95.44999694824219,82.75 95.44999694824219,82.75z"></path></g><g opacity="1" transform="matrix(1,0,0,1,0,0)"><path fill="url(#__lottie_element_27)" fill-opacity="1" d=" M89.25,103.0999984741211 C89.25,103.0999984741211 90.91000366210938,103.05000305175781 93.29000091552734,102.4800033569336 C95.66999816894531,101.91000366210938 96.08000183105469,101.55000305175781 96.08000183105469,101.55000305175781 C96.08000183105469,101.55000305175781 95.55999755859375,103.66999816894531 95.55999755859375,103.66999816894531 C95.55999755859375,103.66999816894531 94.37000274658203,104.5 92.66000366210938,104.66000366210938 C90.94999694824219,104.80999755859375 89.08999633789062,104.86000061035156 89.08999633789062,104.86000061035156 C89.08999633789062,104.86000061035156 89.25,103.0999984741211 89.25,103.0999984741211z"></path></g><g opacity="1" transform="matrix(1,0,0,1,0,0)"><path fill="rgb(0,0,0)" fill-opacity="1" d=" M81.80000305175781,113.6500015258789 C81.80000305175781,113.6500015258789 82.2699966430664,116.13999938964844 83.87000274658203,117.06999969482422 C85.4800033569336,118 87.0199966430664,118.72000122070312 87.0199966430664,118.72000122070312 C87.0199966430664,118.72000122070312 94.37000274658203,124.30999755859375 94.37000274658203,124.30999755859375 C94.37000274658203,124.30999755859375 82.7300033569336,129.02000427246094 82.7300033569336,129.02000427246094 C82.7300033569336,129.02000427246094 84.23999786376953,132.52999877929688 85.4800033569336,134.2899932861328 C86.72000122070312,136.0500030517578 87.5999984741211,136.8800048828125 87.5999984741211,136.72000122070312 C87.5999984741211,136.55999755859375 94.94000244140625,133.16000366210938 98.87000274658203,131.66000366210938 C102.80000305175781,130.16000366210938 104.76000213623047,129.27999877929688 105.48999786376953,127.77999877929688 C106.20999908447266,126.27999877929688 104.66000366210938,124.58000183105469 103.94000244140625,123.2300033569336 C103.22000122070312,121.88999938964844 98.30999755859375,114.94999694824219 97.43000030517578,113.97000122070312 C96.55000305175781,112.98999786376953 95.81999969482422,112.68000030517578 95.81999969482422,112.68000030517578 C95.81999969482422,112.66999816894531 87.75,114.22000122070312 81.80000305175781,113.6500015258789 C81.80000305175781,113.6500015258789 81.80000305175781,113.6500015258789 81.80000305175781,113.6500015258789z"></path></g><g opacity="1" transform="matrix(1,0,0,1,0,0)"><path fill="url(#__lottie_element_28)" fill-opacity="1" d=" M82.7300033569336,129.00999450683594 C82.7300033569336,129.00999450683594 79.58000183105469,128.9600067138672 79.58000183105469,128.9600067138672 C79.58000183105469,128.9600067138672 75.91000366210938,130.61000061035156 75.91000366210938,130.61000061035156 C75.91000366210938,130.61000061035156 77.45999908447266,134.22999572753906 77.45999908447266,134.22999572753906 C77.45999908447266,134.22999572753906 78.18000030517578,133.77000427246094 78.18000030517578,133.77000427246094 C78.18000030517578,133.77000427246094 78.55000305175781,137.22999572753906 79.58000183105469,139.55999755859375 C80.62000274658203,141.88999938964844 82.87999725341797,143.85000610351562 83.4000015258789,143.8000030517578 C83.91999816894531,143.75 84.33000183105469,142.92999267578125 84.33000183105469,142.92999267578125 C84.33000183105469,142.92999267578125 82.52999877929688,139.8800048828125 82.88999938964844,138.1699981689453 C83.25,136.4600067138672 84.0199966430664,133.72000122070312 84.0199966430664,133.72000122070312 C84.0199966430664,133.72000122070312 84.58999633789062,133.10000610351562 84.58999633789062,133.10000610351562 C84.58999633789062,133.08999633789062 82.83999633789062,129.88999938964844 82.7300033569336,129.00999450683594 C82.7300033569336,129.00999450683594 82.7300033569336,129.00999450683594 82.7300033569336,129.00999450683594z"></path></g><g opacity="1" transform="matrix(1,0,0,1,0,0)"><path fill="rgb(255,255,255)" fill-opacity="1" d=" M82.7300033569336,129.00999450683594 C82.7300033569336,129.00999450683594 80.3499984741211,128.97000122070312 80.3499984741211,128.97000122070312 C80.47000122070312,129.55999755859375 80.69000244140625,130.47000122070312 80.93000030517578,130.77000427246094 C81.25,131.19000244140625 83.16000366210938,131.85000610351562 84.13999938964844,133.58999633789062 C84.13999938964844,133.58999633789062 84.5999984741211,133.08999633789062 84.5999984741211,133.08999633789062 C84.5999984741211,133.08999633789062 82.83999633789062,129.88999938964844 82.7300033569336,129.00999450683594 C82.7300033569336,129.00999450683594 82.7300033569336,129.00999450683594 82.7300033569336,129.00999450683594z"></path></g><g opacity="1" transform="matrix(1,0,0,1,0,0)"><path fill="rgb(0,0,0)" fill-opacity="1" d=" M91.8499984741211,78.4800033569336 C91.8499984741211,78.4800033569336 91.69999694824219,77.16999816894531 91.62000274658203,76.62000274658203 C91.54000091552734,76.08000183105469 91.83999633789062,73.27999877929688 93.36000061035156,72.16000366210938 C94.87000274658203,71.04000091552734 97.51000213623047,70.91999816894531 99.0999984741211,71.69999694824219 C100.69000244140625,72.47000122070312 102.12999725341797,73.37000274658203 102.44000244140625,73.91000366210938 C102.75,74.44999694824219 102.91000366210938,75.45999908447266 102.79000091552734,75.7699966430664 C102.66999816894531,76.08000183105469 102.4800033569336,76.08000183105469 102.4800033569336,76.08000183105469 C102.4800033569336,76.08000183105469 100.8499984741211,74.72000122070312 100.8499984741211,74.72000122070312 C100.8499984741211,74.72000122070312 99.6500015258789,75.95999908447266 99.61000061035156,76.2699966430664 C99.56999969482422,76.58000183105469 99.18000030517578,78.31999969482422 99.18000030517578,78.31999969482422 C99.18000030517578,78.31999969482422 98.44000244140625,78.27999877929688 98.44000244140625,78.16999816894531 C98.44000244140625,78.05000305175781 97.69999694824219,76 97.16000366210938,76.08000183105469 C96.62000274658203,76.16000366210938 95.88999938964844,76 95.56999969482422,77.23999786376953 C95.4800033569336,77.5999984741211 95.30000305175781,78.4800033569336 95.30000305175781,78.4800033569336 C95.30000305175781,78.4800033569336 92.88999938964844,79.44999694824219 92.88999938964844,79.44999694824219 C92.88999938964844,79.44999694824219 91.8499984741211,78.4800033569336 91.8499984741211,78.4800033569336z M83.41000366210938,143.8000030517578 C83.55000305175781,143.7899932861328 83.68000030517578,143.7100067138672 83.80000305175781,143.6199951171875 C82.80999755859375,142.97000122070312 81.7699966430664,141.75 80.7699966430664,140.44000244140625 C79.31999969482422,138.52999877929688 79.22000122070312,134.60000610351562 79.01000213623047,133.77000427246094 C78.83999633789062,133.0800018310547 77.7699966430664,130.7100067138672 77.41000366210938,129.92999267578125 C77.41000366210938,129.92999267578125 75.91000366210938,130.61000061035156 75.91000366210938,130.61000061035156 C75.91000366210938,130.61000061035156 77.45999908447266,134.22999572753906 77.45999908447266,134.22999572753906 C77.45999908447266,134.22999572753906 78.18000030517578,133.77000427246094 78.18000030517578,133.77000427246094 C78.18000030517578,133.77000427246094 78.54000091552734,137.22999572753906 79.56999969482422,139.55999755859375 C80.61000061035156,141.8800048828125 82.88999938964844,143.85000610351562 83.41000366210938,143.8000030517578 C83.41000366210938,143.8000030517578 83.41000366210938,143.8000030517578 83.41000366210938,143.8000030517578z"></path></g><g opacity="1" transform="matrix(1,0,0,1,0,0)"><path fill="url(#__lottie_element_29)" fill-opacity="1" d=" M100.8499984741211,74.7300033569336 C100.8499984741211,74.7300033569336 99.6500015258789,75.97000122070312 99.61000061035156,76.27999877929688 C99.56999969482422,76.58999633789062 99.18000030517578,78.33000183105469 99.18000030517578,78.33000183105469 C99.18000030517578,78.33000183105469 98.44000244140625,78.29000091552734 98.44000244140625,78.18000030517578 C98.44000244140625,78.05999755859375 97.69999694824219,76.01000213623047 97.16000366210938,76.08999633789062 C96.62000274658203,76.16999816894531 95.88999938964844,76.01000213623047 95.56999969482422,77.25 C95.4800033569336,77.61000061035156 95.30000305175781,78.48999786376953 95.30000305175781,78.48999786376953 C95.30000305175781,78.48999786376953 92.88999938964844,79.45999908447266 92.88999938964844,79.45999908447266 C92.88999938964844,79.45999908447266 96.06999969482422,83.73999786376953 96.06999969482422,83.73999786376953 C96.06999969482422,83.73999786376953 96.69000244140625,83.4800033569336 96.69000244140625,83.4800033569336 C96.69000244140625,83.4800033569336 99.2300033569336,84.33000183105469 99.45999908447266,84.30999755859375 C99.69000244140625,84.27999877929688 99.94999694824219,83.19999694824219 99.94999694824219,83.0999984741211 C99.94999694824219,83 100.38999938964844,82.88999938964844 100.56999969482422,82.83999633789062 C100.75,82.79000091552734 100.5199966430664,82.4000015258789 100.5199966430664,82.4000015258789 C100.5199966430664,82.4000015258789 100.95999908447266,82.31999969482422 100.95999908447266,82.31999969482422 C100.95999908447266,82.31999969482422 101.11000061035156,81.38999938964844 101.11000061035156,81.38999938964844 C101.11000061035156,81.38999938964844 101.44000244140625,81.54000091552734 101.55000305175781,81.54000091552734 C101.6500015258789,81.54000091552734 102.06999969482422,81.36000061035156 102.06999969482422,81.36000061035156 C102.06999969482422,81.36000061035156 101.66000366210938,78.41000366210938 101.66000366210938,78.41000366210938 C101.66000366210938,78.41000366210938 102.12000274658203,77.97000122070312 102.12000274658203,77.97000122070312 C102.12000274658203,77.97000122070312 102.30000305175781,76.01000213623047 102.30000305175781,76.01000213623047 C102.30000305175781,76.01000213623047 102.26000213623047,75.91000366210938 102.26000213623047,75.91000366210938 C102.26000213623047,75.91000366210938 100.8499984741211,74.7300033569336 100.8499984741211,74.7300033569336z"></path></g><g opacity="1" transform="matrix(1,0,0,1,0,0)"><path fill="url(#__lottie_element_30)" fill-opacity="1" d=" M89.66000366210938,91.83000183105469 C89.66000366210938,91.83000183105469 90.33999633789062,94.30000305175781 96.38999938964844,98.38999938964844 C102.44000244140625,102.4800033569336 106.4800033569336,104.91000366210938 107.87000274658203,105.69000244140625 C109.26000213623047,106.45999908447266 111.37999725341797,108.37999725341797 111.37999725341797,108.37999725341797 C111.37999725341797,108.37999725341797 112.56999969482422,107.02999877929688 113.23999786376953,105.79000091552734 C113.91000366210938,104.55000305175781 114.06999969482422,103.93000030517578 114.06999969482422,103.93000030517578 C114.06999969482422,103.93000030517578 106.62999725341797,98.80000305175781 104.4000015258789,97.05000305175781 C102.16999816894531,95.29000091552734 99.18000030517578,91.72000122070312 98.87000274658203,91 C98.55999755859375,90.27999877929688 98.5,85.47000122070312 96.27999877929688,84.2300033569336 C94.05000305175781,82.98999786376953 91.58000183105469,84.22000122070312 90.48999786376953,86.86000061035156 C89.4000015258789,89.5 89.66000366210938,91.83000183105469 89.66000366210938,91.83000183105469 C89.66000366210938,91.83000183105469 89.66000366210938,91.83000183105469 89.66000366210938,91.83000183105469z"></path></g><g opacity="1" transform="matrix(1,0,0,1,0,0)"><path fill="rgb(0,0,0)" fill-opacity="1" d=" M112.08999633789062,107.37999725341797 C112.08999633789062,107.37999725341797 113.95999908447266,108.16000366210938 113.95999908447266,108.16000366210938 C113.95999908447266,108.16000366210938 114.69000244140625,107.48999786376953 115.08000183105469,106.37000274658203 C115.47000122070312,105.25 115.62000274658203,104.73999786376953 115.62000274658203,104.73999786376953 C115.62000274658203,104.73999786376953 114.06999969482422,103.93000030517578 114.06999969482422,103.93000030517578 C114.06999969482422,103.93000030517578 112.79000091552734,106.79000091552734 112.08999633789062,107.37999725341797 C112.08999633789062,107.37999725341797 112.08999633789062,107.37999725341797 112.08999633789062,107.37999725341797z"></path></g><g opacity="1" transform="matrix(1,0,0,1,0,0)"><path fill="url(#__lottie_element_31)" fill-opacity="1" d=" M115.62000274658203,105.05000305175781 C115.62000274658203,105.05000305175781 118.26000213623047,104.75 118.91999816894531,104.75 C119.58000183105469,104.75 120.86000061035156,105.13999938964844 121.98999786376953,105.63999938964844 C123.11000061035156,106.13999938964844 123.97000122070312,106.91999816894531 123.97000122070312,107.11000061035156 C123.97000122070312,107.30999755859375 123.7699966430664,107.61000061035156 123.1500015258789,107.5 C122.52999877929688,107.37999725341797 120.01000213623047,106.83999633789062 119.58000183105469,106.87999725341797 C119.1500015258789,106.91999816894531 117.0999984741211,108 116.44000244140625,108 C115.77999877929688,108 114.56999969482422,107.54000091552734 114.56999969482422,107.54000091552734 C114.56999969482422,107.54000091552734 115.62000274658203,105.62999725341797 115.62000274658203,105.05000305175781 C115.62000274658203,105.05000305175781 115.62000274658203,105.05000305175781 115.62000274658203,105.05000305175781z"></path></g><g opacity="1" transform="matrix(1,0,0,1,0,0)"><path fill="url(#__lottie_element_32)" fill-opacity="1" d=" M113.61000061035156,69.0999984741211 C113.61000061035156,69.0999984741211 114.8499984741211,68.5 115.5199966430664,68.13999938964844 C116.19000244140625,67.77999877929688 117.69000244140625,67.01000213623047 118.83000183105469,66.54000091552734 C119.97000122070312,66.08000183105469 121.45999908447266,65.25 121.62000274658203,65.66000366210938 C121.7699966430664,66.06999969482422 118.68000030517578,67.88999938964844 118.68000030517578,67.88999938964844 C118.68000030517578,67.88999938964844 119.70999908447266,69.12999725341797 119.70999908447266,69.33000183105469 C119.70999908447266,69.54000091552734 118.62000274658203,71.3499984741211 118.62000274658203,71.3499984741211 C118.62000274658203,71.3499984741211 117.77999877929688,71.66000366210938 117.48999786376953,71.61000061035156 C117.19999694824219,71.55999755859375 116.5,70.9800033569336 116.5,70.9800033569336 C116.5,70.9800033569336 114.94999694824219,71.44999694824219 114.94999694824219,71.44999694824219 C114.94999694824219,71.44999694824219 114.12999725341797,69.54000091552734 113.61000061035156,69.0999984741211 C113.61000061035156,69.0999984741211 113.61000061035156,69.0999984741211 113.61000061035156,69.0999984741211z"></path></g><g opacity="1" transform="matrix(1,0,0,1,0,0)"><path fill="rgb(255,255,255)" fill-opacity="1" d=" M63.88999938964844,60.060001373291016 C63.88999938964844,60.77000045776367 62.81999969482422,60.77000045776367 62.81999969482422,60.060001373291016 C62.81999969482422,59.349998474121094 63.88999938964844,59.349998474121094 63.88999938964844,60.060001373291016"></path></g><g opacity="1" transform="matrix(1,0,0,1,0,0)"><path fill="rgb(255,255,255)" fill-opacity="1" d=" M80.41999816894531,61.470001220703125 C80.41999816894531,61.75 80.19000244140625,61.97999954223633 79.91000366210938,61.97999954223633 C79.62999725341797,61.97999954223633 79.41000366210938,61.75 79.41000366210938,61.470001220703125 C79.41000366210938,61.189998626708984 79.62999725341797,60.970001220703125 79.91000366210938,60.970001220703125 C80.19000244140625,60.970001220703125 80.41999816894531,61.189998626708984 80.41999816894531,61.470001220703125 C80.41999816894531,61.470001220703125 80.41999816894531,61.470001220703125 80.41999816894531,61.470001220703125z M31.950000762939453,77.25 C31.950000762939453,77.55999755859375 31.690000534057617,77.80000305175781 31.389999389648438,77.80000305175781 C31.079999923706055,77.80000305175781 30.84000015258789,77.55000305175781 30.84000015258789,77.25 C30.84000015258789,76.94000244140625 31.09000015258789,76.69999694824219 31.389999389648438,76.69999694824219 C31.690000534057617,76.69999694824219 31.950000762939453,76.94999694824219 31.950000762939453,77.25 C31.950000762939453,77.25 31.950000762939453,77.25 31.950000762939453,77.25z M51.34000015258789,80.61000061035156 C51.34000015258789,81.01000213623047 51.0099983215332,81.33000183105469 50.61000061035156,81.33000183105469 C50.209999084472656,81.33000183105469 49.88999938964844,81.01000213623047 49.88999938964844,80.61000061035156 C49.88999938964844,80.20999908447266 50.209999084472656,79.87999725341797 50.61000061035156,79.87999725341797 C51.0099983215332,79.87999725341797 51.34000015258789,80.20999908447266 51.34000015258789,80.61000061035156 C51.34000015258789,80.61000061035156 51.34000015258789,80.61000061035156 51.34000015258789,80.61000061035156z M82.76000213623047,76.08999633789062 C82.76000213623047,76.2300033569336 82.63999938964844,76.36000061035156 82.48999786376953,76.36000061035156 C82.3499984741211,76.36000061035156 82.2300033569336,76.23999786376953 82.2300033569336,76.08999633789062 C82.2300033569336,75.94999694824219 82.33999633789062,75.81999969482422 82.48999786376953,75.81999969482422 C82.63999938964844,75.81999969482422 82.76000213623047,75.94999694824219 82.76000213623047,76.08999633789062 C82.76000213623047,76.08999633789062 82.76000213623047,76.08999633789062 82.76000213623047,76.08999633789062z"></path></g><g opacity="1" transform="matrix(1,0,0,1,0,0)"><path fill="rgb(255,255,255)" fill-opacity="1" d=" M177.22999572753906,55.91999816894531 C177.22999572753906,56.79999923706055 175.91000366210938,56.79999923706055 175.91000366210938,55.91999816894531 C175.91000366210938,55.040000915527344 177.22999572753906,55.040000915527344 177.22999572753906,55.91999816894531"></path></g><g opacity="1" transform="matrix(1,0,0,1,0,0)"><path fill="rgb(255,255,255)" fill-opacity="1" d=" M197.7100067138672,57.66999816894531 C197.7100067138672,58.0099983215332 197.4199981689453,58.29999923706055 197.0800018310547,58.29999923706055 C196.74000549316406,58.29999923706055 196.4600067138672,58.0099983215332 196.4600067138672,57.66999816894531 C196.4600067138672,57.33000183105469 196.74000549316406,57.04999923706055 197.0800018310547,57.04999923706055 C197.4199981689453,57.04999923706055 197.7100067138672,57.33000183105469 197.7100067138672,57.66999816894531 C197.7100067138672,57.66999816894531 197.7100067138672,57.66999816894531 197.7100067138672,57.66999816894531z M137.66000366210938,77.20999908447266 C137.66000366210938,77.58999633789062 137.36000061035156,77.9000015258789 136.97999572753906,77.9000015258789 C136.60000610351562,77.9000015258789 136.2899932861328,77.58999633789062 136.2899932861328,77.20999908447266 C136.2899932861328,76.83000183105469 136.60000610351562,76.52999877929688 136.97999572753906,76.52999877929688 C137.36000061035156,76.52999877929688 137.66000366210938,76.83000183105469 137.66000366210938,77.20999908447266 C137.66000366210938,77.20999908447266 137.66000366210938,77.20999908447266 137.66000366210938,77.20999908447266z M161.67999267578125,81.37000274658203 C161.67999267578125,81.86000061035156 161.2899932861328,82.2699966430664 160.7899932861328,82.2699966430664 C160.3000030517578,82.2699966430664 159.88999938964844,81.87000274658203 159.88999938964844,81.37000274658203 C159.88999938964844,80.87999725341797 160.2899932861328,80.4800033569336 160.7899932861328,80.4800033569336 C161.2899932861328,80.4800033569336 161.67999267578125,80.87999725341797 161.67999267578125,81.37000274658203 C161.67999267578125,81.37000274658203 161.67999267578125,81.37000274658203 161.67999267578125,81.37000274658203z M200.61000061035156,75.77999877929688 C200.61000061035156,75.95999908447266 200.4600067138672,76.11000061035156 200.27999877929688,76.11000061035156 C200.10000610351562,76.11000061035156 199.9499969482422,75.95999908447266 199.9499969482422,75.77999877929688 C199.9499969482422,75.5999984741211 200.10000610351562,75.44999694824219 200.27999877929688,75.44999694824219 C200.4600067138672,75.44999694824219 200.61000061035156,75.5999984741211 200.61000061035156,75.77999877929688 C200.61000061035156,75.77999877929688 200.61000061035156,75.77999877929688 200.61000061035156,75.77999877929688z"></path></g><g opacity="1" transform="matrix(1,0,0,1,0,0)"><path fill="rgb(255,255,255)" fill-opacity="1" d=" M148.3300018310547,135.5 C148.3300018310547,136.3800048828125 147.00999450683594,136.3800048828125 147.00999450683594,135.5 C147.00999450683594,134.6199951171875 148.3300018310547,134.6199951171875 148.3300018310547,135.5"></path></g><g opacity="1" transform="matrix(1,0,0,1,0,0)"><path fill="rgb(255,255,255)" fill-opacity="1" d=" M168.80999755859375,137.25 C168.80999755859375,137.58999633789062 168.52000427246094,137.8800048828125 168.17999267578125,137.8800048828125 C167.83999633789062,137.8800048828125 167.55999755859375,137.58999633789062 167.55999755859375,137.25 C167.55999755859375,136.91000366210938 167.83999633789062,136.6300048828125 168.17999267578125,136.6300048828125 C168.52000427246094,136.6300048828125 168.80999755859375,136.91000366210938 168.80999755859375,137.25 C168.80999755859375,137.25 168.80999755859375,137.25 168.80999755859375,137.25z M108.7699966430664,156.8000030517578 C108.7699966430664,157.17999267578125 108.45999908447266,157.47999572753906 108.08000183105469,157.47999572753906 C107.69999694824219,157.47999572753906 107.38999938964844,157.17999267578125 107.38999938964844,156.8000030517578 C107.38999938964844,156.4199981689453 107.69999694824219,156.11000061035156 108.08000183105469,156.11000061035156 C108.45999908447266,156.11000061035156 108.7699966430664,156.4199981689453 108.7699966430664,156.8000030517578 C108.7699966430664,156.8000030517578 108.7699966430664,156.8000030517578 108.7699966430664,156.8000030517578z M132.77999877929688,160.9600067138672 C132.77999877929688,161.4499969482422 132.38999938964844,161.85000610351562 131.88999938964844,161.85000610351562 C131.39999389648438,161.85000610351562 130.99000549316406,161.4600067138672 130.99000549316406,160.9600067138672 C130.99000549316406,160.47000122070312 131.38999938964844,160.05999755859375 131.88999938964844,160.05999755859375 C132.38999938964844,160.05999755859375 132.77999877929688,160.4600067138672 132.77999877929688,160.9600067138672 C132.77999877929688,160.9600067138672 132.77999877929688,160.9600067138672 132.77999877929688,160.9600067138672z M171.6999969482422,155.36000061035156 C171.6999969482422,155.5399932861328 171.55999755859375,155.69000244140625 171.3800048828125,155.69000244140625 C171.1999969482422,155.69000244140625 171.0500030517578,155.5399932861328 171.0500030517578,155.36000061035156 C171.0500030517578,155.17999267578125 171.1999969482422,155.0399932861328 171.3800048828125,155.0399932861328 C171.55999755859375,155.0399932861328 171.6999969482422,155.17999267578125 171.6999969482422,155.36000061035156 C171.6999969482422,155.36000061035156 171.6999969482422,155.36000061035156 171.6999969482422,155.36000061035156z"></path></g><g opacity="1" transform="matrix(1,0,0,1,0,0)"><path fill="rgb(255,255,255)" fill-opacity="1" d=" M121.02999877929688,166.1300048828125 C121.02999877929688,166.61000061035156 120.30999755859375,166.61000061035156 120.30999755859375,166.1300048828125 C120.30999755859375,165.64999389648438 121.02999877929688,165.64999389648438 121.02999877929688,166.1300048828125"></path></g><g opacity="1" transform="matrix(1,0,0,1,0,0)"><path fill="rgb(255,255,255)" fill-opacity="1" d=" M132.16000366210938,167.0800018310547 C132.16000366210938,167.27000427246094 132.00999450683594,167.4199981689453 131.82000732421875,167.4199981689453 C131.6300048828125,167.4199981689453 131.47999572753906,167.27000427246094 131.47999572753906,167.0800018310547 C131.47999572753906,166.88999938964844 131.6300048828125,166.74000549316406 131.82000732421875,166.74000549316406 C132,166.74000549316406 132.16000366210938,166.88999938964844 132.16000366210938,167.0800018310547 C132.16000366210938,167.0800018310547 132.16000366210938,167.0800018310547 132.16000366210938,167.0800018310547z M99.5199966430664,177.7100067138672 C99.5199966430664,177.9199981689453 99.33999633789062,178.0800018310547 99.13999938964844,178.0800018310547 C98.93000030517578,178.0800018310547 98.7699966430664,177.91000366210938 98.7699966430664,177.7100067138672 C98.7699966430664,177.5 98.94000244140625,177.33999633789062 99.13999938964844,177.33999633789062 C99.33999633789062,177.33999633789062 99.5199966430664,177.5 99.5199966430664,177.7100067138672 C99.5199966430664,177.7100067138672 99.5199966430664,177.7100067138672 99.5199966430664,177.7100067138672z M112.56999969482422,179.97000122070312 C112.56999969482422,180.24000549316406 112.36000061035156,180.4499969482422 112.08999633789062,180.4499969482422 C111.81999969482422,180.4499969482422 111.61000061035156,180.24000549316406 111.61000061035156,179.97000122070312 C111.61000061035156,179.6999969482422 111.81999969482422,179.47999572753906 112.08999633789062,179.47999572753906 C112.36000061035156,179.47999572753906 112.56999969482422,179.6999969482422 112.56999969482422,179.97000122070312 C112.56999969482422,179.97000122070312 112.56999969482422,179.97000122070312 112.56999969482422,179.97000122070312z M133.74000549316406,176.92999267578125 C133.74000549316406,177.02999877929688 133.66000366210938,177.11000061035156 133.55999755859375,177.11000061035156 C133.4600067138672,177.11000061035156 133.3800048828125,177.02999877929688 133.3800048828125,176.92999267578125 C133.3800048828125,176.8300018310547 133.4600067138672,176.75 133.55999755859375,176.75 C133.66000366210938,176.75 133.74000549316406,176.8300018310547 133.74000549316406,176.92999267578125 C133.74000549316406,176.92999267578125 133.74000549316406,176.92999267578125 133.74000549316406,176.92999267578125z"></path></g><g opacity="1" transform="matrix(1,0,0,1,0,0)"><path fill="rgb(255,255,255)" fill-opacity="1" d=" M44.459999084472656,107.04000091552734 C44.459999084472656,107.5199966430664 43.7400016784668,107.5199966430664 43.7400016784668,107.04000091552734 C43.7400016784668,106.55999755859375 44.459999084472656,106.55999755859375 44.459999084472656,107.04000091552734"></path></g><g opacity="1" transform="matrix(1,0,0,1,0,0)"><path fill="rgb(255,255,255)" fill-opacity="1" d=" M55.59000015258789,107.98999786376953 C55.59000015258789,108.18000030517578 55.439998626708984,108.33000183105469 55.25,108.33000183105469 C55.060001373291016,108.33000183105469 54.90999984741211,108.18000030517578 54.90999984741211,107.98999786376953 C54.90999984741211,107.80000305175781 55.060001373291016,107.6500015258789 55.25,107.6500015258789 C55.439998626708984,107.6500015258789 55.59000015258789,107.80000305175781 55.59000015258789,107.98999786376953 C55.59000015258789,107.98999786376953 55.59000015258789,107.98999786376953 55.59000015258789,107.98999786376953z M22.950000762939453,118.62000274658203 C22.950000762939453,118.83000183105469 22.770000457763672,118.98999786376953 22.56999969482422,118.98999786376953 C22.360000610351562,118.98999786376953 22.200000762939453,118.81999969482422 22.200000762939453,118.62000274658203 C22.200000762939453,118.41000366210938 22.3700008392334,118.25 22.56999969482422,118.25 C22.770000457763672,118.25 22.950000762939453,118.41000366210938 22.950000762939453,118.62000274658203 C22.950000762939453,118.62000274658203 22.950000762939453,118.62000274658203 22.950000762939453,118.62000274658203z M36,120.87999725341797 C36,121.1500015258789 35.790000915527344,121.36000061035156 35.52000045776367,121.36000061035156 C35.25,121.36000061035156 35.029998779296875,121.1500015258789 35.029998779296875,120.87999725341797 C35.029998779296875,120.61000061035156 35.25,120.38999938964844 35.52000045776367,120.38999938964844 C35.790000915527344,120.38999938964844 36,120.61000061035156 36,120.87999725341797 C36,120.87999725341797 36,120.87999725341797 36,120.87999725341797z M57.16999816894531,117.83999633789062 C57.16999816894531,117.94000244140625 57.09000015258789,118.0199966430664 56.9900016784668,118.0199966430664 C56.88999938964844,118.0199966430664 56.810001373291016,117.94000244140625 56.810001373291016,117.83999633789062 C56.810001373291016,117.73999786376953 56.88999938964844,117.66000366210938 56.9900016784668,117.66000366210938 C57.09000015258789,117.66000366210938 57.16999816894531,117.73999786376953 57.16999816894531,117.83999633789062 C57.16999816894531,117.83999633789062 57.16999816894531,117.83999633789062 57.16999816894531,117.83999633789062z"></path></g><g opacity="1" transform="matrix(1,0,0,1,0,0)"><path fill="rgb(255,255,255)" fill-opacity="1" d=" M180.41000366210938,98.79000091552734 C180.41000366210938,99.2699966430664 179.69000244140625,99.2699966430664 179.69000244140625,98.79000091552734 C179.69000244140625,98.30999755859375 180.41000366210938,98.30999755859375 180.41000366210938,98.79000091552734"></path></g><g opacity="1" transform="matrix(1,0,0,1,0,0)"><path fill="rgb(255,255,255)" fill-opacity="1" d=" M191.5399932861328,99.73999786376953 C191.5399932861328,99.93000030517578 191.38999938964844,100.08000183105469 191.1999969482422,100.08000183105469 C191.00999450683594,100.08000183105469 190.86000061035156,99.93000030517578 190.86000061035156,99.73999786376953 C190.86000061035156,99.55000305175781 191.00999450683594,99.4000015258789 191.1999969482422,99.4000015258789 C191.38999938964844,99.4000015258789 191.5399932861328,99.55000305175781 191.5399932861328,99.73999786376953 C191.5399932861328,99.73999786376953 191.5399932861328,99.73999786376953 191.5399932861328,99.73999786376953z M158.89999389648438,110.36000061035156 C158.89999389648438,110.56999969482422 158.72999572753906,110.7300033569336 158.52999877929688,110.7300033569336 C158.32000732421875,110.7300033569336 158.16000366210938,110.55999755859375 158.16000366210938,110.36000061035156 C158.16000366210938,110.1500015258789 158.3300018310547,109.98999786376953 158.52999877929688,109.98999786376953 C158.72999572753906,109.98999786376953 158.89999389648438,110.1500015258789 158.89999389648438,110.36000061035156 C158.89999389648438,110.36000061035156 158.89999389648438,110.36000061035156 158.89999389648438,110.36000061035156z M171.9499969482422,112.62000274658203 C171.9499969482422,112.88999938964844 171.74000549316406,113.11000061035156 171.47000122070312,113.11000061035156 C171.1999969482422,113.11000061035156 170.97999572753906,112.88999938964844 170.97999572753906,112.62000274658203 C170.97999572753906,112.3499984741211 171.1999969482422,112.13999938964844 171.47000122070312,112.13999938964844 C171.74000549316406,112.13999938964844 171.9499969482422,112.3499984741211 171.9499969482422,112.62000274658203 C171.9499969482422,112.62000274658203 171.9499969482422,112.62000274658203 171.9499969482422,112.62000274658203z M193.1199951171875,109.58999633789062 C193.1199951171875,109.69000244140625 193.0399932861328,109.7699966430664 192.94000244140625,109.7699966430664 C192.83999633789062,109.7699966430664 192.75999450683594,109.69000244140625 192.75999450683594,109.58999633789062 C192.75999450683594,109.48999786376953 192.83999633789062,109.41000366210938 192.94000244140625,109.41000366210938 C193.0399932861328,109.41000366210938 193.1199951171875,109.48999786376953 193.1199951171875,109.58999633789062 C193.1199951171875,109.58999633789062 193.1199951171875,109.58999633789062 193.1199951171875,109.58999633789062z"></path></g><g opacity="1" transform="matrix(1,0,0,1,0,0)"><path fill="rgb(255,255,255)" fill-opacity="1" d=" M141.07000732421875,74.97000122070312 C141.07000732421875,75.44999694824219 140.35000610351562,75.44999694824219 140.35000610351562,74.97000122070312 C140.35000610351562,74.48999786376953 141.07000732421875,74.48999786376953 141.07000732421875,74.97000122070312"></path></g><g opacity="1" transform="matrix(1,0,0,1,0,0)"><path fill="rgb(255,255,255)" fill-opacity="1" d=" M152.1999969482422,75.93000030517578 C152.1999969482422,76.12000274658203 152.0500030517578,76.2699966430664 151.86000061035156,76.2699966430664 C151.6699981689453,76.2699966430664 151.52000427246094,76.12000274658203 151.52000427246094,75.93000030517578 C151.52000427246094,75.73999786376953 151.6699981689453,75.58999633789062 151.86000061035156,75.58999633789062 C152.0500030517578,75.58999633789062 152.1999969482422,75.73999786376953 152.1999969482422,75.93000030517578 C152.1999969482422,75.93000030517578 152.1999969482422,75.93000030517578 152.1999969482422,75.93000030517578z M119.55000305175781,86.55000305175781 C119.55000305175781,86.76000213623047 119.37999725341797,86.93000030517578 119.18000030517578,86.93000030517578 C118.97000122070312,86.93000030517578 118.80999755859375,86.75 118.80999755859375,86.55000305175781 C118.80999755859375,86.33999633789062 118.9800033569336,86.18000030517578 119.18000030517578,86.18000030517578 C119.37999725341797,86.18000030517578 119.55000305175781,86.33999633789062 119.55000305175781,86.55000305175781 C119.55000305175781,86.55000305175781 119.55000305175781,86.55000305175781 119.55000305175781,86.55000305175781z M132.61000061035156,88.80999755859375 C132.61000061035156,89.08000183105469 132.38999938964844,89.30000305175781 132.1199951171875,89.30000305175781 C131.85000610351562,89.30000305175781 131.63999938964844,89.08000183105469 131.63999938964844,88.80999755859375 C131.63999938964844,88.54000091552734 131.85000610351562,88.33000183105469 132.1199951171875,88.33000183105469 C132.38999938964844,88.33000183105469 132.61000061035156,88.54000091552734 132.61000061035156,88.80999755859375 C132.61000061035156,88.80999755859375 132.61000061035156,88.80999755859375 132.61000061035156,88.80999755859375z M153.77999877929688,85.7699966430664 C153.77999877929688,85.87000274658203 153.6999969482422,85.94999694824219 153.60000610351562,85.94999694824219 C153.5,85.94999694824219 153.4199981689453,85.87000274658203 153.4199981689453,85.7699966430664 C153.4199981689453,85.66999816894531 153.5,85.58999633789062 153.60000610351562,85.58999633789062 C153.6999969482422,85.58999633789062 153.77999877929688,85.66999816894531 153.77999877929688,85.7699966430664 C153.77999877929688,85.7699966430664 153.77999877929688,85.7699966430664 153.77999877929688,85.7699966430664z"></path></g><g opacity="1" transform="matrix(1,0,0,1,0,0)"><path fill="url(#__lottie_element_33)" fill-opacity="1" d=" M173.3000030517578,47.209999084472656 C174.33999633789062,47.209999084472656 175.2899932861328,47.5 176.1199951171875,47.9900016784668 C176.32000732421875,45.11000061035156 178.72999572753906,42.83000183105469 181.66000366210938,42.83000183105469 C182.3699951171875,42.83000183105469 183.05999755859375,42.959999084472656 183.67999267578125,43.209999084472656 C184.47999572753906,40.540000915527344 186.9600067138672,38.59000015258789 189.88999938964844,38.59000015258789 C193.47000122070312,38.59000015258789 196.3699951171875,41.4900016784668 196.3699951171875,45.06999969482422 C196.3699951171875,45.15999984741211 196.36000061035156,45.25 196.36000061035156,45.34000015258789 C196.36000061035156,45.34000015258789 196.3699951171875,45.34000015258789 196.3699951171875,45.34000015258789 C199.9499969482422,45.34000015258789 202.85000610351562,48.2400016784668 202.85000610351562,51.81999969482422 C202.85000610351562,55.400001525878906 199.9499969482422,58.29999923706055 196.3699951171875,58.29999923706055 C196.14999389648438,58.29999923706055 195.9199981689453,58.290000915527344 195.7100067138672,58.27000045776367 C195.7100067138672,58.27000045776367 173.89999389648438,58.27000045776367 173.89999389648438,58.27000045776367 C173.6999969482422,58.290000915527344 173.5,58.29999923706055 173.2899932861328,58.29999923706055 C170.22999572753906,58.29999923706055 167.75,55.81999969482422 167.75,52.7599983215332 C167.75,49.70000076293945 170.24000549316406,47.209999084472656 173.3000030517578,47.209999084472656 C173.3000030517578,47.209999084472656 173.3000030517578,47.209999084472656 173.3000030517578,47.209999084472656z"></path></g><g opacity="1" transform="matrix(1,0,0,1,0,0)"><path fill="url(#__lottie_element_34)" fill-opacity="1" d=" M145.72999572753906,54.54999923706055 C145.13999938964844,54.54999923706055 144.5800018310547,54.709999084472656 144.11000061035156,55 C144,53.349998474121094 142.6199951171875,52.040000915527344 140.94000244140625,52.040000915527344 C140.5800018310547,52.040000915527344 140.22000122070312,52.11000061035156 139.89999389648438,52.220001220703125 C139.42999267578125,50.709999084472656 138.02999877929688,49.61000061035156 136.36000061035156,49.61000061035156 C136.24000549316406,49.61000061035156 136.10000610351562,49.619998931884766 135.97999572753906,49.630001068115234 C134.4199981689453,49.72999954223633 133.1300048828125,50.779998779296875 132.67999267578125,52.209999084472656 C132.35000610351562,52.099998474121094 132,52.040000915527344 131.63999938964844,52.040000915527344 C129.9600067138672,52.040000915527344 128.5800018310547,53.34000015258789 128.47000122070312,54.9900016784668 C127.98999786376953,54.70000076293945 127.44000244140625,54.54999923706055 126.8499984741211,54.54999923706055 C125.0999984741211,54.54999923706055 123.68000030517578,55.970001220703125 123.68000030517578,57.720001220703125 C123.68000030517578,59.470001220703125 125.0999984741211,60.900001525878906 126.8499984741211,60.900001525878906 C126.97000122070312,60.900001525878906 127.08999633789062,60.88999938964844 127.19999694824219,60.880001068115234 C127.19999694824219,60.880001068115234 132.07000732421875,60.880001068115234 132.07000732421875,60.880001068115234 C132.2100067138672,60.900001525878906 132.35000610351562,60.90999984741211 132.5,60.90999984741211 C132.6199951171875,60.90999984741211 132.75999450683594,60.90999984741211 132.8800048828125,60.88999938964844 C132.8800048828125,60.88999938964844 139.85000610351562,60.88999938964844 139.85000610351562,60.88999938964844 C139.9199981689453,60.88999938964844 139.99000549316406,60.900001525878906 140.05999755859375,60.900001525878906 C140.1300048828125,60.900001525878906 140.2100067138672,60.88999938964844 140.27999877929688,60.88999938964844 C140.27999877929688,60.88999938964844 145.3800048828125,60.88999938964844 145.3800048828125,60.88999938964844 C145.49000549316406,60.900001525878906 145.61000061035156,60.90999984741211 145.72000122070312,60.90999984741211 C147.47000122070312,60.90999984741211 148.88999938964844,59.47999954223633 148.88999938964844,57.72999954223633 C148.89999389648438,55.97999954223633 147.47999572753906,54.54999923706055 145.72999572753906,54.54999923706055 C145.72999572753906,54.54999923706055 145.72999572753906,54.54999923706055 145.72999572753906,54.54999923706055z"></path></g></g></g></g></svg>