<svg id="Layer_1" data-name="Layer 1" xmlns="http://www.w3.org/2000/svg" viewBox="0 0 700 550"><title>men discussing things</title><path d="M563.55724,362.7396c-24.92481,96.7655-100.53958,93.88828-224.56118,93.88828s-224.56095,6.03566-224.56095-93.88825S221.92931,222.75938,338.9962,181.81138C515.41173,120.10435,600.50352,219.30247,563.55724,362.7396Z" fill="#efedef"/><path d="M492.26719,458.8291l-.27344-.96094c45.14746-12.86816,71.01172-40.85742,83.8623-90.75488,19.74024-76.62793,7.28321-142.42871-34.17675-180.53223-44.87012-41.23535-119.05078-46.63964-208.88379-15.2207l-.33008-.94336c90.19629-31.54883,164.73633-26.06933,209.89062,15.42871,41.74024,38.35938,54.30372,104.52051,34.46875,181.51758C563.87461,417.64355,537.79648,445.85352,492.26719,458.8291Z" fill="#6a8d99"/><polygon points="405.091 458.09 377.145 363.879 384.931 361.569 413.638 458.346 405.091 458.09" fill="#c38f86"/><polygon points="347.372 458.09 338.825 458.346 367.531 361.569 375.317 363.879 347.372 458.09" fill="#c38f86"/><rect x="372.11342" y="355.95189" width="8.12101" height="102.41279" fill="#c38f86"/><rect x="328.07108" y="351.21062" width="89.74866" height="13.54324" rx="6.77162" fill="#935b50"/><path d="M286.01475,309.79951v.36982a3.5573,3.5573,0,0,1-3.556,3.556H271.77653a3.5573,3.5573,0,0,1-3.556-3.556V295.77465a3.5573,3.5573,0,0,1,3.556-3.556h10.68222a3.5573,3.5573,0,0,1,3.556,3.556v14.02486Z" fill="#ffba55"/><path d="M291.90336,295.88833h-5.88858v2.1336h4.82178v9.64391h-4.82178v2.1336h5.88858a1.0653,1.0653,0,0,0,1.0668-1.0668V296.95513A1.06541,1.06541,0,0,0,291.90336,295.88833Z" fill="#025182"/><rect x="277.11764" y="299.58132" width="4.41956" height="4.41956" rx="0.7112" fill="#935b50"/><rect x="278.82676" y="292.21875" width="1.00195" height="7.3623" fill="#e5caf3"/><path d="M306.44519,430.93153s.73363,24.00843-1.17979,24.44038-49.2124-4.46281-40.37068-7.0903l14.53544-3.52673a13.36048,13.36048,0,0,0,10.0931-10.41353l1.38611-7.38713Z" fill="#f9977a"/><path d="M364.62163,423.95422S376.46082,442.01234,375.199,443.179s-39.76882,18.08412-34.23464,12.20989l9.47037-9.05013a11.40371,11.40371,0,0,0,2.83475-12.38123l-2.40891-6.26048Z" fill="#f9977a"/><path d="M347.03336,335.21828c-4.98506,3.84686-2.64994,8.44384-.57362,14.26637l22.70178,77.50908-16.3775,8.74492-38.97223-76.61753s-12.78762-15.574,3.50721-26.30527Z" fill="#6c7fd8"/><path d="M355.34293,299.49409l-6.78259-5.03745a6.71372,6.71372,0,0,0-3.32757-1.28354c-2.1201-.21486-5.53023-.6618-7.02232-1.41721-1.44778-.733-2.17855-.09651-1.439,1.30992.4353.82781,1.96763,1.91856,5.98088,3.2087l-3.49211.86186a3.97528,3.97528,0,0,1-3.05823-.48546l-3.84479-2.41241a1.2072,1.2072,0,0,0-1.53132.20882l-.00023.00026a1.10922,1.10922,0,0,0,.21748,1.67314l6.94,4.66121s-.66768,5.51928,4.67377,6.71513,12.686-.91988,12.686-.91988Z" fill="#f9977a"/><polygon points="328.503 310.033 351.575 308.621 327.828 276.173 305.274 277.653 328.503 310.033" fill="#6c7fd8"/><path d="M357.45743,306.93631l-12.00428-10.15866s-6.46339-1.91487-10.18485-3.39873A5.40031,5.40031,0,0,0,329.257,294.876c-1.39218,1.60763-1.34246,3.23043,2.52968,5.7864,5.79134,3.82279,8.74317,5.23177,10.48756,5.73736.60434.17516,3.981,1.46347,3.981,1.46347Z" fill="#f9977a"/><path d="M341.97349,298.48059a23.29154,23.29154,0,0,1-2.58985-.80664c-.8518-.3042-1.68261-.66162-2.50317-1.04321a23.35386,23.35386,0,0,1-2.3916-1.2887,12.58739,12.58739,0,0,1-2.17237-1.63562c1.56812.90222,3.17383,1.66626,4.79737,2.43C338.73032,296.91028,340.36484,297.64624,341.97349,298.48059Z" fill="#dd765e"/><path d="M340.43442,300.61365a22.50418,22.50418,0,0,1-2.87133-.7572,25.68724,25.68724,0,0,1-2.771-1.07972,17.14878,17.14878,0,0,1-2.60669-1.45446,7.0225,7.0225,0,0,1-2.13623-2.07361,10.1469,10.1469,0,0,0,2.35962,1.71728c.85132.47046,1.7185.91675,2.61182,1.31433C336.79478,299.10376,338.61533,299.83044,340.43442,300.61365Z" fill="#dd765e"/><path d="M338.50938,302.26587a16.38512,16.38512,0,0,1-2.415-.59607,21.74432,21.74432,0,0,1-2.3252-.88745,14.99144,14.99144,0,0,1-4.176-2.69238c.73242.39538,1.448.78906,2.18164,1.152.7395.35071,1.47094.712,2.21923,1.04236Z" fill="#dd765e"/><path d="M331.75649,248.30726l-7.6825-3.64266a6.5,6.5,0,0,1-2.66408-2.31189c-1.13652-1.73935-3.05886-4.49228-4.42077-5.44948-1.32146-.92876-1.05224-1.8422.58279-1.8237.96236.01089,2.654.85475,5.62714,3.757l-.74108-3.40209a3.72671,3.72671,0,0,0-1.8027-2.43146l-3.94269-2.26064a1.11424,1.11424,0,0,1-.48229-1.41713l.00014-.00031a1.195,1.195,0,0,1,1.65248-.551l7.40206,3.94509s4.8392-3.01607,8.31144,1.077,4.74892,11.38208,4.74892,11.38208Z" fill="#f9977a"/><path d="M328.08823,234.66882a8.33943,8.33943,0,0,1-1.48681-.85705A12.69591,12.69591,0,0,1,325.285,232.719a4.97113,4.97113,0,0,1,1.54248.77527A6.34515,6.34515,0,0,1,328.08823,234.66882Z" fill="#dd765e"/><path d="M329.79966,233.85608a16.71646,16.71646,0,0,1-1.31616-1.04785c-.19727-.19324-.41553-.35645-.62549-.5293a3.26948,3.26948,0,0,0-.69043-.4541,1.50994,1.50994,0,0,1,.85132.20056,4.36988,4.36988,0,0,1,.719.48743A4.49423,4.49423,0,0,1,329.79966,233.85608Z" fill="#dd765e"/><path d="M331.89023,233.78589c-.20263-.39441-.31079-.77881-.5122-1.1095a1.85915,1.85915,0,0,0-.77808-.84118.93761.93761,0,0,1,.66113.14208,1.5808,1.5808,0,0,1,.46045.515A1.88763,1.88763,0,0,1,331.89023,233.78589Z" fill="#dd765e"/><path d="M387.39875,195.68139a18.74044,18.74044,0,0,0-8.4192,1.08775c-1.25364.49472-5.83875,2.30405-7.90137,6.66725-.78342,1.657-.88227,3.61162-1.08046,7.5208-.12377,2.44174-1.00829,4.22715-.86018,7.19148a24.30138,24.30138,0,0,0,1.563,7.018c1.30753,3.5316.68044,5.60105,1.27722,6.245,2.4051,2.59522,9.19641.15971,9.47424,3.67782.17155,2.17235-1.53012,2.65669-1.25816,5.19551.35258,3.29133,11.27775.98843,14.455-.81093.43311-.24529,4.3473-2.98249,3.71694-6.80959-.33681-2.0445-2.62322-11.60522-2.51106-12.85752.40581-4.52631,2.72861-5.1829,4.31232-10.70462a8.24788,8.24788,0,0,0-1.85248-8.08629A18.19213,18.19213,0,0,0,387.39875,195.68139Z" fill="#f9977a"/><ellipse cx="371.15613" cy="214.727" rx="0.94788" ry="1.13699" transform="translate(-11.68578 21.60365) rotate(-3.28239)" fill="#0a0709"/><ellipse cx="379.69379" cy="214.33421" rx="0.94788" ry="1.13699" transform="translate(-11.64929 22.09185) rotate(-3.28239)" fill="#0a0709"/><path d="M369.13047,212.792a.58786.58786,0,0,1-.36817-1.0459,6.38905,6.38905,0,0,1,7.05762-.34765.58724.58724,0,0,1-.57617,1.02344,5.28472,5.28472,0,0,0-5.74512.24023A.58671.58671,0,0,1,369.13047,212.792Z" fill="#1e1d22"/><path d="M377.98008,212.38477a.5876.5876,0,0,1-.36914-1.04493,6.39415,6.39415,0,0,1,7.05664-.34863.58724.58724,0,0,1-.57617,1.02344,5.238,5.238,0,0,0-5.7461.24219A.58637.58637,0,0,1,377.98008,212.38477Z" fill="#1e1d22"/><path d="M376.38438,212.68384a4.40069,4.40069,0,0,1-.11255,2.91614,10.12978,10.12978,0,0,1-1.35035,2.63122c-.29834.4082-.71923.70874-.63916,1.10584a1.71,1.71,0,0,0,.73194,1.04931,3.87493,3.87493,0,0,0,2.7395.43567,3.56644,3.56644,0,0,1-2.9082-.186,1.88913,1.88913,0,0,1-.91724-1.25721,1.06246,1.06246,0,0,1,.23022-.81128l.45337-.57568a11.01926,11.01926,0,0,0,1.38184-2.50415A4.96967,4.96967,0,0,0,376.38438,212.68384Z" fill="#dd765e"/><path d="M391.9188,212.35437a2.50722,2.50722,0,0,1,1.96411.6637,4.282,4.282,0,0,1,.69141.801,3.71468,3.71468,0,0,1,.43921.94849,13.48242,13.48242,0,0,0-1.38526-1.45252,4.4266,4.4266,0,0,0-.78882-.57165A3.75379,3.75379,0,0,0,391.9188,212.35437Z" fill="#dd765e"/><path d="M392.92222,217.05444a3.25593,3.25593,0,0,1-.47193-2.15979,3.61967,3.61967,0,0,1,.324-1.08349,3.04169,3.04169,0,0,1,.65967-.89771c-.13428.34815-.28663.66858-.37989,1.00928a4.57993,4.57993,0,0,0-.21533,1.0188A6.688,6.688,0,0,0,392.92222,217.05444Z" fill="#dd765e"/><path d="M378.78224,234.66282s6.6911-.18816,10.25967-5.48877c1.70155-2.527,1.46162-7.47007,1.14093-10.33715a8.60578,8.60578,0,0,1,.42916-3.81c.59355-1.69269,1.31062-3.99483,2.98845-4.22306,1.23624-.16817,1.71945-.50728,2.22374.62792.83343,1.878-.346,4.04627-1.167,5.55649-1.17564,2.161-2.23947,2.66988-2.18729,4.12515.03967,1.11017,3.43523,3.21062,4.03627,2.74869,1.22521-.94163.39955-3.55663,3.55018-10.01521,1.98977-4.07833,2.95817-4.87077,3.08851-7.36555.04622-.88581.23762-4.55305-2.14529-6.57117-1.10531-.93607-1.6913-.60843-6.37832-2.27328a38.75018,38.75018,0,0,1-3.81822-1.48916c-3.75483-1.75949-3.72244-2.75487-5.89287-3.24342-1.96073-.44125-2.036.36057-5.74035.31956-3.57148-.03943-3.92519-.7896-5.5492-.261-2.81964.91758-4.0469,3.92518-4.37643,4.73331a9.20989,9.20989,0,0,0-.88367,4.48479,8.42921,8.42921,0,0,0,1.95043,4.23521c.48689.4348,2.23986-2.28121,3.217-3.31759.95821-1.01541,2.12082-.67117,3.683-.64943,1.52313.0212,1.48517.93718,3.771,1.63468.81443.24848,3.95294-1.28464,5.07272.37944,1.19311,1.77306,2.06158,1.95458,1.62771,3.67545-.2711,1.07512-.00645,2.36849.52279,4.95538.37962,1.85646-.86591,8.4592-.86591,8.4592a2.40606,2.40606,0,0,1-3.13774,1.18335,43.52588,43.52588,0,0,0-5.366-1.94987,7.92766,7.92766,0,0,0-6.49593,1.02062c-.65155.42642-1.3192.90128-1.84542,1.32605a2.63179,2.63179,0,0,0-.97769,2.338C369.85346,228.26509,371.39876,235.06527,378.78224,234.66282Zm-6.83391-9.44556c.20913-1.34774,2.24842-1.96193,3.41277-2.31128a5.01811,5.01811,0,0,1,2.8942-.23237c.23.05712,2.316.64267,2.58055,2.22889.2652,1.58641-1.52419,2.78326-1.80479,2.96365a4.87161,4.87161,0,0,1-4.59058.35227C373.35541,227.73937,371.74294,226.51282,371.94833,225.21726Z" fill="#1e1d22"/><path d="M379.91782,224.74471s-3.56333,3.526-7.06408.325" fill="#0a0709"/><path d="M338.71386,240.97622c8.966,3.618,22.51044,20.11492,22.51044,20.11492L376.65,246.80446l3.46012-8.34241,13.86747-3.64739a4.89351,4.89351,0,0,0,3.69965-5.45263l-.0166-.0988,7.66647,12.295c6.05835,9.716,7.89591,20.92121,7.02253,32.22734L409.679,320.69947s-43.49474,5.15131-41.58708,0l.34664-8.28028-4.73425-.5506-10.30138-2.0237,1.33536-12.5104,10.68292-.36793,4.00607-3.12761.42783-13.0725-2.36644.39166c-6.20421,1.02689-13.71963-1.77653-17.59253-6.56243l-19.00365-24.54309A13.041,13.041,0,0,1,338.71386,240.97622Z" fill="#f73c4f"/><path d="M401.94321,236.13135c-1.48535.92969-2.98169,1.8385-4.50561,2.6947-1.51685.86926-3.0354,1.73547-4.57471,2.562-3.07593,1.658-6.17627,3.269-9.31787,4.80066l-.41235.20093-.15894-.40137-1.48193-3.74109c-.47-1.25744-.95069-2.51037-1.38159-3.78515.6499,1.17834,1.25048,2.37841,1.86132,3.57385l1.761,3.61792-.5708-.20044c3.05469-1.69824,6.15112-3.317,9.272-4.889,1.55884-.78845,3.13867-1.53711,4.72022-2.28284C398.72837,237.52271,400.33042,236.81653,401.94321,236.13135Z" fill="#b02336"/><path d="M369.42734,293.839a34.22917,34.22917,0,0,1,4.561-1.52234q2.32178-.63208,4.66919-1.16626,4.69189-1.07429,9.42773-1.9447l-.18384.22607-.84057-18.74048a59.77314,59.77314,0,0,1,.16382-9.42651,23.12237,23.12237,0,0,1,2.67407-9.106,10.84672,10.84672,0,0,1,3.29932-3.54968,9.47681,9.47681,0,0,1,4.61792-1.52331,11.23081,11.23081,0,0,1,8.84326,3.41162,11.79,11.79,0,0,1,1.50439,1.92675,13.0352,13.0352,0,0,1,1.04639,2.19165,35.63,35.63,0,0,1,1.41626,4.53272,57.008,57.008,0,0,1,1.41455,9.34216,104.50939,104.50939,0,0,1-.51685,18.80884c-.33423,3.11841-.78881,6.2207-1.30249,9.312a10.96361,10.96361,0,0,1-5.35107,7.72425,12.71336,12.71336,0,0,1-2.18189.99536l-2.20336.8153c-1.47144.53614-2.95337,1.04358-4.43921,1.53809-2.97535.97839-5.97705,1.88245-9.021,2.6261a85.08142,85.08142,0,0,1-9.22119,1.78284,43.33266,43.33266,0,0,1-9.36524.32568,43.22454,43.22454,0,0,0,9.33448-.54041,84.76868,84.76868,0,0,0,9.14331-1.988q4.51391-1.23671,8.94287-2.76026c1.47388-.51184,2.94336-1.0365,4.4021-1.58972l2.18384-.84045a11.99514,11.99514,0,0,0,2.06616-.97315,10.19061,10.19061,0,0,0,4.89282-7.252c.478-3.082.9314-6.16785,1.24585-9.26892a103.64054,103.64054,0,0,0,.43384-18.64185,56.082,56.082,0,0,0-1.42847-9.17651,34.59781,34.59781,0,0,0-1.35913-4.41809,10.4522,10.4522,0,0,0-2.32788-3.80628,10.28989,10.28989,0,0,0-8.08814-3.16027,8.56413,8.56413,0,0,0-4.1914,1.35986,9.96094,9.96094,0,0,0-3.03467,3.24609,22.53982,22.53982,0,0,0-2.604,8.75147,58.97742,58.97742,0,0,0-.27979,9.30591l.57276,18.74841.0061.19568-.18994.03076q-4.74134.76537-9.45459,1.72485-2.35437.483-4.68823,1.05713A34.18043,34.18043,0,0,0,369.42734,293.839Z" fill="#b02336"/><path d="M376.65,246.80444c-.45386,1.38855-.967,2.75244-1.449,4.1294-.51465,1.36694-1.03248,2.718-1.46558,4.09863a61.74428,61.74428,0,0,0-2.0791,8.40173,82.0096,82.0096,0,0,0-.94336,8.6272l-.37622,4.35535c-.16187,1.44983-.28955,2.90149-.48169,4.34973-.03418-1.46045-.00391-2.91748-.00781-4.37622l.09765-4.37061c.02735-1.45642.08179-2.90979.1814-4.38147.1145-1.46545.30176-2.92517.54541-4.37512a45.34544,45.34544,0,0,1,2.3418-8.48572C374.08359,252.0354,375.36631,249.42944,376.65,246.80444Z" fill="#b02336"/><path d="M361.22422,261.09119c-.29614,1.76379-.62329,3.43676-.82446,5.13549-.12281.84546-.17945,1.69434-.23853,2.5492-.06421.859-.0437,1.714-.08154,2.61792a8.13537,8.13537,0,0,1-.69849-2.59558,11.431,11.431,0,0,1,.02686-2.6958,13.10339,13.10339,0,0,1,.61377-2.61548A9.322,9.322,0,0,1,361.22422,261.09119Z" fill="#b02336"/><path d="M397.46982,296.78259c-1.46679-1.43506-2.86816-2.82763-4.38745-4.08728a28.54559,28.54559,0,0,0-2.35791-1.771,29.85928,29.85928,0,0,0-2.60205-1.50086,10.273,10.273,0,0,1,5.59888,2.50354,15.363,15.363,0,0,1,2.15185,2.22241A11.4376,11.4376,0,0,1,397.46982,296.78259Z" fill="#b02336"/><path d="M406.81748,307.45325a9.5,9.5,0,0,1-1.239,2.94372,11.05467,11.05467,0,0,1-2.08594,2.47486,8.627,8.627,0,0,1-2.82446,1.637,6.83116,6.83116,0,0,1-3.19825.30347,13.85884,13.85884,0,0,0,2.89893-1.02417,12.1735,12.1735,0,0,0,2.4707-1.67273A24.52342,24.52342,0,0,0,406.81748,307.45325Z" fill="#b02336"/><path d="M405.673,313.34045a6.80192,6.80192,0,0,1-1.877,2.47693,10.28015,10.28015,0,0,1-2.67334,1.6593,11.42945,11.42945,0,0,1-3.03907.762,12.2405,12.2405,0,0,1-1.55444.06323,13.95312,13.95312,0,0,1-1.53931-.1781c.50586-.13416,1.00537-.20667,1.49781-.31116.489-.1272.98144-.20105,1.45752-.34192a21.84517,21.84517,0,0,0,2.793-.91638A15.8649,15.8649,0,0,0,405.673,313.34045Z" fill="#b02336"/><path d="M365.42124,296.96655a33.15878,33.15878,0,0,1,.9751,6.03211,32.79971,32.79971,0,0,1-.02124,6.11035,32.737,32.737,0,0,1-.9751-6.03211A33.1389,33.1389,0,0,1,365.42124,296.96655Z" fill="#b02336"/><path d="M343.982,244.07507a36.94046,36.94046,0,0,1-3.98291,5.07459,36.51494,36.51494,0,0,1-4.719,4.39844,36.48757,36.48757,0,0,1,3.98291-5.07459A36.93221,36.93221,0,0,1,343.982,244.07507Z" fill="#b02336"/><rect x="324.94004" y="262.94238" width="0.39063" height="11.38379" fill="#7ca1b1"/><polygon points="343.016 289.604 342.866 289.243 355.268 284.084 355.419 284.444 343.016 289.604" fill="#7ca1b1"/><rect x="333.37651" y="274.13052" width="12.36533" height="0.39033" transform="translate(-45.53746 479.88734) rotate(-67.02728)" fill="#7ca1b1"/><path d="M409.679,320.69947a36.54555,36.54555,0,0,1-6.42442,22.56524,23.96442,23.96442,0,0,1-19.81193,10.06958l-37.6413-.10783c-6.37751.28758-11.80591.2259-13.6736,6.11377l-24.26728,76.50243-18.58-2.20537,15.14983-84.0798s.571-16.74164,18.86582-19.297l44.3061-7.99447.68813-6.307Z" fill="#6c7fd8"/><polygon points="367.702 322.434 367.503 322.098 376.55 316.749 376.75 317.085 367.702 322.434" fill="#5e7c24"/><path d="M325.1356,381.38306q.531-5.20258,1.14013-10.39527a23.24309,23.24309,0,0,1,3.17163-9.9552,16.05024,16.05024,0,0,1,7.77613-6.88781,10.05383,10.05383,0,0,1,2.56933-.63147,16.22259,16.22259,0,0,1,2.63037.06872,12.83987,12.83987,0,0,0,5.17188-.22095,12.92961,12.92961,0,0,1-5.18579.42615,16.59275,16.59275,0,0,0-2.59107-.00842,9.78284,9.78284,0,0,0-2.47754.66858,15.92133,15.92133,0,0,0-7.53027,6.80444,23.32442,23.32442,0,0,0-3.20361,9.77771Q325.90951,376.21106,325.1356,381.38306Z" fill="#065082"/><rect x="463.70366" y="321.34932" width="8.63678" height="136.99937" fill="#935b50"/><rect x="229.32947" y="314.72533" width="259.54635" height="6.62399" rx="1.48897" fill="#935b50"/><rect x="246.55382" y="321.34932" width="8.63678" height="136.99937" fill="#935b50"/><path d="M239.66408,321.34932H479.13176a0,0,0,0,1,0,0v18.68822a2.97795,2.97795,0,0,1-2.97795,2.97795H242.642a2.97795,2.97795,0,0,1-2.97795-2.97795V321.34932A0,0,0,0,1,239.66408,321.34932Z" fill="#c38f86"/><path d="M305.35575,179.92321H231.71152a2,2,0,0,1-2-2V98.19583a2,2,0,0,1,2-2H319a2,2,0,0,1,2,2v66.67505Z" fill="#ffba55"/><path d="M319,179.92321a2,2,0,0,0,2-2v-13.0523l-15.64423,15.0523Z" fill="#ffba55"/><path d="M245.35559,105.57562a1.49977,1.49977,0,0,1-1.5-1.5V89.67572a1.5,1.5,0,0,1,3,0v14.3999A1.49977,1.49977,0,0,1,245.35559,105.57562Z" fill="#e6952a"/><path d="M235.35559,105.57562a1.49977,1.49977,0,0,1-1.5-1.5V89.67572a1.5,1.5,0,0,1,3,0v14.3999A1.49977,1.49977,0,0,1,235.35559,105.57562Z" fill="#e6952a"/><path d="M255.35559,105.57562a1.49977,1.49977,0,0,1-1.5-1.5V89.67572a1.5,1.5,0,0,1,3,0v14.3999A1.49977,1.49977,0,0,1,255.35559,105.57562Z" fill="#e6952a"/><path d="M265.35559,105.57562a1.49977,1.49977,0,0,1-1.5-1.5V89.67572a1.5,1.5,0,0,1,3,0v14.3999A1.49977,1.49977,0,0,1,265.35559,105.57562Z" fill="#e6952a"/><path d="M275.35559,105.57562a1.49977,1.49977,0,0,1-1.5-1.5V89.67572a1.5,1.5,0,0,1,3,0v14.3999A1.49977,1.49977,0,0,1,275.35559,105.57562Z" fill="#e6952a"/><path d="M285.35559,105.57562a1.49977,1.49977,0,0,1-1.5-1.5V89.67572a1.5,1.5,0,0,1,3,0v14.3999A1.49977,1.49977,0,0,1,285.35559,105.57562Z" fill="#e6952a"/><path d="M295.35559,105.57562a1.49977,1.49977,0,0,1-1.5-1.5V89.67572a1.5,1.5,0,0,1,3,0v14.3999A1.49977,1.49977,0,0,1,295.35559,105.57562Z" fill="#e6952a"/><path d="M305.35559,105.57562a1.49977,1.49977,0,0,1-1.5-1.5V89.67572a1.5,1.5,0,0,1,3,0v14.3999A1.49977,1.49977,0,0,1,305.35559,105.57562Z" fill="#e6952a"/><path d="M315.35559,105.57562a1.49977,1.49977,0,0,1-1.5-1.5V89.67572a1.5,1.5,0,0,1,3,0v14.3999A1.49977,1.49977,0,0,1,315.35559,105.57562Z" fill="#e6952a"/><polygon points="320.93 164.799 305.287 164.943 305.425 179.995 320.93 164.799" fill="#e6952a"/><circle cx="283.85559" cy="121.07546" r="6.48" fill="#e6952a"/><circle cx="301.83559" cy="121.07546" r="6.48" fill="#e6952a"/><circle cx="246.44434" cy="137.07546" r="6.48" fill="#e6952a"/><circle cx="265.35559" cy="137.07546" r="6.48" fill="#e6952a"/><circle cx="283.85559" cy="137.07546" r="6.48" fill="#e6952a"/><circle cx="301.83559" cy="137.07546" r="6.48" fill="#e6952a"/><circle cx="246.44434" cy="153.07546" r="6.48" fill="#e6952a"/><circle cx="265.35559" cy="153.07546" r="6.48" fill="#e6952a"/><circle cx="283.85559" cy="153.07546" r="6.48" fill="#e6952a"/><circle cx="301.83559" cy="153.07546" r="6.48" fill="#e6952a"/><circle cx="246.44434" cy="168.07546" r="6.48" fill="#e6952a"/><path d="M261.5897,146.73633a37.70656,37.70656,0,0,1,4.32031,6.00976c.61792,1.06226,1.22192,2.13282,1.76147,3.24176a26.78781,26.78781,0,0,1,1.45,3.4267,26.78643,26.78643,0,0,1-2.31592-2.91235c-.71582-1.00409-1.36695-2.04657-2.0044-3.09735A37.726,37.726,0,0,1,261.5897,146.73633Z" fill="#af2f2f"/><path d="M269.12144,146.73633a37.70927,37.70927,0,0,1-3.21143,6.66852c-.63721,1.05078-1.28857,2.09326-2.00439,3.09735a26.78885,26.78885,0,0,1-2.31592,2.91235,26.82348,26.82348,0,0,1,1.45-3.4267c.53955-1.10894,1.14355-2.1795,1.76147-3.24176A37.706,37.706,0,0,1,269.12144,146.73633Z" fill="#af2f2f"/><path d="M342.815,458.81785c-3.15467-2.10694-3.58458-6.30794-.99248-9.53784l10.9029-13.58555a1.493,1.493,0,0,1,1.65492-.40872l7.76231,3.36168a1.49665,1.49665,0,0,0,1.71583-.48192l4.527-5.82816a1.35349,1.35349,0,0,1,2.249.02306l4.59711,9.80222a1.25021,1.25021,0,0,1-.72819,1.59845l-31.67876,15.06321Z" fill="#f73c4f"/><path d="M263.89925,451.18118c-1.83473-3.683.28064-7.66785,4.78649-9.0564l18.95251-5.84051a1.84712,1.84712,0,0,1,1.8775.5848l5.616,7.4405a1.85378,1.85378,0,0,0,1.98175.55458l7.9825-2.5917c1.083-.35161,2.31582.3816,2.20185,1.30955L305.903,454.93967a1.40881,1.40881,0,0,1-1.68348,1.00506l-40.31462-4.75229Z" fill="#f73c4f"/><polygon points="481.703 194.162 482.873 192.539 438.008 160.176 424.443 160.176 424.443 162.176 437.362 162.176 481.703 194.162" fill="#f58a97"/><path d="M482.28714,195.28624a1.936,1.936,0,0,0,1.13432-3.50629l-9.29886-6.70758a1.93648,1.93648,0,0,0-2.26611,3.14079l9.29886,6.70758A1.92823,1.92823,0,0,0,482.28714,195.28624Z" fill="#fec165"/><rect x="457.16654" y="175.7724" width="2" height="123.85889" fill="#f58a97"/><path d="M420.378,178.71506l-11.96385-8.94385a15.45157,15.45157,0,0,1,16.61-9.17615S427.81185,173.13967,420.378,178.71506Z" fill="#fec165"/><polygon points="440.047 313.454 476.287 313.454 458.167 299.347 440.047 313.454" fill="#fec165"/><rect x="456.1921" y="173.79788" width="3.94923" height="3.94923" rx="1" transform="translate(916.33344 351.54499) rotate(-180)" fill="#fec165"/><path d="M138.72388,434.65048s-3.70791,18.36543-2.34608,18.94072,37.07791,2.82342,30.86826-.32043l-10.3129-4.55887a10.2602,10.2602,0,0,1-6.11144-9.28913l-.05426-5.8557Z" fill="#f9977a"/><path d="M190.83382,436.48514s-2.5271,18.56478-1.1313,19.0519,37.18254.449,30.78474-2.29174l-10.58307-3.89073a10.26018,10.26018,0,0,1-6.69237-8.87974l-.42823-5.84027Z" fill="#f9977a"/><path d="M149,250.17572s-3.68586,29.076-1.96368,103.61949l-11.737,76.57729a4.59124,4.59124,0,0,0,4.0721,5.00929l11.2548,1.22683a4.59125,4.59125,0,0,0,4.881-3.19868l22.33591-71.70021,9.87271,71.89913a4.59125,4.59125,0,0,0,4.54857,3.96667h11.5315a4.58818,4.58818,0,0,0,4.58609-4.37294c1.14252-24.4,5.84122-144.05542-9.713-184.05191Z" fill="#ffba55"/><path d="M177.84312,361.70972c.8186-7.40784,1.72412-14.803,2.62963-22.19776l2.77369-22.17541,2.80835-22.168q.70788-5.54151,1.32568-11.092a99.16788,99.16788,0,0,0,.87549-11.12488,86.85568,86.85568,0,0,1-.38745,11.17188q-.47754,5.57079-1.04932,11.132c-.77271,7.41309-1.67554,14.81067-2.58179,22.20679-.98,7.387-1.9375,14.77637-3.00561,22.15088C180.16733,346.988,179.07041,354.35828,177.84312,361.70972Z" fill="#e6952a"/><path d="M206.3646,343.36316a26.91154,26.91154,0,0,0-1.89917,5.30359,19.17383,19.17383,0,0,0-.5415,5.4917,16.35961,16.35961,0,0,0,.36181,2.72217,16.01173,16.01173,0,0,0,.89527,2.60278,20.74112,20.74112,0,0,0,2.98413,4.74389c-.35669-.312-.71045-.6333-1.05664-.96508a8.016,8.016,0,0,1-1.00464-1.03406l-.88745-1.14941a10.17241,10.17241,0,0,1-.7378-1.25562,13.80293,13.80293,0,0,1-1.11059-2.70959,15.26469,15.26469,0,0,1,.34936-8.6587A16.81324,16.81324,0,0,1,206.3646,343.36316Z" fill="#e6952a"/><path d="M152.44321,292.82422c.095,2.06653.302,4.111.5647,6.13733a43.73794,43.73794,0,0,0,1.2,5.97986,23.19973,23.19973,0,0,0,2.28223,5.58361,13.55534,13.55534,0,0,0,4.0813,4.44739,11.03642,11.03642,0,0,1-4.73877-4.02685,19.1952,19.1952,0,0,1-2.58716-5.73462,31.88049,31.88049,0,0,1-.80225-12.38672Z" fill="#e6952a"/><path d="M150.09458,306.047a19.8811,19.8811,0,0,0,1.4397,5.78259,21.69267,21.69267,0,0,0,4.87939,7.31958c.353.34375.68189.71582,1.05615,1.03857l1.136.95813a10.86768,10.86768,0,0,0,1.18066.90918l1.2129.8805c.82543.56677,1.70605,1.04821,2.54711,1.62341-.938-.37024-1.87377-.7699-2.79663-1.20142a25.12281,25.12281,0,0,1-2.61474-1.58935,20.84424,20.84424,0,0,1-4.46924-4.22144,18.53864,18.53864,0,0,1-2.86255-5.45276A14.41262,14.41262,0,0,1,150.09458,306.047Z" fill="#e6952a"/><path d="M164.96494,268.385c-.27441,1.52136-.56616,3.03809-.91772,4.53845-.34107,1.50342-.67383,3.00891-1.05762,4.50061l-.04932.19226-.18847.09851c-2.512,1.31214-5.04444,2.58313-7.60962,3.78833-1.27466.61878-2.58228,1.17151-3.87183,1.7605-1.29321.58154-2.60644,1.1228-3.93017,1.64343,1.21069-.74658,2.43164-1.47241,3.67285-2.15808,1.24487-.67822,2.47168-1.39257,3.73144-2.041,2.50342-1.3291,5.03955-2.59253,7.59644-3.8147l-.23779.29041c.4226-1.48121.89575-2.94861,1.36108-4.41834C163.91855,271.29285,164.4332,269.83667,164.96494,268.385Z" fill="#e6952a"/><path d="M201.56162,261.37146A72.21711,72.21711,0,0,1,189.026,266.0343a83.8872,83.8872,0,0,1-13.17945,2.4729l-3.35058.25318-3.36109.0509c-1.12011.04932-2.23925-.04663-3.35815-.10022a29.16842,29.16842,0,0,1-3.34766-.27612,50.8393,50.8393,0,0,1-12.96679-3.26648q1.62194.42,3.22509.86511c.53662.14087,1.06592.30725,1.60718.42676l1.63989.28808c1.09229.18763,2.1709.44373,3.26856.583l3.30249.338a70.46255,70.46255,0,0,0,13.2439-.15637,93.70942,93.70942,0,0,0,13.0852-2.22009c2.15576-.51721,4.29932-1.09473,6.41724-1.76111C197.38682,262.91333,199.48008,262.16541,201.56162,261.37146Z" fill="#e6952a"/><path d="M195.00742,265.50952a13.98309,13.98309,0,0,0-.72217-4.25732,20.84848,20.84848,0,0,0-.79248-1.99353c-.29687-.66431-.64306-1.31067-.95239-2.02539a6.8821,6.8821,0,0,1,1.62647,1.63244,7.99811,7.99811,0,0,1,1.06787,2.074,7.1885,7.1885,0,0,1,.34643,2.32177A4.60263,4.60263,0,0,1,195.00742,265.50952Z" fill="#e6952a"/><path d="M159.57139,269.72729a10.5167,10.5167,0,0,1-.44434-2.94824,13.07761,13.07761,0,0,1,.27637-2.9906,10.50069,10.50069,0,0,1,1.07715-2.8352,6.52148,6.52148,0,0,1,2.06591-2.1864,14.7581,14.7581,0,0,0-1.36572,2.53088,19.59487,19.59487,0,0,0-.801,2.70471A54.70842,54.70842,0,0,0,159.57139,269.72729Z" fill="#e6952a"/><path d="M162.92712,166.44449l18.74779,1.0488s25.04895,1.87145,25.01458,23.497l2.1403,20.57177a35.93486,35.93486,0,0,1,4.17265,9.41661c2.45139,9.01256-.63665,17.31323-9.74659,19.37347l.78789,13.80715a6.1566,6.1566,0,0,1-4.69414,6.33305c-9.05773,2.20675-28.1154,6.33353-37.11888,4.44139l-14.4391-3.56543.08378-27.36179s-26.53579,7.68819-24.03011-7.687c2.01929-12.39053,8.30426-35.53475,16.48258-49.01855a19.72381,19.72381,0,0,1,13.25031-9.10036Z" fill="#6c7fd8"/><path d="M162.23072,216.71283s10.23584-10.46672,21.038-6.16464L166.04738,226.7215Z" fill="#f9977a"/><path d="M195.75059,197.43079q-.07324,3.72765-.22852,7.45092l-.35913,7.44373-.47241,7.43738q-.25782,3.71758-.605,7.43.07214-3.72785.22778-7.45105l.35986-7.44372.47339-7.43738Q195.40367,201.14332,195.75059,197.43079Z" fill="#065082"/><path d="M130.93149,217.31262c5.21485-.18579,10.43018-.3501,15.64649-.458l15.64819-.37768.1648-.004.0603.15588c1.45215,3.7566,2.84228,7.53687,4.2666,11.3042l.073.19324-.19531.06177-10.90992,3.45007c-3.6311,1.16712-7.29,2.24744-10.93432,3.37354,3.61719-1.21021,7.21972-2.46631,10.8501-3.63562l10.87475-3.559-.12256.25476c-1.44555-3.759-2.92553-7.505-4.34326-11.27478l.22486.15173-15.65113.22217C141.36729,217.26294,136.14951,217.29858,130.93149,217.31262Z" fill="#065082"/><path d="M149.11533,194.8219c-.0039,3.70569-.19726,7.40076-.375,11.09668-.23511,3.69275-.4541,7.38647-.865,11.06934.00269-3.70569.197-7.40076.37525-11.09668C148.48618,202.19849,148.70615,198.50488,149.11533,194.8219Z" fill="#065082"/><path d="M189.18735,234.91162a17.26565,17.26565,0,0,0,2.01734,2.92993,11.47655,11.47655,0,0,0,2.623,2.31311,7.70932,7.70932,0,0,0,3.23951,1.201,10.39868,10.39868,0,0,0,3.5227-.1643,8.17485,8.17485,0,0,1-3.56445.53979,7.614,7.614,0,0,1-3.45923-1.16138,10.773,10.773,0,0,1-2.65454-2.49243A11.68343,11.68343,0,0,1,189.18735,234.91162Z" fill="#065082"/><path d="M198.10776,223.22937c1.6377-2.08191,3.4148-4.03552,5.18042-5.99963,1.80786-1.9253,3.604-3.86158,5.54151-5.66773-1.63623,2.08289-3.41431,4.03577-5.18018,5.99964C201.84116,219.48657,200.04429,221.42212,198.10776,223.22937Z" fill="#065082"/><polygon points="207.646 209.615 180.2 210.666 159.366 234.301 189.318 232.568 207.646 209.615" fill="#025182"/><path d="M194.23858,235.46736c-2.76142.13389-7.99815-.01252-12.22538-2.47658l-1.13488-.83382a6.42163,6.42163,0,0,0-2.47209-1.10908,74.88078,74.88078,0,0,1-8.29721-2.11108,1.00755,1.00755,0,0,1-.63149-.991h0a1.66342,1.66342,0,0,1,1.74081-.80927l7.37985,1.65829-5.088-3.71913a1.35365,1.35365,0,0,1-.1042-2.10124l.02331-.02087a1.37779,1.37779,0,0,1,1.54857-.20894c2.77538,1.40836,11.48729,5.63484,10.84736,2.92826l-4.31954-4.371a1.0859,1.0859,0,0,1-.30948-.85675h0a1.08589,1.08589,0,0,1,1.46618-.92214l.70131.26538a1.08594,1.08594,0,0,1,.26556.14566l5.0054,3.73919a2.83391,2.83391,0,0,0,1.49584.56738,4.9026,4.9026,0,0,0,4.214-1.67608c1.21-1.44931,2.1466-2.5539,2.702-3.20538a.80737.80737,0,0,1,1.18892-.04308h0a.8091.8091,0,0,1,.22971.65795l-.91679,8.35291a9.87621,9.87621,0,0,1,.22075,4.19156A3.75571,3.75571,0,0,1,194.23858,235.46736Z" fill="#f9977a"/><path d="M176.74912,127.3089a18.998,18.998,0,0,1,8.81736,1.25506c1.31.54864,6.101,2.55513,8.22461,7.31631.80656,1.8082.89274,3.934,1.06562,8.18549.108,2.65557,1.01938,4.60419.83762,7.82556a27.25834,27.25834,0,0,1-1.70145,7.61605c-1.40242,3.82808-.76344,6.08327-1.39488,6.77817-2.5448,2.80066-9.64336.0944-9.96608,3.9167-.19926,2.36016,1.58052,2.90138,1.2727,5.65909-.39906,3.5751-11.83293.9774-15.148-1.00612-.45191-.2704-4.53127-3.27984-3.83618-7.435.37138-2.21976,2.854-12.59392,2.74755-13.95631-.385-4.92424-2.81451-5.65805-4.42562-11.67459a9.20391,9.20391,0,0,1,2.01446-8.775A18.80024,18.80024,0,0,1,176.74912,127.3089Z" fill="#f9977a"/><ellipse cx="193.60851" cy="148.15409" rx="1.23599" ry="0.99394" transform="translate(34.87172 333.18522) rotate(-86.79808)" fill="#0a0709"/><ellipse cx="184.66074" cy="147.65353" rx="1.23599" ry="0.99394" transform="translate(26.9235 323.77882) rotate(-86.79808)" fill="#0a0709"/><path d="M195.75449,146.05664a.62427.62427,0,0,1-.40332-.14648h0a5.30693,5.30693,0,0,0-5.99316-.31153.62768.62768,0,1,1-.62305-1.08984,6.66455,6.66455,0,0,1,7.42481.44238.627.627,0,0,1-.40528,1.10547Z" fill="#1e1d22"/><path d="M186.48105,145.53711a.62429.62429,0,0,1-.40332-.14648h0a5.30393,5.30393,0,0,0-5.99316-.31055.62769.62769,0,0,1-.62305-1.08985,6.66505,6.66505,0,0,1,7.42481.44141.627.627,0,0,1-.40528,1.10547Z" fill="#1e1d22"/><path d="M188.14536,145.88788a5.609,5.609,0,0,0,.37451,3.01941,12.47911,12.47911,0,0,0,1.40943,2.7279l.46753.625a1.2187,1.2187,0,0,1,.27441.85382,1.99374,1.99374,0,0,1-.92334,1.39069,3.59736,3.59736,0,0,1-3.11108.21863,3.86124,3.86124,0,0,0,2.92138-.47846,1.78941,1.78941,0,0,0,.73316-1.15625c.05591-.41772-.3999-.76355-.70069-1.20862a11.38513,11.38513,0,0,1-1.3706-2.86016A4.92175,4.92175,0,0,1,188.14536,145.88788Z" fill="#dd765e"/><path d="M171.86118,145.39581a3.77807,3.77807,0,0,0-.9768.41651,4.58861,4.58861,0,0,0-.83057.61883,14.89022,14.89022,0,0,0-1.45874,1.56153,4.025,4.025,0,0,1,.457-1.01386,4.60655,4.60655,0,0,1,.72534-.86108A2.60949,2.60949,0,0,1,171.86118,145.39581Z" fill="#dd765e"/><path d="M170.76719,150.49683a7.61992,7.61992,0,0,0,.10278-2.29322,5.12481,5.12481,0,0,0-.2146-1.11029c-.0935-.37164-.25049-.72259-.38794-1.10278a3.34109,3.34109,0,0,1,.68945.99023,4.02624,4.02624,0,0,1,.32862,1.17841A3.63,3.63,0,0,1,170.76719,150.49683Z" fill="#dd765e"/><path d="M176.58041,155.43575s-1.24689-7.18884-.8323-9.20381c.578-2.80775.867-4.21155.59238-5.38269-.43952-1.87457.47265-2.06443,1.7394-3.98171,1.18889-1.79945,4.46575-.10569,5.32185-.3688,2.40279-.7386,2.37118-1.73472,3.96829-1.74465,1.638-.01018,2.86-.3744,3.85557.73774,1.01526,1.13512,2.8289,4.1029,3.34326,3.63441a9.3162,9.3162,0,0,0,2.08275-4.58747,10.32672,10.32672,0,0,0-.88642-4.88321c-.33828-.88139-1.59812-4.16165-4.54618-5.18347-1.69795-.58862-2.0755.22387-5.82035.236-3.88418.01267-3.95594-.85966-6.0156-.39685-2.27994.51242-2.25487,1.59483-6.20732,3.47529a39.77423,39.77423,0,0,1-4.01651,1.586c-4.929,1.76954-5.5404,1.40831-6.70762,2.41643-2.51638,2.17345-2.34846,6.16191-2.30792,7.1253.11437,2.71331,1.12261,3.58315,3.17235,8.034,3.24557,7.04853,2.35655,9.8843,3.63271,10.91854.626.50735,4.20485-1.74688,4.25636-2.95345.06771-1.58164-1.04312-2.14406-2.25641-4.50346-.8473-1.6489-2.06446-4.01627-1.17388-6.05075.53885-1.22977,1.04245-.857,2.33708-.66348,1.75707.26257,2.48832,2.7715,3.0955,4.61681a9.68019,9.68019,0,0,1,.41592,4.14575C173.26149,155.57239,177.11925,156.71381,176.58041,155.43575Z" fill="#1e1d22"/><path d="M184.33286,158.9693a10.36824,10.36824,0,0,0,3.69141,1.31793,4.5763,4.5763,0,0,0,1.83642-.15338,11.21351,11.21351,0,0,0,1.87549-.75043,3.96061,3.96061,0,0,1-1.5896,1.4765,4.17425,4.17425,0,0,1-1.07275.38379,5.06979,5.06979,0,0,1-1.14844.038,4.757,4.757,0,0,1-2.09619-.7608A4.53827,4.53827,0,0,1,184.33286,158.9693Z" fill="#dd765e"/><path d="M226.32928,458.24209c2.0649-3.30751.577-7.35525-3.36241-9.197l-16.5699-7.74672a1.62579,1.62579,0,0,0-1.76766.34367l-5.90478,6.46336a1.63062,1.63062,0,0,1-1.859.30287l-6.9647-3.38864c-.9449-.45974-2.14348.09944-2.14069.99871l.03419,11.00671a1.306,1.306,0,0,0,1.41909,1.15252l37.10954.07462Z" fill="#6c7fd8"/><path d="M173.67957,458.24209c2.0649-3.30751.577-7.35525-3.36242-9.197l-16.56989-7.74672a1.62581,1.62581,0,0,0-1.76767.34367l-5.90478,6.46336a1.63062,1.63062,0,0,1-1.859.30287l-6.96469-3.38864c-.94491-.45974-2.14349.09944-2.1407.99871l.03419,11.00671a1.306,1.306,0,0,0,1.4191,1.15252l37.10953.07462Z" fill="#6c7fd8"/><path d="M188.24,154.94423c2.1162.04513,2.57079-.9881,5.94453,4.025,0,0-4.02448-1.50856-12.25948,0C181.925,158.96928,185.21,154.8796,188.24,154.94423Z" fill="#1e1d22"/><path d="M517.20779,220.41383V458.34869H571V220.41383a2.5812,2.5812,0,0,0-2.5812-2.5812H519.789A2.5812,2.5812,0,0,0,517.20779,220.41383Z" fill="#935b50"/><rect x="520.1762" y="261.1193" width="47.85539" height="35.54308" rx="2.5812" fill="#e19974"/><rect x="520.1762" y="221.70443" width="47.85539" height="35.54308" rx="2.5812" fill="#e19974"/><path d="M564.9918,252.73657a1.59465,1.59465,0,1,1-2.25342,2.25318,9.492,9.492,0,0,0,.561-.89795,2.024,2.024,0,0,1,.32569-.46888C563.8668,253.37683,564.18076,253.30432,564.9918,252.73657Z" fill="#d6694b"/><path d="M562.73838,223.96216a1.59469,1.59469,0,1,1,2.25342,2.25329,9.50634,9.50634,0,0,0-.898-.561,2.01735,2.01735,0,0,1-.46875-.32544C563.379,225.08691,563.30625,224.77307,562.73838,223.96216Z" fill="#d6694b"/><path d="M523.21592,226.21545a1.59469,1.59469,0,1,1,2.25342-2.25329,9.50567,9.50567,0,0,0-.561.89795,2.03906,2.03906,0,0,1-.32519.46887C524.34092,225.57507,524.027,225.64758,523.21592,226.21545Z" fill="#d6694b"/><path d="M525.46934,254.98975a1.59465,1.59465,0,1,1-2.25342-2.25318,9.55928,9.55928,0,0,0,.898.561,2.0364,2.0364,0,0,1,.46924.32531C524.82871,253.865,524.90146,254.17883,525.46934,254.98975Z" fill="#d6694b"/><path d="M564.9918,292.15137a1.59469,1.59469,0,1,1-2.25342,2.25329,9.505,9.505,0,0,0,.561-.89795,2.0239,2.0239,0,0,1,.32569-.46887C563.8668,292.79175,564.18076,292.71924,564.9918,292.15137Z" fill="#d6694b"/><path d="M562.73838,263.37708a1.59465,1.59465,0,1,1,2.25342,2.25317,9.5606,9.5606,0,0,0-.898-.561,2.02132,2.02132,0,0,1-.46875-.32531C563.379,264.50183,563.30625,264.188,562.73838,263.37708Z" fill="#d6694b"/><path d="M523.21592,265.63025a1.59465,1.59465,0,1,1,2.25342-2.25317,9.49153,9.49153,0,0,0-.561.89794,2.04182,2.04182,0,0,1-.32519.46888C524.34092,264.99,524.027,265.0625,523.21592,265.63025Z" fill="#d6694b"/><path d="M525.46934,294.40466a1.59469,1.59469,0,1,1-2.25342-2.25329,9.505,9.505,0,0,0,.898.561,2.033,2.033,0,0,1,.46924.32544C524.82871,293.27991,524.90146,293.59375,525.46934,294.40466Z" fill="#d6694b"/><rect x="520.1762" y="339.94905" width="47.85539" height="35.54308" rx="2.5812" fill="#e19974"/><rect x="520.1762" y="379.36392" width="47.85539" height="35.54308" rx="2.5812" fill="#e19974"/><rect x="536.74749" y="234.63622" width="14.71282" height="5.42051" rx="1" fill="#d6694b"/><rect x="536.74749" y="352.88084" width="14.71282" height="5.42051" rx="1" fill="#d6694b"/><rect x="536.74749" y="392.29572" width="14.71282" height="5.42051" rx="1" fill="#d6694b"/><rect x="536.74749" y="274.0511" width="14.71282" height="5.42051" rx="1" fill="#d6694b"/><path d="M564.9918,370.98108a1.59469,1.59469,0,1,1-2.25342,2.2533,9.50765,9.50765,0,0,0,.561-.89795,2.024,2.024,0,0,1,.32569-.46888C563.8668,371.62146,564.18076,371.549,564.9918,370.98108Z" fill="#d6694b"/><path d="M562.73838,342.20679a1.59469,1.59469,0,1,1,2.25342,2.25329,9.53953,9.53953,0,0,0-.898-.56115,2.01433,2.01433,0,0,1-.46875-.32532C563.379,343.33154,563.30625,343.0177,562.73838,342.20679Z" fill="#d6694b"/><path d="M523.21592,344.46008a1.59469,1.59469,0,1,1,2.25342-2.25329,9.50567,9.50567,0,0,0-.561.89795,2.03906,2.03906,0,0,1-.32519.46887C524.34092,343.8197,524.027,343.89221,523.21592,344.46008Z" fill="#d6694b"/><path d="M525.46934,373.23438a1.59469,1.59469,0,1,1-2.25342-2.2533,9.541,9.541,0,0,0,.898.56116,2.029,2.029,0,0,1,.46924.32531C524.82871,372.10962,524.90146,372.42346,525.46934,373.23438Z" fill="#d6694b"/><path d="M564.9918,410.396a1.59469,1.59469,0,1,1-2.25342,2.25329,9.505,9.505,0,0,0,.561-.89795,2.02128,2.02128,0,0,1,.32569-.46887C563.8668,411.03638,564.18076,410.96387,564.9918,410.396Z" fill="#d6694b"/><path d="M562.73838,381.62158a1.59469,1.59469,0,1,1,2.25342,2.2533,9.5606,9.5606,0,0,0-.898-.561,2.02132,2.02132,0,0,1-.46875-.32531C563.379,382.74634,563.30625,382.43262,562.73838,381.62158Z" fill="#d6694b"/><path d="M523.21592,383.87488a1.59469,1.59469,0,1,1,2.25342-2.2533,9.50623,9.50623,0,0,0-.561.89807,2.042,2.042,0,0,1-.32519.46888C524.34092,383.2345,524.027,383.30713,523.21592,383.87488Z" fill="#d6694b"/><path d="M525.46934,412.64929a1.59469,1.59469,0,1,1-2.25342-2.25329,9.505,9.505,0,0,0,.898.561,2.03237,2.03237,0,0,1,.46924.32544C524.82871,411.52454,524.90146,411.83826,525.46934,412.64929Z" fill="#d6694b"/><path d="M532.81429,401.62935s26.2573.53285,30.24631-3.90394c0,0-8.59848,30.80679-2.10722,45.92154l-29.20418-3.084S535.16444,416.70378,532.81429,401.62935Z" fill="#7ca1b1"/><path d="M526.38492,405.40344s26.2573.53284,30.24632-3.904c0,0-8.59849,30.8068-2.10722,45.92155l-29.20419-3.084S528.73507,420.47787,526.38492,405.40344Z" fill="#f65b2b"/><path d="M529.66931,408.30358s26.25731.53284,30.24632-3.90394c0,0-8.59848,30.80679-2.10722,45.92154l-29.20419-3.084S532.01946,423.378,529.66931,408.30358Z" fill="#fff"/><path d="M532.884,285.23074s26.2573.53284,30.24631-3.904c0,0-8.59848,30.80679-2.10722,45.92154l-29.20418-3.084S535.23415,300.30517,532.884,285.23074Z" fill="#ffba55"/><path d="M526.45463,289.00482s26.2573.53285,30.24631-3.90394c0,0-8.59848,30.80679-2.10721,45.92154l-29.20419-3.084S528.80478,304.07925,526.45463,289.00482Z" fill="#f65b2b"/><path d="M529.739,291.905s26.25731.53285,30.24632-3.90394c0,0-8.59848,30.80679-2.10722,45.92154l-29.20419-3.084S532.08917,306.97939,529.739,291.905Z" fill="#fff"/><rect x="520.1762" y="418.77879" width="47.85539" height="35.54308" rx="2.5812" fill="#e19974"/><rect x="536.74749" y="431.71059" width="14.71282" height="5.42051" rx="1" fill="#d6694b"/><path d="M564.9918,449.81091a1.59469,1.59469,0,1,1-2.25342,2.2533,9.5043,9.5043,0,0,0,.561-.89807,2.02653,2.02653,0,0,1,.32569-.46887C563.8668,450.45129,564.18076,450.37866,564.9918,449.81091Z" fill="#d6694b"/><path d="M562.73838,421.0365a1.59469,1.59469,0,1,1,2.25342,2.25329,9.50634,9.50634,0,0,0-.898-.561,2.01735,2.01735,0,0,1-.46875-.32544C563.379,422.16125,563.30625,421.84753,562.73838,421.0365Z" fill="#d6694b"/><path d="M523.21592,423.28979a1.59469,1.59469,0,1,1,2.25342-2.25329,9.50567,9.50567,0,0,0-.561.898,2.0364,2.0364,0,0,1-.32519.46887C524.34092,422.64941,524.027,422.72192,523.21592,423.28979Z" fill="#d6694b"/><path d="M525.46934,452.06421a1.59469,1.59469,0,1,1-2.25342-2.2533,9.55928,9.55928,0,0,0,.898.561,2.03608,2.03608,0,0,1,.46924.32532C524.82871,450.93945,524.90146,451.25317,525.46934,452.06421Z" fill="#d6694b"/><rect x="520.1762" y="300.53417" width="47.85539" height="35.54308" rx="2.5812" fill="#e19974"/><rect x="536.74749" y="313.46597" width="14.71282" height="5.42051" rx="1" fill="#d6694b"/><path d="M564.9918,331.56628a1.59469,1.59469,0,1,1-2.25342,2.2533,9.48741,9.48741,0,0,0,.561-.89807,2.02653,2.02653,0,0,1,.32569-.46887C563.8668,332.20667,564.18076,332.134,564.9918,331.56628Z" fill="#d6694b"/><path d="M562.73838,302.79187a1.59469,1.59469,0,1,1,2.25342,2.2533,9.5606,9.5606,0,0,0-.898-.561,2.01735,2.01735,0,0,1-.46875-.32544C563.379,303.91663,563.30625,303.60291,562.73838,302.79187Z" fill="#d6694b"/><path d="M523.21592,305.04517a1.59469,1.59469,0,1,1,2.25342-2.2533,9.50567,9.50567,0,0,0-.561.89795,2.0364,2.0364,0,0,1-.32519.46887C524.34092,304.40479,524.027,304.47729,523.21592,305.04517Z" fill="#d6694b"/><path d="M525.46934,333.81958a1.59469,1.59469,0,1,1-2.25342-2.2533,9.55928,9.55928,0,0,0,.898.561,2.03608,2.03608,0,0,1,.46924.32532C524.82871,332.69482,524.90146,333.00854,525.46934,333.81958Z" fill="#d6694b"/><rect x="99.99961" y="457.34863" width="500" height="2" fill="#935b50"/></svg>